{"glyphs":{"0":{"ha":875,"x_min":60,"x_max":815,"o":"m 60 468 q 158 827 60 701 q 438 953 257 953 q 717 827 618 953 q 815 468 815 701 q 717 111 815 236 q 438 -14 619 -14 q 158 111 256 -14 q 60 468 60 236 m 306 468 q 339 269 306 338 q 438 200 372 200 q 535 269 501 200 q 569 468 569 338 q 535 669 569 600 q 438 739 501 739 q 340 669 374 739 q 306 468 306 599 z "},"1":{"ha":533,"x_min":28,"x_max":442,"o":"m 442 0 l 201 0 l 201 732 l 28 732 l 28 939 l 442 939 l 442 0 z "},"2":{"ha":807,"x_min":31,"x_max":760,"o":"m 760 214 l 760 0 l 61 0 l 61 136 l 340 406 q 426 494 393 457 q 476 565 460 532 q 493 638 493 599 q 481 692 493 669 q 444 727 468 715 q 386 739 421 739 q 319 724 347 739 q 277 682 292 710 q 263 614 263 654 l 31 614 q 78 790 31 714 q 208 910 125 867 q 399 953 290 953 q 575 915 497 953 q 698 814 653 878 q 743 668 743 750 q 725 560 743 610 q 660 453 707 511 q 526 311 614 396 l 426 214 l 760 214 z "},"3":{"ha":806,"x_min":31,"x_max":772,"o":"m 393 -12 q 206 26 288 -12 q 77 131 124 64 q 31 285 31 199 l 264 285 q 303 204 268 233 q 396 175 338 175 q 492 203 458 175 q 526 282 526 231 q 485 359 526 332 q 368 386 444 386 l 263 386 l 263 574 l 354 574 q 426 585 397 574 q 469 617 454 596 q 485 669 485 639 q 458 740 485 715 q 381 765 431 765 q 306 736 333 765 q 278 656 278 707 l 46 656 q 92 808 46 740 q 217 914 138 875 q 393 953 296 953 q 574 919 499 953 q 690 826 650 885 q 731 689 731 767 q 697 581 731 629 q 600 494 664 532 q 728 413 683 465 q 772 288 772 361 q 724 131 772 199 q 592 25 676 63 q 393 -12 507 -12 z "},"4":{"ha":850,"x_min":11,"x_max":825,"o":"m 825 167 l 690 167 l 690 0 l 453 0 l 453 167 l 11 167 l 11 346 l 496 939 l 690 939 l 690 375 l 825 375 l 825 167 m 269 375 l 453 375 l 453 606 l 269 375 z "},"5":{"ha":813,"x_min":31,"x_max":782,"o":"m 411 -14 q 220 26 306 -14 q 85 137 135 67 q 31 297 35 207 l 271 297 q 317 224 281 249 q 410 200 354 200 q 487 218 460 200 q 524 263 514 236 q 535 314 535 289 q 523 367 535 340 q 482 412 511 393 q 400 431 453 431 q 314 410 350 431 q 263 344 278 389 l 64 411 l 147 939 l 725 939 l 725 725 l 321 725 l 301 604 q 369 627 333 619 q 442 635 406 635 q 636 588 561 635 q 747 466 711 540 q 782 313 782 392 q 760 198 782 256 q 692 92 738 140 q 576 15 646 44 q 411 -14 507 -14 z "},"6":{"ha":822,"x_min":31,"x_max":792,"o":"m 410 -11 q 212 33 297 -11 q 78 148 126 76 q 31 303 31 219 q 42 408 31 361 q 79 503 53 456 q 153 606 106 550 l 436 939 l 706 939 l 442 624 q 449 624 446 624 q 457 624 453 624 q 633 584 557 624 q 750 476 708 544 q 792 319 792 407 q 744 153 792 229 q 610 33 696 78 q 410 -11 524 -11 m 413 189 q 476 201 446 189 q 524 241 506 214 q 543 311 543 268 q 524 384 543 357 q 476 424 506 411 q 413 436 446 436 q 322 408 363 436 q 281 311 281 379 q 300 241 281 268 q 349 201 319 214 q 413 189 379 189 z "},"7":{"ha":732,"x_min":25,"x_max":707,"o":"m 707 799 l 372 0 l 117 0 l 442 725 l 25 725 l 25 939 l 707 939 l 707 799 z "},"8":{"ha":821,"x_min":33,"x_max":788,"o":"m 788 279 q 741 130 788 196 q 610 26 694 64 q 413 -12 526 -12 q 212 26 297 -12 q 80 130 126 64 q 33 279 33 196 q 74 402 33 350 q 178 488 114 454 q 94 565 126 519 q 63 675 63 611 q 106 817 63 754 q 227 916 149 879 q 413 953 306 953 q 596 916 518 953 q 717 817 674 879 q 760 675 760 754 q 728 565 760 611 q 644 488 696 519 q 747 402 707 454 q 788 279 788 350 m 308 667 q 335 602 308 626 q 413 578 363 578 q 488 602 461 578 q 514 667 514 626 q 488 739 514 713 q 413 765 461 765 q 335 739 363 765 q 308 667 308 713 m 281 285 q 296 226 281 251 q 340 188 311 201 q 413 175 369 175 q 483 188 454 175 q 528 226 513 201 q 543 285 543 251 q 528 339 543 315 q 483 376 513 363 q 413 390 454 390 q 340 376 369 390 q 296 339 311 363 q 281 285 281 315 z "},"9":{"ha":822,"x_min":31,"x_max":792,"o":"m 413 950 q 610 906 525 950 q 744 791 696 863 q 792 636 792 719 q 781 531 792 579 q 743 436 769 483 q 669 333 717 389 l 386 0 l 117 0 l 381 315 q 373 315 376 315 q 365 315 369 315 q 190 355 265 315 q 73 463 115 394 q 31 619 31 532 q 78 786 31 711 q 213 906 126 861 q 413 950 299 950 m 410 750 q 347 738 376 750 q 298 698 317 725 q 279 628 279 671 q 298 556 279 583 q 347 515 317 528 q 410 503 376 503 q 501 531 460 503 q 542 628 542 560 q 522 698 542 671 q 473 738 503 725 q 410 750 443 750 z "}," ":{"ha":290,"x_min":0,"x_max":0,"o":""}," ":{"ha":290,"x_min":0,"x_max":0,"o":""},"A":{"ha":1039,"x_min":8,"x_max":1031,"o":"m 300 392 l 724 392 l 792 185 l 231 185 l 300 392 m 747 0 l 514 708 l 274 0 l 8 0 l 378 997 l 665 997 l 1031 0 l 747 0 z "},"Á":{"ha":1039,"x_min":8,"x_max":1031,"o":"m 300 392 l 724 392 l 792 185 l 231 185 l 300 392 m 747 0 l 514 708 l 274 0 l 8 0 l 378 997 l 665 997 l 1031 0 l 747 0 m 647 1043 l 403 1043 l 542 1268 l 815 1268 l 647 1043 z "},"Ă":{"ha":1039,"x_min":8,"x_max":1031,"o":"m 300 392 l 724 392 l 792 185 l 231 185 l 300 392 m 747 0 l 514 708 l 274 0 l 8 0 l 378 997 l 665 997 l 1031 0 l 747 0 m 615 1268 l 781 1268 q 711 1099 781 1161 q 521 1036 642 1036 q 329 1099 399 1036 q 260 1268 260 1161 l 426 1268 q 452 1206 426 1228 q 521 1185 478 1185 q 590 1206 565 1185 q 615 1268 615 1228 z "},"Â":{"ha":1039,"x_min":8,"x_max":1031,"o":"m 300 392 l 724 392 l 792 185 l 231 185 l 300 392 m 747 0 l 514 708 l 274 0 l 8 0 l 378 997 l 665 997 l 1031 0 l 747 0 m 436 1043 l 175 1043 l 371 1268 l 672 1268 l 867 1043 l 607 1043 l 521 1146 l 436 1043 z "},"Ä":{"ha":1039,"x_min":8,"x_max":1031,"o":"m 300 392 l 724 392 l 792 185 l 231 185 l 300 392 m 747 0 l 514 708 l 274 0 l 8 0 l 378 997 l 665 997 l 1031 0 l 747 0 m 826 1165 q 788 1072 826 1108 q 690 1036 749 1036 q 590 1072 629 1036 q 551 1165 551 1108 q 590 1261 551 1225 q 690 1297 629 1297 q 788 1261 749 1297 q 826 1165 826 1225 m 490 1165 q 452 1072 490 1108 q 351 1036 414 1036 q 254 1072 293 1036 q 215 1165 215 1108 q 254 1261 215 1225 q 351 1297 293 1297 q 452 1261 414 1297 q 490 1165 490 1225 z "},"À":{"ha":1039,"x_min":8,"x_max":1031,"o":"m 300 392 l 724 392 l 792 185 l 231 185 l 300 392 m 747 0 l 514 708 l 274 0 l 8 0 l 378 997 l 665 997 l 1031 0 l 747 0 m 639 1043 l 394 1043 l 226 1268 l 501 1268 l 639 1043 z "},"Ā":{"ha":1039,"x_min":8,"x_max":1031,"o":"m 300 392 l 724 392 l 792 185 l 231 185 l 300 392 m 747 0 l 514 708 l 274 0 l 8 0 l 378 997 l 665 997 l 1031 0 l 747 0 m 764 1060 l 279 1060 l 279 1213 l 764 1213 l 764 1060 z "},"Ą":{"ha":1039,"x_min":8,"x_max":1031,"o":"m 300 392 l 724 392 l 792 185 l 231 185 l 300 392 m 747 0 l 514 708 l 274 0 l 8 0 l 378 997 l 665 997 l 1031 0 l 747 0 m 935 -104 l 935 -258 q 836 -274 882 -274 q 710 -237 763 -274 q 657 -124 657 -200 q 710 3 657 -54 q 856 136 763 60 l 921 64 q 862 8 885 38 q 839 -53 839 -21 q 853 -97 839 -82 q 893 -112 868 -112 q 935 -104 913 -112 z "},"Å":{"ha":1039,"x_min":8,"x_max":1031,"o":"m 300 392 l 724 392 l 792 185 l 231 185 l 300 392 m 747 0 l 514 708 l 274 0 l 8 0 l 378 997 l 665 997 l 1031 0 l 747 0 m 521 1036 q 415 1061 461 1036 q 344 1128 369 1086 q 319 1218 319 1169 q 344 1311 319 1269 q 415 1378 369 1353 q 521 1403 461 1403 q 626 1378 581 1403 q 698 1311 672 1353 q 724 1218 724 1269 q 698 1128 724 1169 q 626 1061 672 1086 q 521 1036 581 1036 m 521 1153 q 568 1168 549 1153 q 588 1218 588 1183 q 568 1271 588 1254 q 521 1288 549 1288 q 474 1271 496 1288 q 453 1218 453 1254 q 474 1168 453 1183 q 521 1153 496 1153 z "},"Ã":{"ha":1039,"x_min":8,"x_max":1031,"o":"m 300 392 l 724 392 l 792 185 l 231 185 l 300 392 m 747 0 l 514 708 l 274 0 l 8 0 l 378 997 l 665 997 l 1031 0 l 747 0 m 393 1036 l 250 1036 q 254 1158 238 1106 q 310 1240 271 1210 q 404 1269 350 1269 q 471 1262 439 1269 q 529 1243 503 1254 q 577 1224 556 1232 q 613 1217 599 1217 q 640 1229 629 1217 q 649 1281 651 1242 l 792 1281 q 787 1161 804 1214 q 730 1078 769 1108 q 635 1047 690 1047 q 569 1055 600 1047 q 511 1074 538 1063 q 464 1092 485 1085 q 428 1100 443 1100 q 402 1088 413 1100 q 393 1036 392 1076 z "},"Æ":{"ha":1317,"x_min":-19,"x_max":1264,"o":"m 613 185 l 250 185 l 340 392 l 613 392 l 613 779 l 276 0 l -19 0 l 447 997 l 1254 997 l 1254 771 l 874 771 l 874 626 l 1213 626 l 1213 399 l 874 399 l 874 226 l 1264 226 l 1264 0 l 613 0 l 613 185 z "},"B":{"ha":914,"x_min":97,"x_max":881,"o":"m 881 300 q 782 80 881 160 q 510 0 683 0 l 97 0 l 97 997 l 497 997 q 756 928 661 997 q 851 728 851 858 q 818 611 851 663 q 722 522 785 560 q 840 435 799 490 q 881 300 881 379 m 476 790 l 335 790 l 335 618 l 476 618 q 573 642 542 618 q 604 706 604 665 q 573 767 604 744 q 476 790 542 790 m 489 411 l 335 411 l 335 207 l 489 207 q 598 235 563 207 q 633 310 633 263 q 598 383 633 356 q 489 411 563 411 z "},"C":{"ha":1101,"x_min":39,"x_max":1063,"o":"m 546 -21 q 348 19 440 -21 q 186 130 256 58 q 78 296 117 201 q 39 500 39 390 q 78 703 39 610 q 186 868 117 797 q 348 978 256 939 q 546 1018 440 1018 q 794 962 683 1018 q 976 805 906 906 q 1063 572 1047 704 l 785 572 q 742 683 775 635 q 659 757 708 731 q 549 783 610 783 q 449 763 493 783 q 373 706 404 743 q 325 616 342 668 q 308 500 308 564 q 325 383 308 436 q 373 293 342 331 q 449 235 404 256 q 549 214 493 214 q 659 241 610 214 q 741 316 708 268 q 785 426 774 364 l 1063 426 q 975 192 1046 293 q 794 35 904 92 q 546 -21 683 -21 z "},"Ć":{"ha":1101,"x_min":39,"x_max":1063,"o":"m 546 -21 q 348 19 440 -21 q 186 130 256 58 q 78 296 117 201 q 39 500 39 390 q 78 703 39 610 q 186 868 117 797 q 348 978 256 939 q 546 1018 440 1018 q 794 962 683 1018 q 976 805 906 906 q 1063 572 1047 704 l 785 572 q 742 683 775 635 q 659 757 708 731 q 549 783 610 783 q 449 763 493 783 q 373 706 404 743 q 325 616 342 668 q 308 500 308 564 q 325 383 308 436 q 373 293 342 331 q 449 235 404 256 q 549 214 493 214 q 659 241 610 214 q 741 316 708 268 q 785 426 774 364 l 1063 426 q 975 192 1046 293 q 794 35 904 92 q 546 -21 683 -21 m 671 1043 l 426 1043 l 565 1268 l 839 1268 l 671 1043 z "},"Č":{"ha":1101,"x_min":39,"x_max":1063,"o":"m 546 -21 q 348 19 440 -21 q 186 130 256 58 q 78 296 117 201 q 39 500 39 390 q 78 703 39 610 q 186 868 117 797 q 348 978 256 939 q 546 1018 440 1018 q 794 962 683 1018 q 976 805 906 906 q 1063 572 1047 704 l 785 572 q 742 683 775 635 q 659 757 708 731 q 549 783 610 783 q 449 763 493 783 q 373 706 404 743 q 325 616 342 668 q 308 500 308 564 q 325 383 308 436 q 373 293 342 331 q 449 235 404 256 q 549 214 493 214 q 659 241 610 214 q 741 316 708 268 q 785 426 774 364 l 1063 426 q 975 192 1046 293 q 794 35 904 92 q 546 -21 683 -21 m 696 1043 l 394 1043 l 199 1268 l 460 1268 l 544 1165 l 631 1268 l 890 1268 l 696 1043 z "},"Ç":{"ha":1101,"x_min":39,"x_max":1063,"o":"m 546 -21 q 348 19 440 -21 q 186 130 256 58 q 78 296 117 201 q 39 500 39 390 q 78 703 39 610 q 186 868 117 797 q 348 978 256 939 q 546 1018 440 1018 q 794 962 683 1018 q 976 805 906 906 q 1063 572 1047 704 l 785 572 q 742 683 775 635 q 659 757 708 731 q 549 783 610 783 q 449 763 493 783 q 373 706 404 743 q 325 616 342 668 q 308 500 308 564 q 325 383 308 436 q 373 293 342 331 q 449 235 404 256 q 549 214 493 214 q 659 241 610 214 q 741 316 708 268 q 785 426 774 364 l 1063 426 q 975 192 1046 293 q 794 35 904 92 q 546 -21 683 -21 m 718 -153 q 667 -241 718 -207 q 535 -275 617 -275 q 402 -239 451 -275 q 344 -135 353 -203 l 488 -135 q 499 -160 490 -153 q 525 -168 508 -168 q 550 -160 540 -168 q 560 -137 560 -151 q 549 -111 560 -121 q 517 -99 539 -101 q 461 -100 496 -96 l 492 26 l 604 26 l 586 -42 q 683 -80 647 -50 q 718 -153 718 -110 z "},"D":{"ha":1039,"x_min":97,"x_max":1000,"o":"m 486 0 l 97 0 l 97 997 l 486 997 q 760 935 644 997 q 938 761 875 872 q 1000 504 1000 650 q 936 245 1000 360 q 756 65 872 131 q 486 0 640 0 m 360 771 l 360 226 l 471 226 q 616 257 558 226 q 702 349 674 288 q 731 504 731 411 q 701 652 731 593 q 615 741 672 711 q 471 771 557 771 l 360 771 z "},"Ð":{"ha":1072,"x_min":8,"x_max":1033,"o":"m 519 0 l 131 0 l 131 997 l 519 997 q 793 935 678 997 q 971 761 908 872 q 1033 504 1033 650 q 969 245 1033 360 q 790 65 906 131 q 519 0 674 0 m 393 771 l 393 226 l 504 226 q 649 257 592 226 q 735 349 707 288 q 764 504 764 411 q 735 652 764 593 q 648 741 706 711 q 504 771 590 771 l 393 771 m 583 406 l 8 406 l 8 619 l 583 619 l 583 406 z "},"Ď":{"ha":1039,"x_min":97,"x_max":1000,"o":"m 486 0 l 97 0 l 97 997 l 486 997 q 760 935 644 997 q 938 761 875 872 q 1000 504 1000 650 q 936 245 1000 360 q 756 65 872 131 q 486 0 640 0 m 360 771 l 360 226 l 471 226 q 616 257 558 226 q 702 349 674 288 q 731 504 731 411 q 701 652 731 593 q 615 741 672 711 q 471 771 557 771 l 360 771 m 681 1043 l 379 1043 l 183 1268 l 444 1268 l 529 1165 l 615 1268 l 875 1268 l 681 1043 z "},"Đ":{"ha":1072,"x_min":8,"x_max":1033,"o":"m 519 0 l 131 0 l 131 997 l 519 997 q 793 935 678 997 q 971 761 908 872 q 1033 504 1033 650 q 969 245 1033 360 q 790 65 906 131 q 519 0 674 0 m 393 771 l 393 226 l 504 226 q 649 257 592 226 q 735 349 707 288 q 764 504 764 411 q 735 652 764 593 q 648 741 706 711 q 504 771 590 771 l 393 771 m 583 406 l 8 406 l 8 619 l 583 619 l 583 406 z "},"E":{"ha":856,"x_min":97,"x_max":803,"o":"m 803 228 l 803 0 l 97 0 l 97 997 l 793 997 l 793 769 l 360 769 l 360 626 l 753 626 l 753 399 l 360 399 l 360 228 l 803 228 z "},"É":{"ha":856,"x_min":97,"x_max":803,"o":"m 803 228 l 803 0 l 97 0 l 97 997 l 793 997 l 793 769 l 360 769 l 360 626 l 753 626 l 753 399 l 360 399 l 360 228 l 803 228 m 575 1043 l 331 1043 l 469 1268 l 743 1268 l 575 1043 z "},"Ě":{"ha":856,"x_min":97,"x_max":803,"o":"m 803 228 l 803 0 l 97 0 l 97 997 l 793 997 l 793 769 l 360 769 l 360 626 l 753 626 l 753 399 l 360 399 l 360 228 l 803 228 m 600 1043 l 299 1043 l 103 1268 l 364 1268 l 449 1165 l 535 1268 l 794 1268 l 600 1043 z "},"Ê":{"ha":856,"x_min":97,"x_max":803,"o":"m 803 228 l 803 0 l 97 0 l 97 997 l 793 997 l 793 769 l 360 769 l 360 626 l 753 626 l 753 399 l 360 399 l 360 228 l 803 228 m 364 1043 l 103 1043 l 299 1268 l 600 1268 l 794 1043 l 535 1043 l 449 1146 l 364 1043 z "},"Ë":{"ha":856,"x_min":97,"x_max":803,"o":"m 803 228 l 803 0 l 97 0 l 97 997 l 793 997 l 793 769 l 360 769 l 360 626 l 753 626 l 753 399 l 360 399 l 360 228 l 803 228 m 754 1165 q 715 1072 754 1108 q 618 1036 676 1036 q 518 1072 557 1036 q 479 1165 479 1108 q 518 1261 479 1225 q 618 1297 557 1297 q 715 1261 676 1297 q 754 1165 754 1225 m 418 1165 q 380 1072 418 1108 q 279 1036 342 1036 q 182 1072 221 1036 q 143 1165 143 1108 q 182 1261 143 1225 q 279 1297 221 1297 q 380 1261 342 1297 q 418 1165 418 1225 z "},"Ė":{"ha":856,"x_min":97,"x_max":803,"o":"m 803 228 l 803 0 l 97 0 l 97 997 l 793 997 l 793 769 l 360 769 l 360 626 l 753 626 l 753 399 l 360 399 l 360 228 l 803 228 m 600 1171 q 558 1074 600 1113 q 447 1036 515 1036 q 337 1074 379 1036 q 294 1171 294 1113 q 337 1269 294 1231 q 447 1307 379 1307 q 558 1269 515 1307 q 600 1171 600 1231 z "},"È":{"ha":856,"x_min":97,"x_max":803,"o":"m 803 228 l 803 0 l 97 0 l 97 997 l 793 997 l 793 769 l 360 769 l 360 626 l 753 626 l 753 399 l 360 399 l 360 228 l 803 228 m 567 1043 l 322 1043 l 154 1268 l 429 1268 l 567 1043 z "},"Ē":{"ha":856,"x_min":97,"x_max":803,"o":"m 803 228 l 803 0 l 97 0 l 97 997 l 793 997 l 793 769 l 360 769 l 360 626 l 753 626 l 753 399 l 360 399 l 360 228 l 803 228 m 692 1060 l 207 1060 l 207 1213 l 692 1213 l 692 1060 z "},"Ę":{"ha":856,"x_min":97,"x_max":803,"o":"m 803 228 l 803 0 l 97 0 l 97 997 l 793 997 l 793 769 l 360 769 l 360 626 l 753 626 l 753 399 l 360 399 l 360 228 l 803 228 m 753 -104 l 753 -258 q 654 -274 700 -274 q 528 -237 581 -274 q 475 -124 475 -200 q 528 3 475 -54 q 674 136 581 60 l 739 64 q 680 8 703 38 q 657 -53 657 -21 q 672 -97 657 -82 q 711 -112 686 -112 q 753 -104 731 -112 z "},"F":{"ha":818,"x_min":97,"x_max":776,"o":"m 360 0 l 97 0 l 97 997 l 776 997 l 776 769 l 360 769 l 360 585 l 708 585 l 708 357 l 360 357 l 360 0 z "},"G":{"ha":1106,"x_min":39,"x_max":1074,"o":"m 557 -21 q 354 17 449 -21 q 189 125 260 56 q 78 291 118 194 q 39 504 39 388 q 77 708 39 615 q 184 872 115 801 q 346 980 253 942 q 549 1018 439 1018 q 775 973 674 1018 q 947 845 876 928 q 1053 650 1018 763 l 742 650 q 701 719 729 689 q 633 766 674 749 q 542 783 593 783 q 424 753 478 783 q 340 659 371 722 q 308 497 308 596 q 336 347 308 414 q 422 241 364 281 q 571 201 481 201 q 670 221 628 201 q 742 274 713 240 q 785 349 771 307 l 544 349 l 544 556 l 1065 556 q 1042 327 1074 432 q 943 144 1010 222 q 778 22 876 65 q 557 -21 681 -21 z "},"Ğ":{"ha":1106,"x_min":39,"x_max":1074,"o":"m 557 -21 q 354 17 449 -21 q 189 125 260 56 q 78 291 118 194 q 39 504 39 388 q 77 708 39 615 q 184 872 115 801 q 346 980 253 942 q 549 1018 439 1018 q 775 973 674 1018 q 947 845 876 928 q 1053 650 1018 763 l 742 650 q 701 719 729 689 q 633 766 674 749 q 542 783 593 783 q 424 753 478 783 q 340 659 371 722 q 308 497 308 596 q 336 347 308 414 q 422 241 364 281 q 571 201 481 201 q 670 221 628 201 q 742 274 713 240 q 785 349 771 307 l 544 349 l 544 556 l 1065 556 q 1042 327 1074 432 q 943 144 1010 222 q 778 22 876 65 q 557 -21 681 -21 m 643 1268 l 808 1268 q 739 1099 808 1161 q 549 1036 669 1036 q 357 1099 426 1036 q 288 1268 288 1161 l 454 1268 q 480 1206 454 1228 q 549 1185 506 1185 q 618 1206 593 1185 q 643 1268 643 1228 z "},"Ģ":{"ha":1106,"x_min":39,"x_max":1074,"o":"m 557 -21 q 354 17 449 -21 q 189 125 260 56 q 78 291 118 194 q 39 504 39 388 q 77 708 39 615 q 184 872 115 801 q 346 980 253 942 q 549 1018 439 1018 q 775 973 674 1018 q 947 845 876 928 q 1053 650 1018 763 l 742 650 q 701 719 729 689 q 633 766 674 749 q 542 783 593 783 q 424 753 478 783 q 340 659 371 722 q 308 497 308 596 q 336 347 308 414 q 422 241 364 281 q 571 201 481 201 q 670 221 628 201 q 742 274 713 240 q 785 349 771 307 l 544 349 l 544 556 l 1065 556 q 1042 327 1074 432 q 943 144 1010 222 q 778 22 876 65 q 557 -21 681 -21 m 675 -157 q 638 -258 675 -215 q 542 -319 601 -300 q 411 -328 482 -339 l 411 -244 q 501 -243 464 -253 q 549 -204 538 -233 q 460 -191 497 -215 q 422 -128 422 -167 q 454 -62 422 -87 q 542 -37 486 -37 q 637 -69 599 -37 q 675 -157 675 -101 z "},"H":{"ha":1088,"x_min":97,"x_max":990,"o":"m 360 0 l 97 0 l 97 997 l 360 997 l 360 626 l 728 626 l 728 997 l 990 997 l 990 0 l 728 0 l 728 399 l 360 399 l 360 0 z "},"I":{"ha":457,"x_min":97,"x_max":360,"o":"m 360 0 l 97 0 l 97 997 l 360 997 l 360 0 z "},"Í":{"ha":457,"x_min":97,"x_max":510,"o":"m 360 0 l 97 0 l 97 997 l 360 997 l 360 0 m 357 1043 l 113 1043 l 238 1268 l 510 1268 l 357 1043 z "},"Î":{"ha":457,"x_min":-100,"x_max":560,"o":"m 360 0 l 97 0 l 97 997 l 360 997 l 360 0 m 161 1043 l -100 1043 l 76 1268 l 385 1268 l 560 1043 l 300 1043 l 231 1146 l 161 1043 z "},"Ï":{"ha":457,"x_min":-61,"x_max":522,"o":"m 360 0 l 97 0 l 97 997 l 360 997 l 360 0 m 522 1165 q 485 1072 522 1108 q 390 1036 447 1036 q 292 1072 331 1036 q 254 1165 254 1108 q 292 1261 254 1225 q 390 1297 331 1297 q 485 1261 447 1297 q 522 1165 522 1225 m 207 1165 q 169 1072 207 1108 q 71 1036 132 1036 q -24 1072 14 1036 q -61 1165 -61 1108 q -24 1261 -61 1225 q 71 1297 14 1297 q 169 1261 132 1297 q 207 1165 207 1225 z "},"İ":{"ha":457,"x_min":76,"x_max":382,"o":"m 360 0 l 97 0 l 97 997 l 360 997 l 360 0 m 382 1171 q 340 1074 382 1113 q 229 1036 297 1036 q 119 1074 161 1036 q 76 1171 76 1113 q 119 1269 76 1231 q 229 1307 161 1307 q 340 1269 297 1307 q 382 1171 382 1231 z "},"Ì":{"ha":457,"x_min":-49,"x_max":360,"o":"m 360 0 l 97 0 l 97 997 l 360 997 l 360 0 m 349 1043 l 103 1043 l -49 1268 l 225 1268 l 349 1043 z "},"Ī":{"ha":457,"x_min":-11,"x_max":474,"o":"m 360 0 l 97 0 l 97 997 l 360 997 l 360 0 m 474 1060 l -11 1060 l -11 1213 l 474 1213 l 474 1060 z "},"Į":{"ha":457,"x_min":7,"x_max":360,"o":"m 360 0 l 97 0 l 97 997 l 360 997 l 360 0 m 285 -104 l 285 -258 q 186 -274 232 -274 q 60 -237 113 -274 q 7 -124 7 -200 q 60 3 7 -54 q 206 136 113 60 l 271 64 q 212 8 235 38 q 189 -53 189 -21 q 203 -97 189 -82 q 243 -112 218 -112 q 285 -104 263 -112 z "},"J":{"ha":900,"x_min":7,"x_max":810,"o":"m 810 997 l 810 372 q 765 172 810 261 q 632 31 721 83 q 408 -21 543 -21 q 186 31 275 -21 q 52 172 97 83 q 7 372 7 261 l 271 372 q 281 292 271 328 q 320 235 290 256 q 408 214 350 214 q 497 235 467 214 q 536 291 526 256 q 546 368 546 326 l 546 997 l 810 997 z "},"K":{"ha":988,"x_min":97,"x_max":979,"o":"m 360 0 l 97 0 l 97 997 l 360 997 l 360 578 l 671 997 l 969 997 l 618 529 l 979 0 l 660 0 l 360 450 l 360 0 z "},"Ķ":{"ha":988,"x_min":97,"x_max":979,"o":"m 360 0 l 97 0 l 97 997 l 360 997 l 360 578 l 671 997 l 969 997 l 618 529 l 979 0 l 660 0 l 360 450 l 360 0 m 624 -157 q 587 -258 624 -215 q 490 -319 550 -300 q 360 -328 431 -339 l 360 -244 q 449 -243 413 -253 q 497 -204 486 -233 q 408 -191 446 -215 q 371 -128 371 -167 q 403 -62 371 -87 q 490 -37 435 -37 q 585 -69 547 -37 q 624 -157 624 -101 z "},"L":{"ha":821,"x_min":97,"x_max":779,"o":"m 779 0 l 97 0 l 97 997 l 360 997 l 360 238 l 779 238 l 779 0 z "},"Ĺ":{"ha":821,"x_min":97,"x_max":779,"o":"m 779 0 l 97 0 l 97 997 l 360 997 l 360 238 l 779 238 l 779 0 m 365 1043 l 121 1043 l 260 1268 l 533 1268 l 365 1043 z "},"Ľ":{"ha":821,"x_min":97,"x_max":779,"o":"m 779 0 l 97 0 l 97 997 l 360 997 l 360 238 l 779 238 l 779 0 m 596 778 l 439 778 l 439 997 l 633 997 l 596 778 z "},"Ļ":{"ha":821,"x_min":97,"x_max":779,"o":"m 779 0 l 97 0 l 97 997 l 360 997 l 360 238 l 779 238 l 779 0 m 553 -157 q 516 -258 553 -215 q 419 -319 479 -300 q 289 -328 360 -339 l 289 -244 q 378 -243 342 -253 q 426 -204 415 -233 q 338 -191 375 -215 q 300 -128 300 -167 q 332 -62 300 -87 q 419 -37 364 -37 q 515 -69 476 -37 q 553 -157 553 -101 z "},"Ł":{"ha":821,"x_min":-22,"x_max":779,"o":"m 779 0 l 97 0 l 97 997 l 360 997 l 360 238 l 779 238 l 779 0 m 638 483 l -22 329 l -22 538 l 638 690 l 638 483 z "},"M":{"ha":1315,"x_min":97,"x_max":1218,"o":"m 549 0 l 335 575 l 335 0 l 97 0 l 97 997 l 407 997 l 658 321 l 908 997 l 1218 997 l 1218 0 l 981 0 l 981 582 l 765 0 l 549 0 z "},"N":{"ha":1085,"x_min":97,"x_max":988,"o":"m 735 0 l 338 622 l 338 0 l 97 0 l 97 997 l 379 997 l 747 421 l 747 997 l 988 997 l 988 0 l 735 0 z "},"Ń":{"ha":1085,"x_min":97,"x_max":988,"o":"m 735 0 l 338 622 l 338 0 l 97 0 l 97 997 l 379 997 l 747 421 l 747 997 l 988 997 l 988 0 l 735 0 m 668 1043 l 424 1043 l 563 1268 l 836 1268 l 668 1043 z "},"Ň":{"ha":1085,"x_min":97,"x_max":988,"o":"m 735 0 l 338 622 l 338 0 l 97 0 l 97 997 l 379 997 l 747 421 l 747 997 l 988 997 l 988 0 l 735 0 m 693 1043 l 392 1043 l 196 1268 l 457 1268 l 542 1165 l 628 1268 l 888 1268 l 693 1043 z "},"Ņ":{"ha":1085,"x_min":97,"x_max":988,"o":"m 735 0 l 338 622 l 338 0 l 97 0 l 97 997 l 379 997 l 747 421 l 747 997 l 988 997 l 988 0 l 735 0 m 668 -157 q 631 -258 668 -215 q 535 -319 594 -300 q 404 -328 475 -339 l 404 -244 q 494 -243 457 -253 q 542 -204 531 -233 q 453 -191 490 -215 q 415 -128 415 -167 q 447 -62 415 -87 q 535 -37 479 -37 q 630 -69 592 -37 q 668 -157 668 -101 z "},"Ñ":{"ha":1085,"x_min":97,"x_max":988,"o":"m 735 0 l 338 622 l 338 0 l 97 0 l 97 997 l 379 997 l 747 421 l 747 997 l 988 997 l 988 0 l 735 0 m 414 1036 l 271 1036 q 275 1158 258 1106 q 331 1240 292 1210 q 425 1269 371 1269 q 492 1262 460 1269 q 550 1243 524 1254 q 598 1224 576 1232 q 633 1217 619 1217 q 661 1229 650 1217 q 669 1281 672 1242 l 813 1281 q 808 1161 825 1214 q 751 1078 790 1108 q 656 1047 711 1047 q 590 1055 621 1047 q 532 1074 558 1063 q 485 1092 506 1085 q 449 1100 464 1100 q 423 1088 433 1100 q 414 1036 413 1076 z "},"O":{"ha":1107,"x_min":39,"x_max":1068,"o":"m 553 -21 q 351 17 444 -21 q 188 126 258 56 q 78 291 118 196 q 39 500 39 386 q 78 708 39 614 q 188 872 118 803 q 351 980 258 942 q 553 1018 444 1018 q 755 980 661 1018 q 919 872 849 942 q 1028 708 989 803 q 1068 500 1068 614 q 1028 291 1068 386 q 919 126 989 196 q 755 17 849 56 q 553 -21 661 -21 m 553 214 q 657 236 611 214 q 734 298 703 258 q 781 390 765 338 q 797 500 797 442 q 781 610 797 558 q 734 700 765 661 q 657 761 703 739 q 553 783 611 783 q 449 761 494 783 q 372 700 403 739 q 324 610 340 661 q 308 500 308 558 q 324 390 308 442 q 372 298 340 338 q 449 236 403 258 q 553 214 494 214 z "},"Ó":{"ha":1107,"x_min":39,"x_max":1068,"o":"m 553 -21 q 351 17 444 -21 q 188 126 258 56 q 78 291 118 196 q 39 500 39 386 q 78 708 39 614 q 188 872 118 803 q 351 980 258 942 q 553 1018 444 1018 q 755 980 661 1018 q 919 872 849 942 q 1028 708 989 803 q 1068 500 1068 614 q 1028 291 1068 386 q 919 126 989 196 q 755 17 849 56 q 553 -21 661 -21 m 553 214 q 657 236 611 214 q 734 298 703 258 q 781 390 765 338 q 797 500 797 442 q 781 610 797 558 q 734 700 765 661 q 657 761 703 739 q 553 783 611 783 q 449 761 494 783 q 372 700 403 739 q 324 610 340 661 q 308 500 308 558 q 324 390 308 442 q 372 298 340 338 q 449 236 403 258 q 553 214 494 214 m 679 1043 l 435 1043 l 574 1268 l 847 1268 l 679 1043 z "},"Ô":{"ha":1107,"x_min":39,"x_max":1068,"o":"m 553 -21 q 351 17 444 -21 q 188 126 258 56 q 78 291 118 196 q 39 500 39 386 q 78 708 39 614 q 188 872 118 803 q 351 980 258 942 q 553 1018 444 1018 q 755 980 661 1018 q 919 872 849 942 q 1028 708 989 803 q 1068 500 1068 614 q 1028 291 1068 386 q 919 126 989 196 q 755 17 849 56 q 553 -21 661 -21 m 553 214 q 657 236 611 214 q 734 298 703 258 q 781 390 765 338 q 797 500 797 442 q 781 610 797 558 q 734 700 765 661 q 657 761 703 739 q 553 783 611 783 q 449 761 494 783 q 372 700 403 739 q 324 610 340 661 q 308 500 308 558 q 324 390 308 442 q 372 298 340 338 q 449 236 403 258 q 553 214 494 214 m 468 1043 l 207 1043 l 403 1268 l 704 1268 l 899 1043 l 639 1043 l 553 1146 l 468 1043 z "},"Ö":{"ha":1107,"x_min":39,"x_max":1068,"o":"m 553 -21 q 351 17 444 -21 q 188 126 258 56 q 78 291 118 196 q 39 500 39 386 q 78 708 39 614 q 188 872 118 803 q 351 980 258 942 q 553 1018 444 1018 q 755 980 661 1018 q 919 872 849 942 q 1028 708 989 803 q 1068 500 1068 614 q 1028 291 1068 386 q 919 126 989 196 q 755 17 849 56 q 553 -21 661 -21 m 553 214 q 657 236 611 214 q 734 298 703 258 q 781 390 765 338 q 797 500 797 442 q 781 610 797 558 q 734 700 765 661 q 657 761 703 739 q 553 783 611 783 q 449 761 494 783 q 372 700 403 739 q 324 610 340 661 q 308 500 308 558 q 324 390 308 442 q 372 298 340 338 q 449 236 403 258 q 553 214 494 214 m 858 1165 q 819 1072 858 1108 q 722 1036 781 1036 q 622 1072 661 1036 q 583 1165 583 1108 q 622 1261 583 1225 q 722 1297 661 1297 q 819 1261 781 1297 q 858 1165 858 1225 m 522 1165 q 484 1072 522 1108 q 383 1036 446 1036 q 286 1072 325 1036 q 247 1165 247 1108 q 286 1261 247 1225 q 383 1297 325 1297 q 484 1261 446 1297 q 522 1165 522 1225 z "},"Ò":{"ha":1107,"x_min":39,"x_max":1068,"o":"m 553 -21 q 351 17 444 -21 q 188 126 258 56 q 78 291 118 196 q 39 500 39 386 q 78 708 39 614 q 188 872 118 803 q 351 980 258 942 q 553 1018 444 1018 q 755 980 661 1018 q 919 872 849 942 q 1028 708 989 803 q 1068 500 1068 614 q 1028 291 1068 386 q 919 126 989 196 q 755 17 849 56 q 553 -21 661 -21 m 553 214 q 657 236 611 214 q 734 298 703 258 q 781 390 765 338 q 797 500 797 442 q 781 610 797 558 q 734 700 765 661 q 657 761 703 739 q 553 783 611 783 q 449 761 494 783 q 372 700 403 739 q 324 610 340 661 q 308 500 308 558 q 324 390 308 442 q 372 298 340 338 q 449 236 403 258 q 553 214 494 214 m 671 1043 l 426 1043 l 258 1268 l 533 1268 l 671 1043 z "},"Ő":{"ha":1107,"x_min":39,"x_max":1068,"o":"m 553 -21 q 351 17 444 -21 q 188 126 258 56 q 78 291 118 196 q 39 500 39 386 q 78 708 39 614 q 188 872 118 803 q 351 980 258 942 q 553 1018 444 1018 q 755 980 661 1018 q 919 872 849 942 q 1028 708 989 803 q 1068 500 1068 614 q 1028 291 1068 386 q 919 126 989 196 q 755 17 849 56 q 553 -21 661 -21 m 553 214 q 657 236 611 214 q 734 298 703 258 q 781 390 765 338 q 797 500 797 442 q 781 610 797 558 q 734 700 765 661 q 657 761 703 739 q 553 783 611 783 q 449 761 494 783 q 372 700 403 739 q 324 610 340 661 q 308 500 308 558 q 324 390 308 442 q 372 298 340 338 q 449 236 403 258 q 553 214 494 214 m 806 1043 l 576 1043 l 729 1268 l 974 1268 l 806 1043 m 492 1043 l 263 1043 l 401 1268 l 644 1268 l 492 1043 z "},"Ō":{"ha":1107,"x_min":39,"x_max":1068,"o":"m 553 -21 q 351 17 444 -21 q 188 126 258 56 q 78 291 118 196 q 39 500 39 386 q 78 708 39 614 q 188 872 118 803 q 351 980 258 942 q 553 1018 444 1018 q 755 980 661 1018 q 919 872 849 942 q 1028 708 989 803 q 1068 500 1068 614 q 1028 291 1068 386 q 919 126 989 196 q 755 17 849 56 q 553 -21 661 -21 m 553 214 q 657 236 611 214 q 734 298 703 258 q 781 390 765 338 q 797 500 797 442 q 781 610 797 558 q 734 700 765 661 q 657 761 703 739 q 553 783 611 783 q 449 761 494 783 q 372 700 403 739 q 324 610 340 661 q 308 500 308 558 q 324 390 308 442 q 372 298 340 338 q 449 236 403 258 q 553 214 494 214 m 796 1060 l 311 1060 l 311 1213 l 796 1213 l 796 1060 z "},"Ø":{"ha":1107,"x_min":39,"x_max":1068,"o":"m 553 -21 q 351 17 444 -21 q 188 126 258 56 q 78 291 118 196 q 39 500 39 386 q 78 708 39 614 q 188 872 118 803 q 351 980 258 942 q 553 1018 444 1018 q 755 980 661 1018 q 919 872 849 942 q 1028 708 989 803 q 1068 500 1068 614 q 1028 291 1068 386 q 919 126 989 196 q 755 17 849 56 q 553 -21 661 -21 m 553 214 q 657 236 611 214 q 734 298 703 258 q 781 390 765 338 q 797 500 797 442 q 781 610 797 558 q 734 700 765 661 q 657 761 703 739 q 553 783 611 783 q 449 761 494 783 q 372 700 403 739 q 324 610 340 661 q 308 500 308 558 q 324 390 308 442 q 372 298 340 338 q 449 236 403 258 q 553 214 494 214 m 297 0 l 65 0 l 810 997 l 1040 997 l 297 0 z "},"Õ":{"ha":1107,"x_min":39,"x_max":1068,"o":"m 553 -21 q 351 17 444 -21 q 188 126 258 56 q 78 291 118 196 q 39 500 39 386 q 78 708 39 614 q 188 872 118 803 q 351 980 258 942 q 553 1018 444 1018 q 755 980 661 1018 q 919 872 849 942 q 1028 708 989 803 q 1068 500 1068 614 q 1028 291 1068 386 q 919 126 989 196 q 755 17 849 56 q 553 -21 661 -21 m 553 214 q 657 236 611 214 q 734 298 703 258 q 781 390 765 338 q 797 500 797 442 q 781 610 797 558 q 734 700 765 661 q 657 761 703 739 q 553 783 611 783 q 449 761 494 783 q 372 700 403 739 q 324 610 340 661 q 308 500 308 558 q 324 390 308 442 q 372 298 340 338 q 449 236 403 258 q 553 214 494 214 m 425 1036 l 282 1036 q 286 1158 269 1106 q 342 1240 303 1210 q 436 1269 382 1269 q 503 1262 471 1269 q 561 1243 535 1254 q 609 1224 588 1232 q 644 1217 631 1217 q 672 1229 661 1217 q 681 1281 683 1242 l 824 1281 q 819 1161 836 1214 q 762 1078 801 1108 q 667 1047 722 1047 q 601 1055 632 1047 q 543 1074 569 1063 q 496 1092 517 1085 q 460 1100 475 1100 q 434 1088 444 1100 q 425 1036 424 1076 z "},"Œ":{"ha":1476,"x_min":39,"x_max":1424,"o":"m 39 500 q 101 774 39 658 q 270 954 164 890 q 507 1018 376 1018 q 646 1000 575 1018 q 760 950 717 982 l 760 997 l 1414 997 l 1414 771 l 992 771 l 992 626 l 1375 626 l 1375 399 l 992 399 l 992 226 l 1424 226 l 1424 0 l 760 0 l 760 54 q 642 -1 706 18 q 507 -21 578 -21 q 270 44 376 -21 q 101 225 164 108 q 39 500 39 342 m 308 500 q 333 351 308 415 q 404 250 357 286 q 518 214 451 214 q 633 250 586 214 q 704 351 679 286 q 729 500 729 415 q 704 649 729 586 q 633 748 679 713 q 518 783 586 783 q 404 748 451 783 q 333 649 357 713 q 308 500 308 586 z "},"P":{"ha":940,"x_min":97,"x_max":904,"o":"m 486 304 l 360 304 l 360 0 l 97 0 l 97 997 l 486 997 q 710 959 617 997 q 854 845 804 921 q 904 657 904 769 q 854 466 904 544 q 710 346 804 388 q 486 304 617 304 m 485 776 l 360 776 l 360 525 l 485 525 q 603 561 563 525 q 643 654 643 597 q 603 744 643 713 q 485 776 563 776 z "},"Þ":{"ha":933,"x_min":97,"x_max":897,"o":"m 479 156 l 360 156 l 360 0 l 97 0 l 97 997 l 360 997 l 360 849 l 479 849 q 703 810 610 849 q 847 697 797 772 q 897 508 897 621 q 847 317 897 396 q 703 197 797 239 q 479 156 610 156 m 478 628 l 360 628 l 360 376 l 478 376 q 596 413 556 376 q 636 506 636 449 q 596 596 636 564 q 478 628 556 628 z "},"R":{"ha":983,"x_min":97,"x_max":963,"o":"m 360 0 l 97 0 l 97 997 l 506 997 q 819 910 708 997 q 929 664 929 824 q 874 492 929 568 q 718 374 819 417 l 963 0 l 650 0 l 446 332 l 360 332 l 360 0 m 360 781 l 360 549 l 494 549 q 624 576 582 549 q 665 664 665 604 q 624 752 665 724 q 494 781 582 781 l 360 781 z "},"Ŕ":{"ha":983,"x_min":97,"x_max":963,"o":"m 360 0 l 97 0 l 97 997 l 506 997 q 819 910 708 997 q 929 664 929 824 q 874 492 929 568 q 718 374 819 417 l 963 0 l 650 0 l 446 332 l 360 332 l 360 0 m 360 781 l 360 549 l 494 549 q 624 576 582 549 q 665 664 665 604 q 624 752 665 724 q 494 781 582 781 l 360 781 m 621 1043 l 376 1043 l 515 1268 l 789 1268 l 621 1043 z "},"Ř":{"ha":983,"x_min":97,"x_max":963,"o":"m 360 0 l 97 0 l 97 997 l 506 997 q 819 910 708 997 q 929 664 929 824 q 874 492 929 568 q 718 374 819 417 l 963 0 l 650 0 l 446 332 l 360 332 l 360 0 m 360 781 l 360 549 l 494 549 q 624 576 582 549 q 665 664 665 604 q 624 752 665 724 q 494 781 582 781 l 360 781 m 646 1043 l 344 1043 l 149 1268 l 410 1268 l 494 1165 l 581 1268 l 840 1268 l 646 1043 z "},"Ŗ":{"ha":983,"x_min":97,"x_max":963,"o":"m 360 0 l 97 0 l 97 997 l 506 997 q 819 910 708 997 q 929 664 929 824 q 874 492 929 568 q 718 374 819 417 l 963 0 l 650 0 l 446 332 l 360 332 l 360 0 m 360 781 l 360 549 l 494 549 q 624 576 582 549 q 665 664 665 604 q 624 752 665 724 q 494 781 582 781 l 360 781 m 621 -157 q 584 -258 621 -215 q 488 -319 547 -300 q 357 -328 428 -339 l 357 -244 q 447 -243 410 -253 q 494 -204 483 -233 q 406 -191 443 -215 q 368 -128 368 -167 q 400 -62 368 -87 q 488 -37 432 -37 q 583 -69 544 -37 q 621 -157 621 -101 z "},"S":{"ha":933,"x_min":28,"x_max":896,"o":"m 896 326 q 844 147 896 224 q 697 28 792 71 q 472 -14 603 -14 q 247 30 343 -14 q 94 154 150 74 q 28 344 38 235 l 293 344 q 341 232 296 274 q 467 190 386 190 q 546 201 513 190 q 598 235 579 213 q 617 288 617 257 q 588 342 617 319 q 515 374 560 365 l 333 408 q 225 443 274 419 q 141 502 176 467 q 87 585 106 538 q 68 693 68 633 q 118 858 68 786 q 256 969 168 929 q 456 1010 343 1010 q 667 967 575 1010 q 816 845 760 924 q 879 658 872 767 l 614 658 q 590 738 611 704 q 536 789 569 771 q 458 807 503 807 q 392 794 419 807 q 349 760 364 782 q 333 711 333 739 q 347 673 333 689 q 382 647 360 657 q 431 631 404 636 l 624 593 q 826 501 757 567 q 896 326 896 435 z "},"Ś":{"ha":933,"x_min":28,"x_max":896,"o":"m 896 326 q 844 147 896 224 q 697 28 792 71 q 472 -14 603 -14 q 247 30 343 -14 q 94 154 150 74 q 28 344 38 235 l 293 344 q 341 232 296 274 q 467 190 386 190 q 546 201 513 190 q 598 235 579 213 q 617 288 617 257 q 588 342 617 319 q 515 374 560 365 l 333 408 q 225 443 274 419 q 141 502 176 467 q 87 585 106 538 q 68 693 68 633 q 118 858 68 786 q 256 969 168 929 q 456 1010 343 1010 q 667 967 575 1010 q 816 845 760 924 q 879 658 872 767 l 614 658 q 590 738 611 704 q 536 789 569 771 q 458 807 503 807 q 392 794 419 807 q 349 760 364 782 q 333 711 333 739 q 347 673 333 689 q 382 647 360 657 q 431 631 404 636 l 624 593 q 826 501 757 567 q 896 326 896 435 m 586 1043 l 342 1043 l 481 1268 l 754 1268 l 586 1043 z "},"Š":{"ha":933,"x_min":28,"x_max":896,"o":"m 896 326 q 844 147 896 224 q 697 28 792 71 q 472 -14 603 -14 q 247 30 343 -14 q 94 154 150 74 q 28 344 38 235 l 293 344 q 341 232 296 274 q 467 190 386 190 q 546 201 513 190 q 598 235 579 213 q 617 288 617 257 q 588 342 617 319 q 515 374 560 365 l 333 408 q 225 443 274 419 q 141 502 176 467 q 87 585 106 538 q 68 693 68 633 q 118 858 68 786 q 256 969 168 929 q 456 1010 343 1010 q 667 967 575 1010 q 816 845 760 924 q 879 658 872 767 l 614 658 q 590 738 611 704 q 536 789 569 771 q 458 807 503 807 q 392 794 419 807 q 349 760 364 782 q 333 711 333 739 q 347 673 333 689 q 382 647 360 657 q 431 631 404 636 l 624 593 q 826 501 757 567 q 896 326 896 435 m 611 1043 l 310 1043 l 114 1268 l 375 1268 l 460 1165 l 546 1268 l 806 1268 l 611 1043 z "},"Ş":{"ha":933,"x_min":28,"x_max":896,"o":"m 896 326 q 844 147 896 224 q 697 28 792 71 q 472 -14 603 -14 q 247 30 343 -14 q 94 154 150 74 q 28 344 38 235 l 293 344 q 341 232 296 274 q 467 190 386 190 q 546 201 513 190 q 598 235 579 213 q 617 288 617 257 q 588 342 617 319 q 515 374 560 365 l 333 408 q 225 443 274 419 q 141 502 176 467 q 87 585 106 538 q 68 693 68 633 q 118 858 68 786 q 256 969 168 929 q 456 1010 343 1010 q 667 967 575 1010 q 816 845 760 924 q 879 658 872 767 l 614 658 q 590 738 611 704 q 536 789 569 771 q 458 807 503 807 q 392 794 419 807 q 349 760 364 782 q 333 711 333 739 q 347 673 333 689 q 382 647 360 657 q 431 631 404 636 l 624 593 q 826 501 757 567 q 896 326 896 435 m 643 -153 q 592 -241 643 -207 q 460 -275 542 -275 q 327 -239 376 -275 q 269 -135 278 -203 l 413 -135 q 424 -160 415 -153 q 450 -168 433 -168 q 475 -160 465 -168 q 485 -137 485 -151 q 474 -111 485 -121 q 442 -99 464 -101 q 386 -100 421 -96 l 417 26 l 529 26 l 511 -42 q 608 -80 572 -50 q 643 -153 643 -110 z "},"Ș":{"ha":933,"x_min":28,"x_max":896,"o":"m 896 326 q 844 147 896 224 q 697 28 792 71 q 472 -14 603 -14 q 247 30 343 -14 q 94 154 150 74 q 28 344 38 235 l 293 344 q 341 232 296 274 q 467 190 386 190 q 546 201 513 190 q 598 235 579 213 q 617 288 617 257 q 588 342 617 319 q 515 374 560 365 l 333 408 q 225 443 274 419 q 141 502 176 467 q 87 585 106 538 q 68 693 68 633 q 118 858 68 786 q 256 969 168 929 q 456 1010 343 1010 q 667 967 575 1010 q 816 845 760 924 q 879 658 872 767 l 614 658 q 590 738 611 704 q 536 789 569 771 q 458 807 503 807 q 392 794 419 807 q 349 760 364 782 q 333 711 333 739 q 347 673 333 689 q 382 647 360 657 q 431 631 404 636 l 624 593 q 826 501 757 567 q 896 326 896 435 m 596 -157 q 559 -258 596 -215 q 463 -319 522 -300 q 332 -328 403 -339 l 332 -244 q 422 -243 385 -253 q 469 -204 458 -233 q 381 -191 418 -215 q 343 -128 343 -167 q 375 -62 343 -87 q 463 -37 407 -37 q 558 -69 519 -37 q 596 -157 596 -101 z "},"T":{"ha":915,"x_min":21,"x_max":894,"o":"m 589 0 l 326 0 l 326 760 l 21 760 l 21 997 l 894 997 l 894 760 l 589 760 l 589 0 z "},"Ť":{"ha":915,"x_min":21,"x_max":894,"o":"m 589 0 l 326 0 l 326 760 l 21 760 l 21 997 l 894 997 l 894 760 l 589 760 l 589 0 m 608 1043 l 307 1043 l 111 1268 l 372 1268 l 457 1165 l 543 1268 l 803 1268 l 608 1043 z "},"Ţ":{"ha":915,"x_min":21,"x_max":894,"o":"m 589 0 l 326 0 l 326 760 l 21 760 l 21 997 l 894 997 l 894 760 l 589 760 l 589 0 m 631 -153 q 580 -241 631 -207 q 447 -275 529 -275 q 315 -239 364 -275 q 257 -135 265 -203 l 400 -135 q 412 -160 403 -153 q 438 -168 421 -168 q 463 -160 453 -168 q 472 -137 472 -151 q 462 -111 472 -121 q 430 -99 451 -101 q 374 -100 408 -96 l 404 26 l 517 26 l 499 -42 q 595 -80 560 -50 q 631 -153 631 -110 z "},"Ț":{"ha":915,"x_min":21,"x_max":894,"o":"m 589 0 l 326 0 l 326 760 l 21 760 l 21 997 l 894 997 l 894 760 l 589 760 l 589 0 m 583 -157 q 547 -258 583 -215 q 450 -319 510 -300 q 319 -328 390 -339 l 319 -244 q 409 -243 372 -253 q 457 -204 446 -233 q 368 -191 406 -215 q 331 -128 331 -167 q 363 -62 331 -87 q 450 -37 394 -37 q 545 -69 507 -37 q 583 -157 583 -101 z "},"U":{"ha":1054,"x_min":94,"x_max":960,"o":"m 960 997 l 960 397 q 910 182 960 276 q 765 33 861 88 q 528 -21 668 -21 q 290 33 386 -21 q 144 182 193 88 q 94 397 94 276 l 94 997 l 357 997 l 357 393 q 372 301 357 342 q 424 237 388 260 q 528 214 461 214 q 631 237 594 214 q 683 301 668 260 q 697 393 697 342 l 697 997 l 960 997 z "},"Ú":{"ha":1054,"x_min":94,"x_max":960,"o":"m 960 997 l 960 397 q 910 182 960 276 q 765 33 861 88 q 528 -21 668 -21 q 290 33 386 -21 q 144 182 193 88 q 94 397 94 276 l 94 997 l 357 997 l 357 393 q 372 301 357 342 q 424 237 388 260 q 528 214 461 214 q 631 237 594 214 q 683 301 668 260 q 697 393 697 342 l 697 997 l 960 997 m 654 1043 l 410 1043 l 549 1268 l 822 1268 l 654 1043 z "},"Û":{"ha":1054,"x_min":94,"x_max":960,"o":"m 960 997 l 960 397 q 910 182 960 276 q 765 33 861 88 q 528 -21 668 -21 q 290 33 386 -21 q 144 182 193 88 q 94 397 94 276 l 94 997 l 357 997 l 357 393 q 372 301 357 342 q 424 237 388 260 q 528 214 461 214 q 631 237 594 214 q 683 301 668 260 q 697 393 697 342 l 697 997 l 960 997 m 443 1043 l 182 1043 l 378 1268 l 679 1268 l 874 1043 l 614 1043 l 528 1146 l 443 1043 z "},"Ü":{"ha":1054,"x_min":94,"x_max":960,"o":"m 960 997 l 960 397 q 910 182 960 276 q 765 33 861 88 q 528 -21 668 -21 q 290 33 386 -21 q 144 182 193 88 q 94 397 94 276 l 94 997 l 357 997 l 357 393 q 372 301 357 342 q 424 237 388 260 q 528 214 461 214 q 631 237 594 214 q 683 301 668 260 q 697 393 697 342 l 697 997 l 960 997 m 833 1165 q 794 1072 833 1108 q 697 1036 756 1036 q 597 1072 636 1036 q 558 1165 558 1108 q 597 1261 558 1225 q 697 1297 636 1297 q 794 1261 756 1297 q 833 1165 833 1225 m 497 1165 q 459 1072 497 1108 q 358 1036 421 1036 q 261 1072 300 1036 q 222 1165 222 1108 q 261 1261 222 1225 q 358 1297 300 1297 q 459 1261 421 1297 q 497 1165 497 1225 z "},"Ù":{"ha":1054,"x_min":94,"x_max":960,"o":"m 960 997 l 960 397 q 910 182 960 276 q 765 33 861 88 q 528 -21 668 -21 q 290 33 386 -21 q 144 182 193 88 q 94 397 94 276 l 94 997 l 357 997 l 357 393 q 372 301 357 342 q 424 237 388 260 q 528 214 461 214 q 631 237 594 214 q 683 301 668 260 q 697 393 697 342 l 697 997 l 960 997 m 646 1043 l 401 1043 l 233 1268 l 508 1268 l 646 1043 z "},"Ű":{"ha":1054,"x_min":94,"x_max":960,"o":"m 960 997 l 960 397 q 910 182 960 276 q 765 33 861 88 q 528 -21 668 -21 q 290 33 386 -21 q 144 182 193 88 q 94 397 94 276 l 94 997 l 357 997 l 357 393 q 372 301 357 342 q 424 237 388 260 q 528 214 461 214 q 631 237 594 214 q 683 301 668 260 q 697 393 697 342 l 697 997 l 960 997 m 781 1043 l 551 1043 l 704 1268 l 949 1268 l 781 1043 m 467 1043 l 238 1043 l 376 1268 l 619 1268 l 467 1043 z "},"Ū":{"ha":1054,"x_min":94,"x_max":960,"o":"m 960 997 l 960 397 q 910 182 960 276 q 765 33 861 88 q 528 -21 668 -21 q 290 33 386 -21 q 144 182 193 88 q 94 397 94 276 l 94 997 l 357 997 l 357 393 q 372 301 357 342 q 424 237 388 260 q 528 214 461 214 q 631 237 594 214 q 683 301 668 260 q 697 393 697 342 l 697 997 l 960 997 m 771 1060 l 286 1060 l 286 1213 l 771 1213 l 771 1060 z "},"Ų":{"ha":1054,"x_min":94,"x_max":960,"o":"m 960 997 l 960 397 q 910 182 960 276 q 765 33 861 88 q 528 -21 668 -21 q 290 33 386 -21 q 144 182 193 88 q 94 397 94 276 l 94 997 l 357 997 l 357 393 q 372 301 357 342 q 424 237 388 260 q 528 214 461 214 q 631 237 594 214 q 683 301 668 260 q 697 393 697 342 l 697 997 l 960 997 m 824 -104 l 824 -258 q 725 -274 771 -274 q 599 -237 651 -274 q 546 -124 546 -200 q 599 3 546 -54 q 744 136 651 60 l 810 64 q 751 8 774 38 q 728 -53 728 -21 q 742 -97 728 -82 q 782 -112 757 -112 q 824 -104 801 -112 z "},"Ů":{"ha":1054,"x_min":94,"x_max":960,"o":"m 960 997 l 960 397 q 910 182 960 276 q 765 33 861 88 q 528 -21 668 -21 q 290 33 386 -21 q 144 182 193 88 q 94 397 94 276 l 94 997 l 357 997 l 357 393 q 372 301 357 342 q 424 237 388 260 q 528 214 461 214 q 631 237 594 214 q 683 301 668 260 q 697 393 697 342 l 697 997 l 960 997 m 528 1036 q 422 1061 468 1036 q 351 1128 376 1086 q 326 1218 326 1169 q 351 1311 326 1269 q 422 1378 376 1353 q 528 1403 468 1403 q 633 1378 588 1403 q 705 1311 679 1353 q 731 1218 731 1269 q 705 1128 731 1169 q 633 1061 679 1086 q 528 1036 588 1036 m 528 1153 q 575 1168 556 1153 q 594 1218 594 1183 q 575 1271 594 1254 q 528 1288 556 1288 q 481 1271 503 1288 q 460 1218 460 1254 q 481 1168 460 1183 q 528 1153 503 1153 z "},"V":{"ha":997,"x_min":1,"x_max":996,"o":"m 996 997 l 640 0 l 354 0 l 1 997 l 286 997 l 506 307 l 732 997 l 996 997 z "},"W":{"ha":1378,"x_min":8,"x_max":1369,"o":"m 851 0 l 689 621 l 526 0 l 261 0 l 8 997 l 265 997 l 400 403 l 558 997 l 824 997 l 976 400 l 1113 997 l 1369 997 l 1115 0 l 851 0 z "},"Ẃ":{"ha":1378,"x_min":8,"x_max":1369,"o":"m 851 0 l 689 621 l 526 0 l 261 0 l 8 997 l 265 997 l 400 403 l 558 997 l 824 997 l 976 400 l 1113 997 l 1369 997 l 1115 0 l 851 0 m 815 1043 l 571 1043 l 710 1268 l 983 1268 l 815 1043 z "},"Ŵ":{"ha":1378,"x_min":8,"x_max":1369,"o":"m 851 0 l 689 621 l 526 0 l 261 0 l 8 997 l 265 997 l 400 403 l 558 997 l 824 997 l 976 400 l 1113 997 l 1369 997 l 1115 0 l 851 0 m 604 1043 l 343 1043 l 539 1268 l 840 1268 l 1035 1043 l 775 1043 l 689 1146 l 604 1043 z "},"Ẅ":{"ha":1378,"x_min":8,"x_max":1369,"o":"m 851 0 l 689 621 l 526 0 l 261 0 l 8 997 l 265 997 l 400 403 l 558 997 l 824 997 l 976 400 l 1113 997 l 1369 997 l 1115 0 l 851 0 m 994 1165 q 956 1072 994 1108 q 858 1036 917 1036 q 758 1072 797 1036 q 719 1165 719 1108 q 758 1261 719 1225 q 858 1297 797 1297 q 956 1261 917 1297 q 994 1165 994 1225 m 658 1165 q 620 1072 658 1108 q 519 1036 582 1036 q 422 1072 461 1036 q 383 1165 383 1108 q 422 1261 383 1225 q 519 1297 461 1297 q 620 1261 582 1297 q 658 1165 658 1225 z "},"Ẁ":{"ha":1378,"x_min":8,"x_max":1369,"o":"m 851 0 l 689 621 l 526 0 l 261 0 l 8 997 l 265 997 l 400 403 l 558 997 l 824 997 l 976 400 l 1113 997 l 1369 997 l 1115 0 l 851 0 m 807 1043 l 563 1043 l 394 1268 l 669 1268 l 807 1043 z "},"X":{"ha":1044,"x_min":22,"x_max":1022,"o":"m 332 0 l 22 0 l 328 508 l 58 997 l 364 997 l 529 668 l 710 997 l 1003 997 l 722 499 l 1022 0 l 711 0 l 522 343 l 332 0 z "},"Y":{"ha":974,"x_min":6,"x_max":968,"o":"m 617 375 l 617 0 l 354 0 l 354 375 l 6 997 l 289 997 l 494 615 l 704 997 l 968 997 l 617 375 z "},"Ý":{"ha":974,"x_min":6,"x_max":968,"o":"m 617 375 l 617 0 l 354 0 l 354 375 l 6 997 l 289 997 l 494 615 l 704 997 l 968 997 l 617 375 m 621 1043 l 376 1043 l 515 1268 l 789 1268 l 621 1043 z "},"Ŷ":{"ha":974,"x_min":6,"x_max":968,"o":"m 617 375 l 617 0 l 354 0 l 354 375 l 6 997 l 289 997 l 494 615 l 704 997 l 968 997 l 617 375 m 410 1043 l 149 1043 l 344 1268 l 646 1268 l 840 1043 l 581 1043 l 494 1146 l 410 1043 z "},"Ÿ":{"ha":974,"x_min":6,"x_max":968,"o":"m 617 375 l 617 0 l 354 0 l 354 375 l 6 997 l 289 997 l 494 615 l 704 997 l 968 997 l 617 375 m 800 1165 q 761 1072 800 1108 q 664 1036 722 1036 q 564 1072 603 1036 q 525 1165 525 1108 q 564 1261 525 1225 q 664 1297 603 1297 q 761 1261 722 1297 q 800 1165 800 1225 m 464 1165 q 426 1072 464 1108 q 325 1036 388 1036 q 228 1072 267 1036 q 189 1165 189 1108 q 228 1261 189 1225 q 325 1297 267 1297 q 426 1261 388 1297 q 464 1165 464 1225 z "},"Ỳ":{"ha":974,"x_min":6,"x_max":968,"o":"m 617 375 l 617 0 l 354 0 l 354 375 l 6 997 l 289 997 l 494 615 l 704 997 l 968 997 l 617 375 m 613 1043 l 368 1043 l 200 1268 l 475 1268 l 613 1043 z "},"Z":{"ha":924,"x_min":53,"x_max":871,"o":"m 871 0 l 58 0 l 58 210 l 535 771 l 53 771 l 53 997 l 857 997 l 857 783 l 378 226 l 871 226 l 871 0 z "},"Ź":{"ha":924,"x_min":53,"x_max":871,"o":"m 871 0 l 58 0 l 58 210 l 535 771 l 53 771 l 53 997 l 857 997 l 857 783 l 378 226 l 871 226 l 871 0 m 592 1043 l 347 1043 l 486 1268 l 760 1268 l 592 1043 z "},"Ž":{"ha":924,"x_min":53,"x_max":871,"o":"m 871 0 l 58 0 l 58 210 l 535 771 l 53 771 l 53 997 l 857 997 l 857 783 l 378 226 l 871 226 l 871 0 m 617 1043 l 315 1043 l 119 1268 l 381 1268 l 465 1165 l 551 1268 l 811 1268 l 617 1043 z "},"Ż":{"ha":924,"x_min":53,"x_max":871,"o":"m 871 0 l 58 0 l 58 210 l 535 771 l 53 771 l 53 997 l 857 997 l 857 783 l 378 226 l 871 226 l 871 0 m 617 1171 q 574 1074 617 1113 q 464 1036 532 1036 q 353 1074 396 1036 q 311 1171 311 1113 q 353 1269 311 1231 q 464 1307 396 1307 q 574 1269 532 1307 q 617 1171 617 1231 z "},"a":{"ha":778,"x_min":42,"x_max":707,"o":"m 515 0 l 515 72 q 425 7 476 28 q 301 -14 374 -14 q 113 51 185 -14 q 42 221 42 115 q 128 388 42 331 q 374 446 214 446 q 432 444 404 446 q 483 438 460 442 l 483 474 q 456 549 483 522 q 379 575 429 575 q 302 549 331 575 q 267 474 274 522 l 53 474 q 103 626 60 561 q 217 726 146 690 q 381 761 289 761 q 621 682 535 761 q 707 461 707 603 l 707 0 l 515 0 m 265 228 q 290 171 265 192 q 357 150 314 150 q 450 176 417 150 q 483 249 483 203 l 483 296 q 435 303 457 301 q 389 306 413 306 q 297 286 329 306 q 265 228 265 267 z "},"á":{"ha":778,"x_min":42,"x_max":707,"o":"m 515 0 l 515 72 q 425 7 476 28 q 301 -14 374 -14 q 113 51 185 -14 q 42 221 42 115 q 128 388 42 331 q 374 446 214 446 q 432 444 404 446 q 483 438 460 442 l 483 474 q 456 549 483 522 q 379 575 429 575 q 302 549 331 575 q 267 474 274 522 l 53 474 q 103 626 60 561 q 217 726 146 690 q 381 761 289 761 q 621 682 535 761 q 707 461 707 603 l 707 0 l 515 0 m 265 228 q 290 171 265 192 q 357 150 314 150 q 450 176 417 150 q 483 249 483 203 l 483 296 q 435 303 457 301 q 389 306 413 306 q 297 286 329 306 q 265 228 265 267 m 513 793 l 268 793 l 407 1018 l 681 1018 l 513 793 z "},"ă":{"ha":778,"x_min":42,"x_max":707,"o":"m 515 0 l 515 72 q 425 7 476 28 q 301 -14 374 -14 q 113 51 185 -14 q 42 221 42 115 q 128 388 42 331 q 374 446 214 446 q 432 444 404 446 q 483 438 460 442 l 483 474 q 456 549 483 522 q 379 575 429 575 q 302 549 331 575 q 267 474 274 522 l 53 474 q 103 626 60 561 q 217 726 146 690 q 381 761 289 761 q 621 682 535 761 q 707 461 707 603 l 707 0 l 515 0 m 265 228 q 290 171 265 192 q 357 150 314 150 q 450 176 417 150 q 483 249 483 203 l 483 296 q 435 303 457 301 q 389 306 413 306 q 297 286 329 306 q 265 228 265 267 m 481 1018 l 646 1018 q 576 849 646 911 q 386 786 507 786 q 194 849 264 786 q 125 1018 125 911 l 292 1018 q 317 956 292 978 q 386 935 343 935 q 456 956 431 935 q 481 1018 481 978 z "},"â":{"ha":778,"x_min":40,"x_max":732,"o":"m 515 0 l 515 72 q 425 7 476 28 q 301 -14 374 -14 q 113 51 185 -14 q 42 221 42 115 q 128 388 42 331 q 374 446 214 446 q 432 444 404 446 q 483 438 460 442 l 483 474 q 456 549 483 522 q 379 575 429 575 q 302 549 331 575 q 267 474 274 522 l 53 474 q 103 626 60 561 q 217 726 146 690 q 381 761 289 761 q 621 682 535 761 q 707 461 707 603 l 707 0 l 515 0 m 265 228 q 290 171 265 192 q 357 150 314 150 q 450 176 417 150 q 483 249 483 203 l 483 296 q 435 303 457 301 q 389 306 413 306 q 297 286 329 306 q 265 228 265 267 m 301 793 l 40 793 l 236 1018 l 538 1018 l 732 793 l 472 793 l 386 896 l 301 793 z "},"ä":{"ha":778,"x_min":42,"x_max":707,"o":"m 515 0 l 515 72 q 425 7 476 28 q 301 -14 374 -14 q 113 51 185 -14 q 42 221 42 115 q 128 388 42 331 q 374 446 214 446 q 432 444 404 446 q 483 438 460 442 l 483 474 q 456 549 483 522 q 379 575 429 575 q 302 549 331 575 q 267 474 274 522 l 53 474 q 103 626 60 561 q 217 726 146 690 q 381 761 289 761 q 621 682 535 761 q 707 461 707 603 l 707 0 l 515 0 m 265 228 q 290 171 265 192 q 357 150 314 150 q 450 176 417 150 q 483 249 483 203 l 483 296 q 435 303 457 301 q 389 306 413 306 q 297 286 329 306 q 265 228 265 267 m 692 915 q 653 822 692 858 q 556 786 614 786 q 456 822 494 786 q 417 915 417 858 q 456 1011 417 975 q 556 1047 494 1047 q 653 1011 614 1047 q 692 915 692 975 m 356 915 q 317 822 356 858 q 217 786 279 786 q 119 822 158 786 q 81 915 81 858 q 119 1011 81 975 q 217 1047 158 1047 q 317 1011 279 1047 q 356 915 356 975 z "},"à":{"ha":778,"x_min":42,"x_max":707,"o":"m 515 0 l 515 72 q 425 7 476 28 q 301 -14 374 -14 q 113 51 185 -14 q 42 221 42 115 q 128 388 42 331 q 374 446 214 446 q 432 444 404 446 q 483 438 460 442 l 483 474 q 456 549 483 522 q 379 575 429 575 q 302 549 331 575 q 267 474 274 522 l 53 474 q 103 626 60 561 q 217 726 146 690 q 381 761 289 761 q 621 682 535 761 q 707 461 707 603 l 707 0 l 515 0 m 265 228 q 290 171 265 192 q 357 150 314 150 q 450 176 417 150 q 483 249 483 203 l 483 296 q 435 303 457 301 q 389 306 413 306 q 297 286 329 306 q 265 228 265 267 m 504 793 l 260 793 l 92 1018 l 367 1018 l 504 793 z "},"ā":{"ha":778,"x_min":42,"x_max":707,"o":"m 515 0 l 515 72 q 425 7 476 28 q 301 -14 374 -14 q 113 51 185 -14 q 42 221 42 115 q 128 388 42 331 q 374 446 214 446 q 432 444 404 446 q 483 438 460 442 l 483 474 q 456 549 483 522 q 379 575 429 575 q 302 549 331 575 q 267 474 274 522 l 53 474 q 103 626 60 561 q 217 726 146 690 q 381 761 289 761 q 621 682 535 761 q 707 461 707 603 l 707 0 l 515 0 m 265 228 q 290 171 265 192 q 357 150 314 150 q 450 176 417 150 q 483 249 483 203 l 483 296 q 435 303 457 301 q 389 306 413 306 q 297 286 329 306 q 265 228 265 267 m 629 810 l 144 810 l 144 963 l 629 963 l 629 810 z "},"ą":{"ha":778,"x_min":42,"x_max":707,"o":"m 515 0 l 515 72 q 425 7 476 28 q 301 -14 374 -14 q 113 51 185 -14 q 42 221 42 115 q 128 388 42 331 q 374 446 214 446 q 432 444 404 446 q 483 438 460 442 l 483 474 q 456 549 483 522 q 379 575 429 575 q 302 549 331 575 q 267 474 274 522 l 53 474 q 103 626 60 561 q 217 726 146 690 q 381 761 289 761 q 621 682 535 761 q 707 461 707 603 l 707 0 l 515 0 m 265 228 q 290 171 265 192 q 357 150 314 150 q 450 176 417 150 q 483 249 483 203 l 483 296 q 435 303 457 301 q 389 306 413 306 q 297 286 329 306 q 265 228 265 267 m 703 -104 l 703 -258 q 604 -274 650 -274 q 478 -237 531 -274 q 425 -124 425 -200 q 478 3 425 -54 q 624 136 531 60 l 689 64 q 630 8 653 38 q 607 -53 607 -21 q 622 -97 607 -82 q 661 -112 636 -112 q 703 -104 681 -112 z "},"å":{"ha":778,"x_min":42,"x_max":707,"o":"m 515 0 l 515 72 q 425 7 476 28 q 301 -14 374 -14 q 113 51 185 -14 q 42 221 42 115 q 128 388 42 331 q 374 446 214 446 q 432 444 404 446 q 483 438 460 442 l 483 474 q 456 549 483 522 q 379 575 429 575 q 302 549 331 575 q 267 474 274 522 l 53 474 q 103 626 60 561 q 217 726 146 690 q 381 761 289 761 q 621 682 535 761 q 707 461 707 603 l 707 0 l 515 0 m 265 228 q 290 171 265 192 q 357 150 314 150 q 450 176 417 150 q 483 249 483 203 l 483 296 q 435 303 457 301 q 389 306 413 306 q 297 286 329 306 q 265 228 265 267 m 386 786 q 281 811 326 786 q 210 878 235 836 q 185 968 185 919 q 210 1061 185 1019 q 281 1128 235 1103 q 386 1153 326 1153 q 492 1128 446 1153 q 563 1061 538 1103 q 589 968 589 1019 q 563 878 589 919 q 492 811 538 836 q 386 786 446 786 m 386 903 q 433 918 414 903 q 453 968 453 933 q 433 1021 453 1004 q 386 1038 414 1038 q 340 1021 361 1038 q 318 968 318 1004 q 340 918 318 933 q 386 903 361 903 z "},"ã":{"ha":778,"x_min":42,"x_max":707,"o":"m 515 0 l 515 72 q 425 7 476 28 q 301 -14 374 -14 q 113 51 185 -14 q 42 221 42 115 q 128 388 42 331 q 374 446 214 446 q 432 444 404 446 q 483 438 460 442 l 483 474 q 456 549 483 522 q 379 575 429 575 q 302 549 331 575 q 267 474 274 522 l 53 474 q 103 626 60 561 q 217 726 146 690 q 381 761 289 761 q 621 682 535 761 q 707 461 707 603 l 707 0 l 515 0 m 265 228 q 290 171 265 192 q 357 150 314 150 q 450 176 417 150 q 483 249 483 203 l 483 296 q 435 303 457 301 q 389 306 413 306 q 297 286 329 306 q 265 228 265 267 m 258 786 l 115 786 q 119 908 103 856 q 176 990 136 960 q 269 1019 215 1019 q 336 1012 304 1019 q 394 993 368 1004 q 442 974 421 982 q 478 967 464 967 q 506 979 494 967 q 514 1031 517 992 l 657 1031 q 652 911 669 964 q 595 828 635 858 q 500 797 556 797 q 434 805 465 797 q 376 824 403 813 q 329 842 350 835 q 293 850 308 850 q 267 838 278 850 q 258 786 257 826 z "},"æ":{"ha":1215,"x_min":42,"x_max":1197,"o":"m 42 221 q 128 388 42 331 q 374 446 214 446 q 403 445 389 446 q 432 444 418 444 q 458 442 446 443 q 483 438 471 440 l 483 475 q 456 549 483 524 q 379 575 428 575 q 300 551 332 575 q 267 474 268 526 l 53 474 q 103 620 60 556 q 217 723 146 685 q 378 761 289 761 q 513 740 454 761 q 611 675 572 719 q 712 738 654 715 q 839 761 769 761 q 1038 706 956 761 q 1159 550 1121 650 q 1179 314 1197 450 l 700 314 q 732 209 703 246 q 826 172 761 172 q 903 194 878 172 q 933 254 928 217 l 1176 254 q 1058 58 1146 128 q 839 -12 969 -12 q 685 18 754 -12 q 569 110 617 49 q 463 19 526 53 q 315 -14 400 -14 q 117 51 193 -14 q 42 221 42 115 m 822 586 q 767 574 792 586 q 726 535 742 563 q 706 463 710 508 l 935 463 q 904 554 933 522 q 822 586 875 586 m 265 228 q 290 171 265 192 q 357 150 314 150 q 450 181 417 150 q 483 263 483 211 l 483 296 q 449 302 465 300 q 419 305 433 304 q 389 306 404 306 q 265 228 265 306 z "},"b":{"ha":882,"x_min":78,"x_max":851,"o":"m 851 374 q 810 178 851 267 q 694 38 768 90 q 518 -14 619 -14 q 397 12 453 -14 q 296 85 342 38 l 296 0 l 78 0 l 78 997 l 315 997 l 315 678 q 410 740 360 719 q 518 761 460 761 q 694 710 619 761 q 810 570 768 658 q 851 374 851 482 m 604 374 q 560 506 604 464 q 461 547 515 547 q 392 529 425 547 q 339 473 360 511 q 318 375 318 435 q 338 278 318 317 q 392 219 358 239 q 461 200 425 200 q 560 243 515 200 q 604 374 604 286 z "},"c":{"ha":817,"x_min":31,"x_max":786,"o":"m 407 -14 q 211 35 296 -14 q 78 172 126 85 q 31 374 31 260 q 80 572 31 485 q 215 710 129 660 q 407 761 300 761 q 592 717 510 761 q 725 596 674 674 q 786 414 776 518 l 533 414 q 497 511 531 475 q 408 547 463 547 q 338 526 367 547 q 292 467 308 506 q 276 374 276 429 q 292 278 276 318 q 337 219 307 239 q 408 199 367 199 q 497 234 464 199 q 533 333 529 269 l 786 333 q 726 149 776 226 q 595 28 676 71 q 407 -14 514 -14 z "},"ć":{"ha":817,"x_min":31,"x_max":786,"o":"m 407 -14 q 211 35 296 -14 q 78 172 126 85 q 31 374 31 260 q 80 572 31 485 q 215 710 129 660 q 407 761 300 761 q 592 717 510 761 q 725 596 674 674 q 786 414 776 518 l 533 414 q 497 511 531 475 q 408 547 463 547 q 338 526 367 547 q 292 467 308 506 q 276 374 276 429 q 292 278 276 318 q 337 219 307 239 q 408 199 367 199 q 497 234 464 199 q 533 333 529 269 l 786 333 q 726 149 776 226 q 595 28 676 71 q 407 -14 514 -14 m 529 793 l 285 793 l 424 1018 l 697 1018 l 529 793 z "},"č":{"ha":817,"x_min":31,"x_max":786,"o":"m 407 -14 q 211 35 296 -14 q 78 172 126 85 q 31 374 31 260 q 80 572 31 485 q 215 710 129 660 q 407 761 300 761 q 592 717 510 761 q 725 596 674 674 q 786 414 776 518 l 533 414 q 497 511 531 475 q 408 547 463 547 q 338 526 367 547 q 292 467 308 506 q 276 374 276 429 q 292 278 276 318 q 337 219 307 239 q 408 199 367 199 q 497 234 464 199 q 533 333 529 269 l 786 333 q 726 149 776 226 q 595 28 676 71 q 407 -14 514 -14 m 554 793 l 253 793 l 57 1018 l 318 1018 l 403 915 l 489 1018 l 749 1018 l 554 793 z "},"ç":{"ha":817,"x_min":31,"x_max":786,"o":"m 407 -14 q 211 35 296 -14 q 78 172 126 85 q 31 374 31 260 q 80 572 31 485 q 215 710 129 660 q 407 761 300 761 q 592 717 510 761 q 725 596 674 674 q 786 414 776 518 l 533 414 q 497 511 531 475 q 408 547 463 547 q 338 526 367 547 q 292 467 308 506 q 276 374 276 429 q 292 278 276 318 q 337 219 307 239 q 408 199 367 199 q 497 234 464 199 q 533 333 529 269 l 786 333 q 726 149 776 226 q 595 28 676 71 q 407 -14 514 -14 m 576 -153 q 526 -241 576 -207 q 393 -275 475 -275 q 260 -239 310 -275 q 203 -135 211 -203 l 346 -135 q 358 -160 349 -153 q 383 -168 367 -168 q 408 -160 399 -168 q 418 -137 418 -151 q 408 -111 418 -121 q 376 -99 397 -101 q 319 -100 354 -96 l 350 26 l 463 26 l 444 -42 q 541 -80 506 -50 q 576 -153 576 -110 z "},"d":{"ha":882,"x_min":31,"x_max":804,"o":"m 31 374 q 72 570 31 482 q 189 710 114 658 q 364 761 264 761 q 473 740 422 761 q 567 678 524 719 l 567 997 l 804 997 l 804 0 l 586 0 l 586 85 q 485 12 540 38 q 364 -14 429 -14 q 189 38 264 -14 q 72 178 114 90 q 31 374 31 267 m 278 374 q 322 243 278 286 q 421 200 367 200 q 491 219 458 200 q 544 278 524 239 q 564 375 564 317 q 543 473 564 435 q 490 529 522 511 q 421 547 457 547 q 322 506 367 547 q 278 374 278 464 z "},"ð":{"ha":829,"x_min":31,"x_max":799,"o":"m 31 368 q 72 551 31 471 q 192 679 114 632 q 382 726 271 726 q 392 726 385 726 q 401 726 399 726 l 353 790 l 165 746 l 165 899 l 254 919 l 196 997 l 465 997 l 483 974 l 688 1021 l 688 868 l 582 843 l 671 725 q 745 613 717 665 q 786 502 774 560 q 799 368 799 444 q 771 228 799 296 q 692 105 743 160 q 572 18 642 50 q 415 -14 501 -14 q 215 38 301 -14 q 79 177 128 90 q 31 368 31 264 m 276 371 q 296 276 276 314 q 347 219 315 238 q 414 200 379 200 q 508 242 465 200 q 550 371 550 285 q 531 467 550 429 q 480 524 511 506 q 414 543 449 543 q 319 501 361 543 q 276 371 276 458 z "},"ď":{"ha":882,"x_min":31,"x_max":1031,"o":"m 31 374 q 72 570 31 482 q 189 710 114 658 q 364 761 264 761 q 473 740 422 761 q 567 678 524 719 l 567 997 l 804 997 l 804 0 l 586 0 l 586 85 q 485 12 540 38 q 364 -14 429 -14 q 189 38 264 -14 q 72 178 114 90 q 31 374 31 267 m 278 374 q 322 243 278 286 q 421 200 367 200 q 491 219 458 200 q 544 278 524 239 q 564 375 564 317 q 543 473 564 435 q 490 529 522 511 q 421 547 457 547 q 322 506 367 547 q 278 374 278 464 m 993 778 l 836 778 l 836 997 l 1031 997 l 993 778 z "},"đ":{"ha":882,"x_min":31,"x_max":900,"o":"m 31 374 q 72 570 31 482 q 189 710 114 658 q 364 761 264 761 q 473 740 422 761 q 567 678 524 719 l 567 997 l 804 997 l 804 0 l 586 0 l 586 85 q 485 12 540 38 q 364 -14 429 -14 q 189 38 264 -14 q 72 178 114 90 q 31 374 31 267 m 278 374 q 322 243 278 286 q 421 200 367 200 q 491 219 458 200 q 544 278 524 239 q 564 375 564 317 q 543 473 564 435 q 490 529 522 511 q 421 547 457 547 q 322 506 367 547 q 278 374 278 464 m 900 807 l 357 807 l 357 960 l 900 960 l 900 807 z "},"e":{"ha":821,"x_min":31,"x_max":800,"o":"m 415 -12 q 213 36 300 -12 q 78 172 126 85 q 31 375 31 260 q 80 574 31 488 q 216 711 129 661 q 414 761 303 761 q 582 726 507 761 q 708 630 657 692 q 779 487 758 568 q 783 314 800 406 l 174 314 l 174 463 l 529 463 q 494 553 528 519 q 408 586 461 586 q 333 563 363 586 q 288 493 303 540 q 272 374 272 446 q 288 262 272 307 q 333 194 303 217 q 410 172 364 172 q 493 193 460 172 q 542 254 526 214 l 779 254 q 650 57 744 126 q 415 -12 556 -12 z "},"é":{"ha":821,"x_min":31,"x_max":800,"o":"m 415 -12 q 213 36 300 -12 q 78 172 126 85 q 31 375 31 260 q 80 574 31 488 q 216 711 129 661 q 414 761 303 761 q 582 726 507 761 q 708 630 657 692 q 779 487 758 568 q 783 314 800 406 l 174 314 l 174 463 l 529 463 q 494 553 528 519 q 408 586 461 586 q 333 563 363 586 q 288 493 303 540 q 272 374 272 446 q 288 262 272 307 q 333 194 303 217 q 410 172 364 172 q 493 193 460 172 q 542 254 526 214 l 779 254 q 650 57 744 126 q 415 -12 556 -12 m 528 793 l 283 793 l 422 1018 l 696 1018 l 528 793 z "},"ě":{"ha":821,"x_min":31,"x_max":800,"o":"m 415 -12 q 213 36 300 -12 q 78 172 126 85 q 31 375 31 260 q 80 574 31 488 q 216 711 129 661 q 414 761 303 761 q 582 726 507 761 q 708 630 657 692 q 779 487 758 568 q 783 314 800 406 l 174 314 l 174 463 l 529 463 q 494 553 528 519 q 408 586 461 586 q 333 563 363 586 q 288 493 303 540 q 272 374 272 446 q 288 262 272 307 q 333 194 303 217 q 410 172 364 172 q 493 193 460 172 q 542 254 526 214 l 779 254 q 650 57 744 126 q 415 -12 556 -12 m 553 793 l 251 793 l 56 1018 l 317 1018 l 401 915 l 488 1018 l 747 1018 l 553 793 z "},"ê":{"ha":821,"x_min":31,"x_max":800,"o":"m 415 -12 q 213 36 300 -12 q 78 172 126 85 q 31 375 31 260 q 80 574 31 488 q 216 711 129 661 q 414 761 303 761 q 582 726 507 761 q 708 630 657 692 q 779 487 758 568 q 783 314 800 406 l 174 314 l 174 463 l 529 463 q 494 553 528 519 q 408 586 461 586 q 333 563 363 586 q 288 493 303 540 q 272 374 272 446 q 288 262 272 307 q 333 194 303 217 q 410 172 364 172 q 493 193 460 172 q 542 254 526 214 l 779 254 q 650 57 744 126 q 415 -12 556 -12 m 317 793 l 56 793 l 251 1018 l 553 1018 l 747 793 l 488 793 l 401 896 l 317 793 z "},"ë":{"ha":821,"x_min":31,"x_max":800,"o":"m 415 -12 q 213 36 300 -12 q 78 172 126 85 q 31 375 31 260 q 80 574 31 488 q 216 711 129 661 q 414 761 303 761 q 582 726 507 761 q 708 630 657 692 q 779 487 758 568 q 783 314 800 406 l 174 314 l 174 463 l 529 463 q 494 553 528 519 q 408 586 461 586 q 333 563 363 586 q 288 493 303 540 q 272 374 272 446 q 288 262 272 307 q 333 194 303 217 q 410 172 364 172 q 493 193 460 172 q 542 254 526 214 l 779 254 q 650 57 744 126 q 415 -12 556 -12 m 707 915 q 668 822 707 858 q 571 786 629 786 q 471 822 510 786 q 432 915 432 858 q 471 1011 432 975 q 571 1047 510 1047 q 668 1011 629 1047 q 707 915 707 975 m 371 915 q 333 822 371 858 q 232 786 294 786 q 135 822 174 786 q 96 915 96 858 q 135 1011 96 975 q 232 1047 174 1047 q 333 1011 294 1047 q 371 915 371 975 z "},"ė":{"ha":821,"x_min":31,"x_max":800,"o":"m 415 -12 q 213 36 300 -12 q 78 172 126 85 q 31 375 31 260 q 80 574 31 488 q 216 711 129 661 q 414 761 303 761 q 582 726 507 761 q 708 630 657 692 q 779 487 758 568 q 783 314 800 406 l 174 314 l 174 463 l 529 463 q 494 553 528 519 q 408 586 461 586 q 333 563 363 586 q 288 493 303 540 q 272 374 272 446 q 288 262 272 307 q 333 194 303 217 q 410 172 364 172 q 493 193 460 172 q 542 254 526 214 l 779 254 q 650 57 744 126 q 415 -12 556 -12 m 553 921 q 510 824 553 863 q 400 786 468 786 q 290 824 332 786 q 247 921 247 863 q 290 1019 247 981 q 400 1057 332 1057 q 510 1019 468 1057 q 553 921 553 981 z "},"è":{"ha":821,"x_min":31,"x_max":800,"o":"m 415 -12 q 213 36 300 -12 q 78 172 126 85 q 31 375 31 260 q 80 574 31 488 q 216 711 129 661 q 414 761 303 761 q 582 726 507 761 q 708 630 657 692 q 779 487 758 568 q 783 314 800 406 l 174 314 l 174 463 l 529 463 q 494 553 528 519 q 408 586 461 586 q 333 563 363 586 q 288 493 303 540 q 272 374 272 446 q 288 262 272 307 q 333 194 303 217 q 410 172 364 172 q 493 193 460 172 q 542 254 526 214 l 779 254 q 650 57 744 126 q 415 -12 556 -12 m 519 793 l 275 793 l 107 1018 l 382 1018 l 519 793 z "},"ē":{"ha":821,"x_min":31,"x_max":800,"o":"m 415 -12 q 213 36 300 -12 q 78 172 126 85 q 31 375 31 260 q 80 574 31 488 q 216 711 129 661 q 414 761 303 761 q 582 726 507 761 q 708 630 657 692 q 779 487 758 568 q 783 314 800 406 l 174 314 l 174 463 l 529 463 q 494 553 528 519 q 408 586 461 586 q 333 563 363 586 q 288 493 303 540 q 272 374 272 446 q 288 262 272 307 q 333 194 303 217 q 410 172 364 172 q 493 193 460 172 q 542 254 526 214 l 779 254 q 650 57 744 126 q 415 -12 556 -12 m 644 810 l 160 810 l 160 963 l 644 963 l 644 810 z "},"ę":{"ha":821,"x_min":31,"x_max":800,"o":"m 415 -12 q 213 36 300 -12 q 78 172 126 85 q 31 375 31 260 q 80 574 31 488 q 216 711 129 661 q 414 761 303 761 q 582 726 507 761 q 708 630 657 692 q 779 487 758 568 q 783 314 800 406 l 174 314 l 174 463 l 529 463 q 494 553 528 519 q 408 586 461 586 q 333 563 363 586 q 288 493 303 540 q 272 374 272 446 q 288 262 272 307 q 333 194 303 217 q 410 172 364 172 q 493 193 460 172 q 542 254 526 214 l 779 254 q 650 57 744 126 q 415 -12 556 -12 m 672 -104 l 672 -258 q 574 -274 619 -274 q 447 -237 500 -274 q 394 -124 394 -200 q 447 3 394 -54 q 593 136 500 60 l 658 64 q 599 8 622 38 q 576 -53 576 -21 q 591 -97 576 -82 q 631 -112 606 -112 q 672 -104 650 -112 z "},"f":{"ha":585,"x_min":11,"x_max":571,"o":"m 388 0 l 150 0 l 150 540 l 11 540 l 11 747 l 150 747 l 150 774 q 213 951 150 889 q 400 1014 275 1014 q 474 1007 440 1014 q 535 989 508 1000 l 535 801 q 500 812 521 808 q 460 815 479 815 q 408 805 429 815 q 388 768 388 794 l 388 747 l 571 747 l 571 540 l 388 540 l 388 0 z "},"g":{"ha":860,"x_min":31,"x_max":782,"o":"m 411 -282 q 229 -247 308 -282 q 104 -146 150 -211 q 54 6 58 -81 l 285 6 q 323 -71 292 -44 q 410 -97 354 -97 q 510 -62 476 -97 q 544 40 544 -28 l 544 128 q 465 63 515 86 q 354 39 415 39 q 190 87 264 39 q 74 217 117 135 q 31 400 31 299 q 71 587 31 506 q 182 715 111 668 q 344 761 253 761 q 468 740 415 761 q 564 671 521 718 l 564 747 l 782 747 l 782 43 q 683 -195 782 -108 q 411 -282 583 -282 m 271 399 q 307 288 271 329 q 403 246 343 246 q 476 265 444 246 q 524 319 507 285 q 542 400 542 354 q 503 512 542 469 q 403 554 465 554 q 307 512 343 554 q 271 399 271 469 z "},"ğ":{"ha":860,"x_min":31,"x_max":782,"o":"m 411 -282 q 229 -247 308 -282 q 104 -146 150 -211 q 54 6 58 -81 l 285 6 q 323 -71 292 -44 q 410 -97 354 -97 q 510 -62 476 -97 q 544 40 544 -28 l 544 128 q 465 63 515 86 q 354 39 415 39 q 190 87 264 39 q 74 217 117 135 q 31 400 31 299 q 71 587 31 506 q 182 715 111 668 q 344 761 253 761 q 468 740 415 761 q 564 671 521 718 l 564 747 l 782 747 l 782 43 q 683 -195 782 -108 q 411 -282 583 -282 m 271 399 q 307 288 271 329 q 403 246 343 246 q 476 265 444 246 q 524 319 507 285 q 542 400 542 354 q 503 512 542 469 q 403 554 465 554 q 307 512 343 554 q 271 399 271 469 m 508 1018 l 674 1018 q 604 849 674 911 q 414 786 535 786 q 222 849 292 786 q 153 1018 153 911 l 319 1018 q 345 956 319 978 q 414 935 371 935 q 483 956 458 935 q 508 1018 508 978 z "},"ģ":{"ha":860,"x_min":31,"x_max":782,"o":"m 411 -282 q 229 -247 308 -282 q 104 -146 150 -211 q 54 6 58 -81 l 285 6 q 323 -71 292 -44 q 410 -97 354 -97 q 510 -62 476 -97 q 544 40 544 -28 l 544 128 q 465 63 515 86 q 354 39 415 39 q 190 87 264 39 q 74 217 117 135 q 31 400 31 299 q 71 587 31 506 q 182 715 111 668 q 344 761 253 761 q 468 740 415 761 q 564 671 521 718 l 564 747 l 782 747 l 782 43 q 683 -195 782 -108 q 411 -282 583 -282 m 271 399 q 307 288 271 329 q 403 246 343 246 q 476 265 444 246 q 524 319 507 285 q 542 400 542 354 q 503 512 542 469 q 403 554 465 554 q 307 512 343 554 q 271 399 271 469 m 288 904 q 324 1005 288 963 q 421 1067 361 1047 q 551 1075 481 1086 l 551 992 q 463 990 500 1000 q 414 951 425 981 q 429 954 421 954 q 444 954 438 954 q 513 931 485 954 q 540 875 540 908 q 508 810 540 835 q 421 785 476 785 q 326 817 364 785 q 288 904 288 849 z "},"h":{"ha":840,"x_min":78,"x_max":769,"o":"m 315 393 l 315 0 l 78 0 l 78 997 l 315 997 l 315 667 q 401 736 356 711 q 518 761 447 761 q 699 689 629 761 q 769 481 769 617 l 769 0 l 532 0 l 532 401 q 506 510 532 472 q 426 547 481 547 q 372 532 397 547 q 331 483 346 517 q 315 393 315 450 z "},"i":{"ha":393,"x_min":42,"x_max":347,"o":"m 315 0 l 78 0 l 78 747 l 315 747 l 315 0 m 347 921 q 305 824 347 863 q 194 786 263 786 q 84 824 126 786 q 42 921 42 863 q 84 1019 42 981 q 194 1057 126 1057 q 305 1019 263 1057 q 347 921 347 981 z "},"í":{"ha":393,"x_min":78,"x_max":475,"o":"m 315 0 l 78 0 l 78 747 l 315 747 l 315 0 m 322 793 l 78 793 l 203 1018 l 475 1018 l 322 793 z "},"î":{"ha":393,"x_min":-135,"x_max":525,"o":"m 315 0 l 78 0 l 78 747 l 315 747 l 315 0 m 126 793 l -135 793 l 42 1018 l 350 1018 l 525 793 l 265 793 l 196 896 l 126 793 z "},"ï":{"ha":393,"x_min":-96,"x_max":488,"o":"m 315 0 l 78 0 l 78 747 l 315 747 l 315 0 m 488 915 q 450 822 488 858 q 356 786 413 786 q 258 822 296 786 q 219 915 219 858 q 258 1011 219 975 q 356 1047 296 1047 q 450 1011 413 1047 q 488 915 488 975 m 172 915 q 135 822 172 858 q 36 786 97 786 q -58 822 -21 786 q -96 915 -96 858 q -58 1011 -96 975 q 36 1047 -21 1047 q 135 1011 97 1047 q 172 915 172 975 z "},"ì":{"ha":393,"x_min":-83,"x_max":315,"o":"m 315 0 l 78 0 l 78 747 l 315 747 l 315 0 m 314 793 l 68 793 l -83 1018 l 190 1018 l 314 793 z "},"ī":{"ha":393,"x_min":-46,"x_max":439,"o":"m 315 0 l 78 0 l 78 747 l 315 747 l 315 0 m 439 810 l -46 810 l -46 963 l 439 963 l 439 810 z "},"į":{"ha":393,"x_min":-12,"x_max":347,"o":"m 315 0 l 78 0 l 78 747 l 315 747 l 315 0 m 347 921 q 305 824 347 863 q 194 786 263 786 q 84 824 126 786 q 42 921 42 863 q 84 1019 42 981 q 194 1057 126 1057 q 305 1019 263 1057 q 347 921 347 981 m 265 -104 l 265 -258 q 167 -274 213 -274 q 40 -237 93 -274 q -12 -124 -12 -200 q 40 3 -12 -54 q 186 136 93 60 l 251 64 q 192 8 215 38 q 169 -53 169 -21 q 184 -97 169 -82 q 224 -112 199 -112 q 265 -104 243 -112 z "},"j":{"ha":392,"x_min":-78,"x_max":346,"o":"m 314 747 l 314 38 q 277 -147 314 -76 q 177 -250 240 -218 q 33 -282 114 -282 q -22 -279 6 -282 q -78 -267 -50 -276 l -78 -43 q -42 -57 -62 -53 q 3 -61 -21 -61 q 56 -38 35 -61 q 76 44 76 -15 l 76 747 l 314 747 m 346 921 q 303 824 346 863 q 193 786 261 786 q 83 824 125 786 q 40 921 40 863 q 83 1019 40 981 q 193 1057 125 1057 q 303 1019 261 1057 q 346 921 346 981 z "},"k":{"ha":863,"x_min":78,"x_max":860,"o":"m 315 0 l 78 0 l 78 997 l 315 997 l 315 444 l 547 747 l 821 747 l 544 393 l 860 0 l 557 0 l 315 340 l 315 0 z "},"ķ":{"ha":863,"x_min":78,"x_max":860,"o":"m 315 0 l 78 0 l 78 997 l 315 997 l 315 444 l 547 747 l 821 747 l 544 393 l 860 0 l 557 0 l 315 340 l 315 0 m 554 -157 q 517 -258 554 -215 q 421 -319 481 -300 q 290 -328 361 -339 l 290 -244 q 380 -243 343 -253 q 428 -204 417 -233 q 339 -191 376 -215 q 301 -128 301 -167 q 333 -62 301 -87 q 421 -37 365 -37 q 516 -69 478 -37 q 554 -157 554 -101 z "},"l":{"ha":396,"x_min":78,"x_max":318,"o":"m 318 0 l 78 0 l 78 997 l 318 997 l 318 0 z "},"ĺ":{"ha":396,"x_min":78,"x_max":492,"o":"m 318 0 l 78 0 l 78 997 l 318 997 l 318 0 m 324 1043 l 79 1043 l 218 1268 l 492 1268 l 324 1043 z "},"ľ":{"ha":396,"x_min":78,"x_max":544,"o":"m 318 0 l 78 0 l 78 997 l 318 997 l 318 0 m 507 778 l 350 778 l 350 997 l 544 997 l 507 778 z "},"ļ":{"ha":396,"x_min":60,"x_max":324,"o":"m 318 0 l 78 0 l 78 997 l 318 997 l 318 0 m 324 -157 q 288 -258 324 -215 q 191 -319 251 -300 q 60 -328 131 -339 l 60 -244 q 149 -243 113 -253 q 197 -204 186 -233 q 108 -191 146 -215 q 71 -128 71 -167 q 103 -62 71 -87 q 190 -37 135 -37 q 285 -69 247 -37 q 324 -157 324 -101 z "},"ł":{"ha":396,"x_min":-39,"x_max":429,"o":"m 318 0 l 78 0 l 78 997 l 318 997 l 318 0 m 429 457 l -39 357 l -39 554 l 429 656 l 429 457 z "},"m":{"ha":1286,"x_min":78,"x_max":1215,"o":"m 315 0 l 78 0 l 78 747 l 296 747 l 296 656 q 389 733 339 706 q 511 761 439 761 q 637 732 582 761 q 722 646 692 703 q 826 731 771 700 q 963 761 881 761 q 1144 689 1074 761 q 1215 481 1215 617 l 1215 0 l 978 0 l 978 407 q 952 510 978 472 q 875 547 926 547 q 821 533 846 547 q 781 487 796 518 q 765 406 765 456 l 765 0 l 528 0 l 528 407 q 502 510 528 472 q 425 547 476 547 q 369 533 394 547 q 330 487 344 518 q 315 406 315 456 l 315 0 z "},"n":{"ha":840,"x_min":78,"x_max":769,"o":"m 315 393 l 315 0 l 78 0 l 78 747 l 296 747 l 296 657 q 394 733 340 706 q 518 761 447 761 q 699 689 629 761 q 769 481 769 617 l 769 0 l 532 0 l 532 401 q 506 510 532 472 q 426 547 481 547 q 372 532 397 547 q 331 483 346 517 q 315 393 315 450 z "},"ń":{"ha":840,"x_min":78,"x_max":769,"o":"m 315 393 l 315 0 l 78 0 l 78 747 l 296 747 l 296 657 q 394 733 340 706 q 518 761 447 761 q 699 689 629 761 q 769 481 769 617 l 769 0 l 532 0 l 532 401 q 506 510 532 472 q 426 547 481 547 q 372 532 397 547 q 331 483 346 517 q 315 393 315 450 m 546 793 l 301 793 l 440 1018 l 714 1018 l 546 793 z "},"ň":{"ha":840,"x_min":74,"x_max":769,"o":"m 315 393 l 315 0 l 78 0 l 78 747 l 296 747 l 296 657 q 394 733 340 706 q 518 761 447 761 q 699 689 629 761 q 769 481 769 617 l 769 0 l 532 0 l 532 401 q 506 510 532 472 q 426 547 481 547 q 372 532 397 547 q 331 483 346 517 q 315 393 315 450 m 571 793 l 269 793 l 74 1018 l 335 1018 l 419 915 l 506 1018 l 765 1018 l 571 793 z "},"ņ":{"ha":840,"x_min":78,"x_max":769,"o":"m 315 393 l 315 0 l 78 0 l 78 747 l 296 747 l 296 657 q 394 733 340 706 q 518 761 447 761 q 699 689 629 761 q 769 481 769 617 l 769 0 l 532 0 l 532 401 q 506 510 532 472 q 426 547 481 547 q 372 532 397 547 q 331 483 346 517 q 315 393 315 450 m 546 -157 q 509 -258 546 -215 q 413 -319 472 -300 q 282 -328 353 -339 l 282 -244 q 372 -243 335 -253 q 419 -204 408 -233 q 331 -191 368 -215 q 293 -128 293 -167 q 325 -62 293 -87 q 413 -37 357 -37 q 508 -69 469 -37 q 546 -157 546 -101 z "},"ñ":{"ha":840,"x_min":78,"x_max":769,"o":"m 315 393 l 315 0 l 78 0 l 78 747 l 296 747 l 296 657 q 394 733 340 706 q 518 761 447 761 q 699 689 629 761 q 769 481 769 617 l 769 0 l 532 0 l 532 401 q 506 510 532 472 q 426 547 481 547 q 372 532 397 547 q 331 483 346 517 q 315 393 315 450 m 292 786 l 149 786 q 153 908 136 856 q 209 990 169 960 q 303 1019 249 1019 q 369 1012 338 1019 q 428 993 401 1004 q 476 974 454 982 q 511 967 497 967 q 539 979 528 967 q 547 1031 550 992 l 690 1031 q 685 911 703 964 q 628 828 668 858 q 533 797 589 797 q 467 805 499 797 q 410 824 436 813 q 363 842 383 835 q 326 850 342 850 q 301 838 311 850 q 292 786 290 826 z "},"o":{"ha":842,"x_min":31,"x_max":811,"o":"m 421 -14 q 267 16 338 -14 q 143 99 196 46 q 60 223 90 153 q 31 374 31 293 q 60 524 31 454 q 143 648 90 594 q 267 731 196 701 q 421 761 338 761 q 575 731 504 761 q 699 648 646 701 q 781 524 751 594 q 811 374 811 454 q 781 223 811 293 q 699 99 751 153 q 575 16 646 46 q 421 -14 504 -14 m 421 199 q 491 218 458 199 q 544 276 524 238 q 564 374 564 315 q 544 471 564 432 q 491 528 524 510 q 421 547 458 547 q 351 528 385 547 q 298 471 318 510 q 278 374 278 432 q 298 276 278 315 q 351 218 318 238 q 421 199 385 199 z "},"ó":{"ha":842,"x_min":31,"x_max":811,"o":"m 421 -14 q 267 16 338 -14 q 143 99 196 46 q 60 223 90 153 q 31 374 31 293 q 60 524 31 454 q 143 648 90 594 q 267 731 196 701 q 421 761 338 761 q 575 731 504 761 q 699 648 646 701 q 781 524 751 594 q 811 374 811 454 q 781 223 811 293 q 699 99 751 153 q 575 16 646 46 q 421 -14 504 -14 m 421 199 q 491 218 458 199 q 544 276 524 238 q 564 374 564 315 q 544 471 564 432 q 491 528 524 510 q 421 547 458 547 q 351 528 385 547 q 298 471 318 510 q 278 374 278 432 q 298 276 278 315 q 351 218 318 238 q 421 199 385 199 m 547 793 l 303 793 l 442 1018 l 715 1018 l 547 793 z "},"ô":{"ha":842,"x_min":31,"x_max":811,"o":"m 421 -14 q 267 16 338 -14 q 143 99 196 46 q 60 223 90 153 q 31 374 31 293 q 60 524 31 454 q 143 648 90 594 q 267 731 196 701 q 421 761 338 761 q 575 731 504 761 q 699 648 646 701 q 781 524 751 594 q 811 374 811 454 q 781 223 811 293 q 699 99 751 153 q 575 16 646 46 q 421 -14 504 -14 m 421 199 q 491 218 458 199 q 544 276 524 238 q 564 374 564 315 q 544 471 564 432 q 491 528 524 510 q 421 547 458 547 q 351 528 385 547 q 298 471 318 510 q 278 374 278 432 q 298 276 278 315 q 351 218 318 238 q 421 199 385 199 m 336 793 l 75 793 l 271 1018 l 572 1018 l 767 793 l 507 793 l 421 896 l 336 793 z "},"ö":{"ha":842,"x_min":31,"x_max":811,"o":"m 421 -14 q 267 16 338 -14 q 143 99 196 46 q 60 223 90 153 q 31 374 31 293 q 60 524 31 454 q 143 648 90 594 q 267 731 196 701 q 421 761 338 761 q 575 731 504 761 q 699 648 646 701 q 781 524 751 594 q 811 374 811 454 q 781 223 811 293 q 699 99 751 153 q 575 16 646 46 q 421 -14 504 -14 m 421 199 q 491 218 458 199 q 544 276 524 238 q 564 374 564 315 q 544 471 564 432 q 491 528 524 510 q 421 547 458 547 q 351 528 385 547 q 298 471 318 510 q 278 374 278 432 q 298 276 278 315 q 351 218 318 238 q 421 199 385 199 m 726 915 q 688 822 726 858 q 590 786 649 786 q 490 822 529 786 q 451 915 451 858 q 490 1011 451 975 q 590 1047 529 1047 q 688 1011 649 1047 q 726 915 726 975 m 390 915 q 352 822 390 858 q 251 786 314 786 q 154 822 193 786 q 115 915 115 858 q 154 1011 115 975 q 251 1047 193 1047 q 352 1011 314 1047 q 390 915 390 975 z "},"ò":{"ha":842,"x_min":31,"x_max":811,"o":"m 421 -14 q 267 16 338 -14 q 143 99 196 46 q 60 223 90 153 q 31 374 31 293 q 60 524 31 454 q 143 648 90 594 q 267 731 196 701 q 421 761 338 761 q 575 731 504 761 q 699 648 646 701 q 781 524 751 594 q 811 374 811 454 q 781 223 811 293 q 699 99 751 153 q 575 16 646 46 q 421 -14 504 -14 m 421 199 q 491 218 458 199 q 544 276 524 238 q 564 374 564 315 q 544 471 564 432 q 491 528 524 510 q 421 547 458 547 q 351 528 385 547 q 298 471 318 510 q 278 374 278 432 q 298 276 278 315 q 351 218 318 238 q 421 199 385 199 m 539 793 l 294 793 l 126 1018 l 401 1018 l 539 793 z "},"ő":{"ha":842,"x_min":31,"x_max":842,"o":"m 421 -14 q 267 16 338 -14 q 143 99 196 46 q 60 223 90 153 q 31 374 31 293 q 60 524 31 454 q 143 648 90 594 q 267 731 196 701 q 421 761 338 761 q 575 731 504 761 q 699 648 646 701 q 781 524 751 594 q 811 374 811 454 q 781 223 811 293 q 699 99 751 153 q 575 16 646 46 q 421 -14 504 -14 m 421 199 q 491 218 458 199 q 544 276 524 238 q 564 374 564 315 q 544 471 564 432 q 491 528 524 510 q 421 547 458 547 q 351 528 385 547 q 298 471 318 510 q 278 374 278 432 q 298 276 278 315 q 351 218 318 238 q 421 199 385 199 m 674 793 l 444 793 l 597 1018 l 842 1018 l 674 793 m 360 793 l 131 793 l 269 1018 l 513 1018 l 360 793 z "},"ō":{"ha":842,"x_min":31,"x_max":811,"o":"m 421 -14 q 267 16 338 -14 q 143 99 196 46 q 60 223 90 153 q 31 374 31 293 q 60 524 31 454 q 143 648 90 594 q 267 731 196 701 q 421 761 338 761 q 575 731 504 761 q 699 648 646 701 q 781 524 751 594 q 811 374 811 454 q 781 223 811 293 q 699 99 751 153 q 575 16 646 46 q 421 -14 504 -14 m 421 199 q 491 218 458 199 q 544 276 524 238 q 564 374 564 315 q 544 471 564 432 q 491 528 524 510 q 421 547 458 547 q 351 528 385 547 q 298 471 318 510 q 278 374 278 432 q 298 276 278 315 q 351 218 318 238 q 421 199 385 199 m 664 810 l 179 810 l 179 963 l 664 963 l 664 810 z "},"ø":{"ha":842,"x_min":31,"x_max":811,"o":"m 421 -14 q 267 16 338 -14 q 143 99 196 46 q 60 223 90 153 q 31 374 31 293 q 60 524 31 454 q 143 648 90 594 q 267 731 196 701 q 421 761 338 761 q 575 731 504 761 q 699 648 646 701 q 781 524 751 594 q 811 374 811 454 q 781 223 811 293 q 699 99 751 153 q 575 16 646 46 q 421 -14 504 -14 m 421 199 q 491 218 458 199 q 544 276 524 238 q 564 374 564 315 q 544 471 564 432 q 491 528 524 510 q 421 547 458 547 q 351 528 385 547 q 298 471 318 510 q 278 374 278 432 q 298 276 278 315 q 351 218 318 238 q 421 199 385 199 m 243 0 l 67 0 l 601 747 l 778 747 l 243 0 z "},"õ":{"ha":842,"x_min":31,"x_max":811,"o":"m 421 -14 q 267 16 338 -14 q 143 99 196 46 q 60 223 90 153 q 31 374 31 293 q 60 524 31 454 q 143 648 90 594 q 267 731 196 701 q 421 761 338 761 q 575 731 504 761 q 699 648 646 701 q 781 524 751 594 q 811 374 811 454 q 781 223 811 293 q 699 99 751 153 q 575 16 646 46 q 421 -14 504 -14 m 421 199 q 491 218 458 199 q 544 276 524 238 q 564 374 564 315 q 544 471 564 432 q 491 528 524 510 q 421 547 458 547 q 351 528 385 547 q 298 471 318 510 q 278 374 278 432 q 298 276 278 315 q 351 218 318 238 q 421 199 385 199 m 293 786 l 150 786 q 154 908 138 856 q 210 990 171 960 q 304 1019 250 1019 q 371 1012 339 1019 q 429 993 403 1004 q 477 974 456 982 q 513 967 499 967 q 540 979 529 967 q 549 1031 551 992 l 692 1031 q 687 911 704 964 q 630 828 669 858 q 535 797 590 797 q 469 805 500 797 q 411 824 438 813 q 364 842 385 835 q 328 850 343 850 q 302 838 313 850 q 293 786 292 826 z "},"œ":{"ha":1322,"x_min":31,"x_max":1306,"o":"m 31 374 q 81 575 31 488 q 216 712 131 663 q 408 761 301 761 q 554 731 486 761 q 671 649 622 701 q 781 731 717 701 q 921 761 844 761 q 1136 703 1047 761 q 1265 544 1225 644 q 1286 314 1306 443 l 789 314 q 824 210 792 247 q 925 172 856 172 q 1007 197 979 172 q 1040 254 1035 221 l 1283 254 q 1155 58 1246 129 q 926 -12 1064 -12 q 783 15 850 -12 q 669 97 717 42 q 553 15 621 44 q 408 -14 486 -14 q 216 35 301 -14 q 81 172 131 85 q 31 374 31 260 m 278 374 q 297 274 278 313 q 349 217 317 235 q 415 199 381 199 q 483 217 451 199 q 533 274 514 235 q 553 374 553 313 q 533 473 553 435 q 483 529 514 511 q 415 547 451 547 q 349 529 381 547 q 297 473 317 511 q 278 374 278 435 m 921 586 q 860 573 888 586 q 816 533 833 560 q 794 463 799 506 l 1042 463 q 1010 553 1040 519 q 921 586 979 586 z "},"p":{"ha":882,"x_min":78,"x_max":851,"o":"m 851 374 q 810 178 851 265 q 694 38 768 90 q 518 -14 619 -14 q 410 7 460 -14 q 315 69 360 28 l 315 -268 l 78 -268 l 78 747 l 296 747 l 296 663 q 397 736 342 711 q 518 761 453 761 q 694 709 619 761 q 810 569 768 657 q 851 374 851 481 m 604 374 q 560 504 604 461 q 461 547 515 547 q 392 528 425 547 q 338 470 358 508 q 318 372 318 432 q 339 274 318 313 q 392 218 360 236 q 461 200 425 200 q 560 242 515 200 q 604 374 604 285 z "},"þ":{"ha":882,"x_min":78,"x_max":851,"o":"m 851 374 q 810 178 851 265 q 694 38 768 90 q 518 -14 619 -14 q 410 7 460 -14 q 315 69 360 28 l 315 -268 l 78 -268 l 78 997 l 315 997 l 315 681 q 409 741 358 721 q 518 761 460 761 q 694 709 619 761 q 810 569 768 657 q 851 374 851 481 m 604 374 q 560 504 604 461 q 461 547 515 547 q 392 528 425 547 q 338 470 358 508 q 318 372 318 432 q 339 274 318 313 q 392 218 360 236 q 461 200 425 200 q 560 242 515 200 q 604 374 604 285 z "},"q":{"ha":882,"x_min":31,"x_max":804,"o":"m 31 374 q 72 569 31 481 q 189 709 114 657 q 364 761 264 761 q 485 736 429 761 q 586 663 540 711 l 586 747 l 804 747 l 804 -268 l 567 -268 l 567 69 q 473 7 524 28 q 364 -14 422 -14 q 189 38 264 -14 q 72 178 114 90 q 31 374 31 265 m 278 374 q 322 242 278 285 q 421 200 367 200 q 490 218 457 200 q 543 274 522 236 q 564 372 564 313 q 520 504 564 461 q 421 547 476 547 q 322 504 367 547 q 278 374 278 461 z "},"r":{"ha":604,"x_min":78,"x_max":590,"o":"m 315 344 l 315 0 l 78 0 l 78 747 l 296 747 l 296 615 q 420 717 339 681 q 590 753 501 753 l 590 506 q 445 508 507 514 q 349 465 383 501 q 315 344 315 428 z "},"ŕ":{"ha":604,"x_min":78,"x_max":649,"o":"m 315 344 l 315 0 l 78 0 l 78 747 l 296 747 l 296 615 q 420 717 339 681 q 590 753 501 753 l 590 506 q 445 508 507 514 q 349 465 383 501 q 315 344 315 428 m 481 793 l 236 793 l 375 1018 l 649 1018 l 481 793 z "},"ř":{"ha":604,"x_min":8,"x_max":700,"o":"m 315 344 l 315 0 l 78 0 l 78 747 l 296 747 l 296 615 q 420 717 339 681 q 590 753 501 753 l 590 506 q 445 508 507 514 q 349 465 383 501 q 315 344 315 428 m 506 793 l 204 793 l 8 1018 l 269 1018 l 354 915 l 440 1018 l 700 1018 l 506 793 z "},"ŗ":{"ha":604,"x_min":67,"x_max":590,"o":"m 315 344 l 315 0 l 78 0 l 78 747 l 296 747 l 296 615 q 420 717 339 681 q 590 753 501 753 l 590 506 q 445 508 507 514 q 349 465 383 501 q 315 344 315 428 m 331 -157 q 294 -258 331 -215 q 198 -319 258 -300 q 67 -328 138 -339 l 67 -244 q 156 -243 119 -253 q 204 -204 193 -233 q 115 -191 153 -215 q 78 -128 78 -167 q 110 -62 78 -87 q 197 -37 142 -37 q 292 -69 254 -37 q 331 -157 331 -101 z "},"s":{"ha":778,"x_min":31,"x_max":740,"o":"m 740 254 q 651 58 740 131 q 393 -14 563 -14 q 133 60 225 -14 q 31 264 42 135 l 258 264 q 297 189 258 217 q 397 161 336 161 q 469 172 438 161 q 500 213 500 183 q 481 250 500 238 q 424 269 463 263 l 276 296 q 121 369 179 314 q 63 515 63 425 q 101 643 63 588 q 212 730 140 699 q 381 761 283 761 q 554 728 479 761 q 674 635 629 696 q 726 490 719 574 l 499 490 q 463 560 494 535 q 382 586 431 586 q 315 574 340 586 q 290 538 290 563 q 308 504 290 514 q 361 488 326 494 l 519 458 q 684 387 628 439 q 740 254 740 335 z "},"ś":{"ha":778,"x_min":31,"x_max":740,"o":"m 740 254 q 651 58 740 131 q 393 -14 563 -14 q 133 60 225 -14 q 31 264 42 135 l 258 264 q 297 189 258 217 q 397 161 336 161 q 469 172 438 161 q 500 213 500 183 q 481 250 500 238 q 424 269 463 263 l 276 296 q 121 369 179 314 q 63 515 63 425 q 101 643 63 588 q 212 730 140 699 q 381 761 283 761 q 554 728 479 761 q 674 635 629 696 q 726 490 719 574 l 499 490 q 463 560 494 535 q 382 586 431 586 q 315 574 340 586 q 290 538 290 563 q 308 504 290 514 q 361 488 326 494 l 519 458 q 684 387 628 439 q 740 254 740 335 m 515 794 l 271 794 l 410 1019 l 683 1019 l 515 794 z "},"š":{"ha":778,"x_min":31,"x_max":740,"o":"m 740 254 q 651 58 740 131 q 393 -14 563 -14 q 133 60 225 -14 q 31 264 42 135 l 258 264 q 297 189 258 217 q 397 161 336 161 q 469 172 438 161 q 500 213 500 183 q 481 250 500 238 q 424 269 463 263 l 276 296 q 121 369 179 314 q 63 515 63 425 q 101 643 63 588 q 212 730 140 699 q 381 761 283 761 q 554 728 479 761 q 674 635 629 696 q 726 490 719 574 l 499 490 q 463 560 494 535 q 382 586 431 586 q 315 574 340 586 q 290 538 290 563 q 308 504 290 514 q 361 488 326 494 l 519 458 q 684 387 628 439 q 740 254 740 335 m 540 794 l 239 794 l 43 1019 l 304 1019 l 389 917 l 475 1019 l 735 1019 l 540 794 z "},"ş":{"ha":778,"x_min":31,"x_max":740,"o":"m 740 254 q 651 58 740 131 q 393 -14 563 -14 q 133 60 225 -14 q 31 264 42 135 l 258 264 q 297 189 258 217 q 397 161 336 161 q 469 172 438 161 q 500 213 500 183 q 481 250 500 238 q 424 269 463 263 l 276 296 q 121 369 179 314 q 63 515 63 425 q 101 643 63 588 q 212 730 140 699 q 381 761 283 761 q 554 728 479 761 q 674 635 629 696 q 726 490 719 574 l 499 490 q 463 560 494 535 q 382 586 431 586 q 315 574 340 586 q 290 538 290 563 q 308 504 290 514 q 361 488 326 494 l 519 458 q 684 387 628 439 q 740 254 740 335 m 568 -153 q 517 -241 568 -207 q 385 -275 467 -275 q 252 -239 301 -275 q 194 -135 203 -203 l 338 -135 q 349 -160 340 -153 q 375 -168 358 -168 q 400 -160 390 -168 q 410 -137 410 -151 q 399 -111 410 -121 q 367 -99 389 -101 q 311 -100 346 -96 l 342 26 l 454 26 l 436 -42 q 533 -80 497 -50 q 568 -153 568 -110 z "},"ș":{"ha":778,"x_min":31,"x_max":740,"o":"m 740 254 q 651 58 740 131 q 393 -14 563 -14 q 133 60 225 -14 q 31 264 42 135 l 258 264 q 297 189 258 217 q 397 161 336 161 q 469 172 438 161 q 500 213 500 183 q 481 250 500 238 q 424 269 463 263 l 276 296 q 121 369 179 314 q 63 515 63 425 q 101 643 63 588 q 212 730 140 699 q 381 761 283 761 q 554 728 479 761 q 674 635 629 696 q 726 490 719 574 l 499 490 q 463 560 494 535 q 382 586 431 586 q 315 574 340 586 q 290 538 290 563 q 308 504 290 514 q 361 488 326 494 l 519 458 q 684 387 628 439 q 740 254 740 335 m 521 -157 q 484 -258 521 -215 q 388 -319 447 -300 q 257 -328 328 -339 l 257 -244 q 347 -243 310 -253 q 394 -204 383 -233 q 306 -191 343 -215 q 268 -128 268 -167 q 300 -62 268 -87 q 388 -37 332 -37 q 483 -69 444 -37 q 521 -157 521 -101 z "},"ß":{"ha":907,"x_min":11,"x_max":882,"o":"m 882 296 q 842 128 882 197 q 724 22 801 58 q 535 -14 646 -14 q 484 -12 504 -14 q 449 -4 464 -10 l 449 183 q 492 178 476 179 q 518 176 507 176 q 606 208 575 176 q 638 294 638 239 q 601 385 638 353 q 496 418 564 418 l 447 418 l 447 610 l 476 610 q 559 641 528 610 q 590 724 590 672 q 564 796 590 769 q 493 822 538 822 q 415 791 443 822 q 388 704 388 760 l 388 0 l 150 0 l 150 540 l 11 540 l 11 747 l 153 747 q 208 878 165 818 q 324 974 251 938 q 496 1011 396 1011 q 681 974 606 1011 q 794 875 756 936 q 833 742 833 814 q 799 624 833 675 q 707 542 764 574 q 835 451 789 515 q 882 296 882 386 z "},"t":{"ha":613,"x_min":4,"x_max":585,"o":"m 579 233 l 579 26 q 500 -5 540 4 q 410 -14 460 -14 q 267 18 326 -14 q 175 111 207 50 q 143 257 143 172 l 143 540 l 4 540 l 4 747 l 143 747 l 143 967 l 381 967 l 381 747 l 585 747 l 585 540 l 381 540 l 381 313 q 404 233 381 258 q 476 207 428 207 q 533 214 506 207 q 579 233 560 221 z "},"ť":{"ha":613,"x_min":4,"x_max":607,"o":"m 579 233 l 579 26 q 500 -5 540 4 q 410 -14 460 -14 q 267 18 326 -14 q 175 111 207 50 q 143 257 143 172 l 143 540 l 4 540 l 4 747 l 143 747 l 143 967 l 381 967 l 381 747 l 585 747 l 585 540 l 381 540 l 381 313 q 404 233 381 258 q 476 207 428 207 q 533 214 506 207 q 579 233 560 221 m 569 778 l 413 778 l 413 997 l 607 997 l 569 778 z "},"ţ":{"ha":613,"x_min":4,"x_max":585,"o":"m 579 233 l 579 26 q 500 -5 540 4 q 410 -14 460 -14 q 267 18 326 -14 q 175 111 207 50 q 143 257 143 172 l 143 540 l 4 540 l 4 747 l 143 747 l 143 967 l 381 967 l 381 747 l 585 747 l 585 540 l 381 540 l 381 313 q 404 233 381 258 q 476 207 428 207 q 533 214 506 207 q 579 233 560 221 m 543 -153 q 492 -241 543 -207 q 360 -275 442 -275 q 227 -239 276 -275 q 169 -135 178 -203 l 313 -135 q 324 -160 315 -153 q 350 -168 333 -168 q 375 -160 365 -168 q 385 -137 385 -151 q 374 -111 385 -121 q 342 -99 364 -101 q 286 -100 321 -96 l 317 26 l 429 26 l 411 -42 q 508 -80 472 -50 q 543 -153 543 -110 z "},"ț":{"ha":613,"x_min":4,"x_max":585,"o":"m 579 233 l 579 26 q 500 -5 540 4 q 410 -14 460 -14 q 267 18 326 -14 q 175 111 207 50 q 143 257 143 172 l 143 540 l 4 540 l 4 747 l 143 747 l 143 967 l 381 967 l 381 747 l 585 747 l 585 540 l 381 540 l 381 313 q 404 233 381 258 q 476 207 428 207 q 533 214 506 207 q 579 233 560 221 m 496 -157 q 459 -258 496 -215 q 363 -319 422 -300 q 232 -328 303 -339 l 232 -244 q 322 -243 285 -253 q 369 -204 358 -233 q 281 -191 318 -215 q 243 -128 243 -167 q 275 -62 243 -87 q 363 -37 307 -37 q 458 -69 419 -37 q 496 -157 496 -101 z "},"u":{"ha":836,"x_min":71,"x_max":758,"o":"m 521 321 l 521 747 l 758 747 l 758 0 l 540 0 l 540 81 q 453 13 510 39 q 332 -14 397 -14 q 199 17 258 -14 q 105 113 139 49 q 71 276 71 178 l 71 747 l 308 747 l 308 321 q 337 229 308 260 q 415 199 365 199 q 463 212 439 199 q 504 252 488 225 q 521 321 521 279 z "},"ú":{"ha":836,"x_min":71,"x_max":758,"o":"m 521 321 l 521 747 l 758 747 l 758 0 l 540 0 l 540 81 q 453 13 510 39 q 332 -14 397 -14 q 199 17 258 -14 q 105 113 139 49 q 71 276 71 178 l 71 747 l 308 747 l 308 321 q 337 229 308 260 q 415 199 365 199 q 463 212 439 199 q 504 252 488 225 q 521 321 521 279 m 543 793 l 299 793 l 438 1018 l 711 1018 l 543 793 z "},"û":{"ha":836,"x_min":71,"x_max":763,"o":"m 521 321 l 521 747 l 758 747 l 758 0 l 540 0 l 540 81 q 453 13 510 39 q 332 -14 397 -14 q 199 17 258 -14 q 105 113 139 49 q 71 276 71 178 l 71 747 l 308 747 l 308 321 q 337 229 308 260 q 415 199 365 199 q 463 212 439 199 q 504 252 488 225 q 521 321 521 279 m 332 793 l 71 793 l 267 1018 l 568 1018 l 763 793 l 503 793 l 417 896 l 332 793 z "},"ü":{"ha":836,"x_min":71,"x_max":758,"o":"m 521 321 l 521 747 l 758 747 l 758 0 l 540 0 l 540 81 q 453 13 510 39 q 332 -14 397 -14 q 199 17 258 -14 q 105 113 139 49 q 71 276 71 178 l 71 747 l 308 747 l 308 321 q 337 229 308 260 q 415 199 365 199 q 463 212 439 199 q 504 252 488 225 q 521 321 521 279 m 722 915 q 683 822 722 858 q 586 786 644 786 q 486 822 525 786 q 447 915 447 858 q 486 1011 447 975 q 586 1047 525 1047 q 683 1011 644 1047 q 722 915 722 975 m 386 915 q 348 822 386 858 q 247 786 310 786 q 150 822 189 786 q 111 915 111 858 q 150 1011 111 975 q 247 1047 189 1047 q 348 1011 310 1047 q 386 915 386 975 z "},"ù":{"ha":836,"x_min":71,"x_max":758,"o":"m 521 321 l 521 747 l 758 747 l 758 0 l 540 0 l 540 81 q 453 13 510 39 q 332 -14 397 -14 q 199 17 258 -14 q 105 113 139 49 q 71 276 71 178 l 71 747 l 308 747 l 308 321 q 337 229 308 260 q 415 199 365 199 q 463 212 439 199 q 504 252 488 225 q 521 321 521 279 m 535 793 l 290 793 l 122 1018 l 397 1018 l 535 793 z "},"ű":{"ha":836,"x_min":71,"x_max":838,"o":"m 521 321 l 521 747 l 758 747 l 758 0 l 540 0 l 540 81 q 453 13 510 39 q 332 -14 397 -14 q 199 17 258 -14 q 105 113 139 49 q 71 276 71 178 l 71 747 l 308 747 l 308 321 q 337 229 308 260 q 415 199 365 199 q 463 212 439 199 q 504 252 488 225 q 521 321 521 279 m 669 793 l 440 793 l 593 1018 l 838 1018 l 669 793 m 356 793 l 126 793 l 265 1018 l 508 1018 l 356 793 z "},"ū":{"ha":836,"x_min":71,"x_max":758,"o":"m 521 321 l 521 747 l 758 747 l 758 0 l 540 0 l 540 81 q 453 13 510 39 q 332 -14 397 -14 q 199 17 258 -14 q 105 113 139 49 q 71 276 71 178 l 71 747 l 308 747 l 308 321 q 337 229 308 260 q 415 199 365 199 q 463 212 439 199 q 504 252 488 225 q 521 321 521 279 m 660 810 l 175 810 l 175 963 l 660 963 l 660 810 z "},"ų":{"ha":836,"x_min":71,"x_max":758,"o":"m 521 321 l 521 747 l 758 747 l 758 0 l 540 0 l 540 81 q 453 13 510 39 q 332 -14 397 -14 q 199 17 258 -14 q 105 113 139 49 q 71 276 71 178 l 71 747 l 308 747 l 308 321 q 337 229 308 260 q 415 199 365 199 q 463 212 439 199 q 504 252 488 225 q 521 321 521 279 m 728 -104 l 728 -258 q 629 -274 675 -274 q 503 -237 556 -274 q 450 -124 450 -200 q 503 3 450 -54 q 649 136 556 60 l 714 64 q 655 8 678 38 q 632 -53 632 -21 q 647 -97 632 -82 q 686 -112 661 -112 q 728 -104 706 -112 z "},"ů":{"ha":836,"x_min":71,"x_max":758,"o":"m 521 321 l 521 747 l 758 747 l 758 0 l 540 0 l 540 81 q 453 13 510 39 q 332 -14 397 -14 q 199 17 258 -14 q 105 113 139 49 q 71 276 71 178 l 71 747 l 308 747 l 308 321 q 337 229 308 260 q 415 199 365 199 q 463 212 439 199 q 504 252 488 225 q 521 321 521 279 m 417 786 q 311 811 357 786 q 240 878 265 836 q 215 968 215 919 q 240 1061 215 1019 q 311 1128 265 1103 q 417 1153 357 1153 q 522 1128 476 1153 q 594 1061 568 1103 q 619 968 619 1019 q 594 878 619 919 q 522 811 568 836 q 417 786 476 786 m 417 903 q 464 918 444 903 q 483 968 483 933 q 464 1021 483 1004 q 417 1038 444 1038 q 370 1021 392 1038 q 349 968 349 1004 q 370 918 349 933 q 417 903 392 903 z "},"v":{"ha":789,"x_min":-7,"x_max":796,"o":"m 796 747 l 528 0 l 264 0 l -7 747 l 251 747 l 401 269 l 554 747 l 796 747 z "},"w":{"ha":1139,"x_min":7,"x_max":1132,"o":"m 685 0 l 569 424 l 454 0 l 217 0 l 7 747 l 239 747 l 343 338 l 453 747 l 690 747 l 794 338 l 899 747 l 1132 747 l 921 0 l 685 0 z "},"ẃ":{"ha":1139,"x_min":7,"x_max":1132,"o":"m 685 0 l 569 424 l 454 0 l 217 0 l 7 747 l 239 747 l 343 338 l 453 747 l 690 747 l 794 338 l 899 747 l 1132 747 l 921 0 l 685 0 m 696 793 l 451 793 l 590 1018 l 864 1018 l 696 793 z "},"ŵ":{"ha":1139,"x_min":7,"x_max":1132,"o":"m 685 0 l 569 424 l 454 0 l 217 0 l 7 747 l 239 747 l 343 338 l 453 747 l 690 747 l 794 338 l 899 747 l 1132 747 l 921 0 l 685 0 m 485 793 l 224 793 l 419 1018 l 721 1018 l 915 793 l 656 793 l 569 896 l 485 793 z "},"ẅ":{"ha":1139,"x_min":7,"x_max":1132,"o":"m 685 0 l 569 424 l 454 0 l 217 0 l 7 747 l 239 747 l 343 338 l 453 747 l 690 747 l 794 338 l 899 747 l 1132 747 l 921 0 l 685 0 m 875 915 q 836 822 875 858 q 739 786 797 786 q 639 822 678 786 q 600 915 600 858 q 639 1011 600 975 q 739 1047 678 1047 q 836 1011 797 1047 q 875 915 875 975 m 539 915 q 501 822 539 858 q 400 786 463 786 q 303 822 342 786 q 264 915 264 858 q 303 1011 264 975 q 400 1047 342 1047 q 501 1011 463 1047 q 539 915 539 975 z "},"ẁ":{"ha":1139,"x_min":7,"x_max":1132,"o":"m 685 0 l 569 424 l 454 0 l 217 0 l 7 747 l 239 747 l 343 338 l 453 747 l 690 747 l 794 338 l 899 747 l 1132 747 l 921 0 l 685 0 m 688 793 l 443 793 l 275 1018 l 550 1018 l 688 793 z "},"x":{"ha":846,"x_min":17,"x_max":829,"o":"m 283 0 l 17 0 l 258 379 l 33 747 l 310 747 l 435 510 l 560 747 l 811 747 l 590 369 l 829 0 l 558 0 l 418 244 l 283 0 z "},"y":{"ha":789,"x_min":-7,"x_max":796,"o":"m 796 747 l 440 -268 l 181 -268 l 285 8 l -7 747 l 251 747 l 413 285 l 557 747 l 796 747 z "},"ý":{"ha":789,"x_min":-7,"x_max":796,"o":"m 796 747 l 440 -268 l 181 -268 l 285 8 l -7 747 l 251 747 l 413 285 l 557 747 l 796 747 m 522 793 l 278 793 l 417 1018 l 690 1018 l 522 793 z "},"ŷ":{"ha":789,"x_min":-7,"x_max":796,"o":"m 796 747 l 440 -268 l 181 -268 l 285 8 l -7 747 l 251 747 l 413 285 l 557 747 l 796 747 m 311 793 l 50 793 l 246 1018 l 547 1018 l 742 793 l 482 793 l 396 896 l 311 793 z "},"ÿ":{"ha":789,"x_min":-7,"x_max":796,"o":"m 796 747 l 440 -268 l 181 -268 l 285 8 l -7 747 l 251 747 l 413 285 l 557 747 l 796 747 m 701 915 q 663 822 701 858 q 565 786 624 786 q 465 822 504 786 q 426 915 426 858 q 465 1011 426 975 q 565 1047 504 1047 q 663 1011 624 1047 q 701 915 701 975 m 365 915 q 327 822 365 858 q 226 786 289 786 q 129 822 168 786 q 90 915 90 858 q 129 1011 90 975 q 226 1047 168 1047 q 327 1011 289 1047 q 365 915 365 975 z "},"ỳ":{"ha":789,"x_min":-7,"x_max":796,"o":"m 796 747 l 440 -268 l 181 -268 l 285 8 l -7 747 l 251 747 l 413 285 l 557 747 l 796 747 m 514 793 l 269 793 l 101 1018 l 376 1018 l 514 793 z "},"z":{"ha":768,"x_min":53,"x_max":715,"o":"m 715 0 l 61 0 l 61 196 l 410 539 l 53 539 l 53 747 l 707 747 l 707 547 l 354 208 l 715 208 l 715 0 z "},"ź":{"ha":768,"x_min":53,"x_max":715,"o":"m 715 0 l 61 0 l 61 196 l 410 539 l 53 539 l 53 747 l 707 747 l 707 547 l 354 208 l 715 208 l 715 0 m 513 793 l 268 793 l 407 1018 l 681 1018 l 513 793 z "},"ž":{"ha":768,"x_min":40,"x_max":732,"o":"m 715 0 l 61 0 l 61 196 l 410 539 l 53 539 l 53 747 l 707 747 l 707 547 l 354 208 l 715 208 l 715 0 m 538 793 l 236 793 l 40 1018 l 301 1018 l 386 915 l 472 1018 l 732 1018 l 538 793 z "},"ż":{"ha":768,"x_min":53,"x_max":715,"o":"m 715 0 l 61 0 l 61 196 l 410 539 l 53 539 l 53 747 l 707 747 l 707 547 l 354 208 l 715 208 l 715 0 m 538 921 q 495 824 538 863 q 385 786 453 786 q 274 824 317 786 q 232 921 232 863 q 274 1019 232 981 q 385 1057 317 1057 q 495 1019 453 1057 q 538 921 538 981 z "},"ﬁ":{"ha":978,"x_min":11,"x_max":932,"o":"m 388 0 l 150 0 l 150 540 l 11 540 l 11 747 l 150 747 l 150 774 q 213 951 150 889 q 400 1014 275 1014 q 474 1007 440 1014 q 535 989 508 1000 l 535 801 q 500 812 521 808 q 460 815 479 815 q 408 805 429 815 q 388 768 388 794 l 388 747 l 571 747 l 571 540 l 388 540 l 388 0 m 900 0 l 663 0 l 663 747 l 900 747 l 900 0 m 932 921 q 890 824 932 863 q 779 786 847 786 q 669 824 711 786 q 626 921 626 863 q 669 1019 626 981 q 779 1057 711 1057 q 890 1019 847 1057 q 932 921 932 981 z "},"ﬂ":{"ha":981,"x_min":11,"x_max":903,"o":"m 388 0 l 150 0 l 150 540 l 11 540 l 11 747 l 150 747 l 150 774 q 213 951 150 889 q 400 1014 275 1014 q 474 1007 440 1014 q 535 989 508 1000 l 535 801 q 500 812 521 808 q 460 815 479 815 q 408 805 429 815 q 388 768 388 794 l 388 747 l 571 747 l 571 540 l 388 540 l 388 0 m 903 0 l 663 0 l 663 997 l 903 997 l 903 0 z "},"ª":{"ha":594,"x_min":21,"x_max":557,"o":"m 399 354 l 399 407 q 327 358 368 372 q 229 343 286 343 q 78 394 136 343 q 21 528 21 444 q 90 659 21 614 q 286 704 158 704 q 332 702 310 704 q 372 697 354 700 l 372 724 q 351 778 372 760 q 292 796 329 796 q 231 778 257 796 q 206 724 206 760 l 29 724 q 71 838 35 788 q 165 919 107 889 q 293 949 224 949 q 488 886 418 949 q 557 713 557 824 l 557 354 l 399 354 m 206 533 q 224 492 206 507 q 275 478 242 478 q 347 497 321 478 q 372 546 372 515 l 372 581 q 333 587 350 585 q 299 589 317 589 q 206 533 206 589 z "},"º":{"ha":678,"x_min":25,"x_max":653,"o":"m 339 343 q 179 384 250 343 q 67 494 108 425 q 25 646 25 563 q 67 798 25 729 q 179 908 108 867 q 339 949 250 949 q 499 908 428 949 q 611 798 569 867 q 653 646 653 729 q 611 494 653 563 q 499 384 569 425 q 339 343 428 343 m 339 519 q 392 533 367 519 q 433 575 417 547 q 449 646 449 603 q 433 717 449 689 q 392 758 417 744 q 339 772 367 772 q 286 758 311 772 q 245 717 261 744 q 229 646 229 689 q 245 575 229 603 q 286 533 261 547 q 339 519 311 519 z "},"Δ":{"ha":1026,"x_min":8,"x_max":1018,"o":"m 1018 0 l 8 0 l 379 997 l 650 997 l 1018 0 m 507 729 l 329 206 l 682 206 l 507 729 z "},"Ω":{"ha":1033,"x_min":31,"x_max":1003,"o":"m 458 0 l 38 0 l 38 224 l 263 206 l 263 240 q 140 326 192 275 q 59 446 88 376 q 31 603 31 515 q 91 808 31 715 q 260 956 151 900 q 517 1011 369 1011 q 773 956 664 1011 q 942 808 882 900 q 1003 603 1003 715 q 974 446 1003 515 q 894 326 946 376 q 769 240 842 275 l 769 206 l 996 224 l 996 0 l 575 0 l 575 350 q 705 433 661 374 q 749 567 749 493 q 722 681 749 629 q 644 762 696 732 q 517 792 592 792 q 390 762 442 792 q 312 681 339 732 q 285 567 285 629 q 329 433 285 493 q 458 350 374 374 l 458 0 z "},"μ":{"ha":860,"x_min":78,"x_max":782,"o":"m 418 -14 q 348 -3 381 -14 q 293 25 315 7 l 313 -268 l 78 -268 l 78 747 l 315 747 l 315 339 q 345 234 315 269 q 436 199 375 199 q 518 238 492 199 q 544 329 544 278 l 544 747 l 782 747 l 782 0 l 549 0 l 549 60 q 492 6 528 25 q 418 -14 457 -14 z "},"π":{"ha":894,"x_min":4,"x_max":867,"o":"m 732 -14 q 602 10 654 -14 q 524 92 550 35 q 499 250 499 150 l 499 540 l 371 540 l 346 0 l 108 0 l 154 540 l 4 540 l 4 747 l 867 747 l 867 540 l 736 540 l 736 304 q 753 235 736 256 q 808 214 769 214 q 840 216 828 214 q 861 222 853 218 l 861 7 q 797 -8 831 -3 q 732 -14 764 -14 z "},"₀":{"ha":581,"x_min":39,"x_max":542,"o":"m 542 -1 q 476 -215 542 -140 q 290 -290 411 -290 q 103 -215 168 -290 q 39 -1 39 -140 q 105 215 39 139 q 290 290 171 290 q 476 215 410 290 q 542 -1 542 139 m 197 -1 q 221 -112 197 -74 q 290 -151 244 -151 q 383 -1 383 -151 q 359 112 383 72 q 290 151 335 151 q 222 112 246 151 q 197 -1 197 72 z "},"₁":{"ha":349,"x_min":18,"x_max":290,"o":"m 290 -282 l 135 -282 l 135 147 l 18 147 l 18 282 l 290 282 l 290 -282 z "},"₂":{"ha":535,"x_min":21,"x_max":504,"o":"m 504 -143 l 504 -282 l 40 -282 l 42 -194 l 229 -36 q 306 34 279 6 q 332 94 332 63 q 312 135 332 118 q 253 151 292 151 q 192 135 214 151 q 171 82 171 118 l 21 82 q 52 190 21 143 q 138 264 83 238 q 264 290 193 290 q 390 265 339 290 q 467 199 440 239 q 493 117 493 158 q 479 48 493 79 q 433 -17 465 17 q 346 -96 400 -50 l 289 -143 l 504 -143 z "},"₃":{"ha":565,"x_min":36,"x_max":529,"o":"m 529 -107 q 460 -239 529 -189 q 278 -289 390 -289 q 104 -238 172 -289 q 36 -108 36 -187 l 188 -108 q 215 -153 190 -137 q 279 -168 239 -168 q 346 -153 322 -168 q 369 -111 369 -137 q 342 -69 369 -83 q 261 -56 314 -56 l 190 -56 l 190 67 l 251 67 q 319 79 296 67 q 342 117 342 92 q 323 155 342 142 q 269 168 304 168 q 216 152 235 168 q 197 108 197 136 l 47 108 q 78 201 47 160 q 160 266 108 242 q 276 290 213 290 q 442 245 382 290 q 501 131 501 200 q 481 67 501 96 q 419 15 460 39 q 501 -33 472 -3 q 529 -107 529 -64 z "},"₄":{"ha":574,"x_min":17,"x_max":557,"o":"m 557 -186 l 467 -186 l 467 -282 l 313 -282 l 313 -186 l 17 -186 l 17 -69 l 342 282 l 467 282 l 467 -51 l 557 -51 l 557 -186 m 194 -51 l 313 -51 l 313 75 l 194 -51 z "},"₅":{"ha":551,"x_min":31,"x_max":529,"o":"m 529 -93 q 503 -183 529 -137 q 422 -260 476 -229 q 282 -290 367 -290 q 156 -266 213 -290 q 67 -199 100 -242 q 31 -100 33 -156 l 186 -100 q 218 -139 193 -126 q 282 -151 243 -151 q 351 -131 333 -151 q 369 -92 369 -110 q 349 -51 369 -72 q 276 -29 329 -29 q 217 -41 242 -29 q 181 -79 192 -53 l 53 -36 l 108 282 l 492 282 l 492 143 l 219 143 l 207 85 q 253 98 229 93 q 303 103 278 103 q 432 74 382 103 q 506 -1 482 44 q 529 -93 529 -46 z "},"₆":{"ha":567,"x_min":31,"x_max":536,"o":"m 536 -87 q 501 -192 536 -147 q 408 -262 465 -237 q 282 -287 350 -287 q 151 -261 208 -287 q 63 -191 94 -235 q 31 -99 31 -147 q 51 1 31 -40 q 113 85 71 42 l 301 283 l 476 283 l 300 94 q 306 94 303 94 q 311 94 308 94 q 422 74 371 94 q 505 14 474 54 q 536 -87 536 -26 m 375 -93 q 348 -41 375 -56 q 285 -26 321 -26 q 221 -41 250 -26 q 192 -93 192 -56 q 221 -142 192 -128 q 285 -157 250 -157 q 348 -142 321 -157 q 375 -93 375 -128 z "},"₇":{"ha":476,"x_min":11,"x_max":465,"o":"m 465 190 l 239 -282 l 74 -282 l 290 143 l 11 143 l 11 282 l 465 282 l 465 190 z "},"₈":{"ha":574,"x_min":36,"x_max":538,"o":"m 538 -112 q 469 -239 538 -189 q 288 -289 401 -289 q 105 -239 174 -289 q 36 -112 36 -189 q 63 -40 36 -71 q 131 11 89 -10 q 76 57 97 31 q 56 121 56 83 q 119 241 56 192 q 288 290 182 290 q 455 241 392 290 q 518 121 518 192 q 497 58 518 85 q 444 11 476 31 q 511 -40 485 -10 q 538 -112 538 -71 m 215 115 q 234 82 215 94 q 288 69 253 69 q 341 82 322 69 q 360 115 360 94 q 341 154 360 140 q 288 168 322 168 q 234 154 253 168 q 215 115 215 140 m 196 -108 q 220 -152 196 -136 q 288 -168 244 -168 q 355 -152 331 -168 q 379 -108 379 -136 q 355 -69 379 -85 q 288 -53 331 -53 q 220 -69 244 -53 q 196 -108 196 -85 z "},"₉":{"ha":567,"x_min":31,"x_max":536,"o":"m 31 90 q 66 196 31 151 q 159 265 101 240 q 285 290 217 290 q 416 264 360 290 q 504 194 472 238 q 536 101 536 151 q 516 2 536 42 q 454 -82 496 -37 l 265 -281 l 90 -281 l 267 -92 q 261 -92 264 -92 q 256 -92 258 -92 q 144 -72 196 -92 q 62 -11 93 -51 q 31 90 31 29 m 192 96 q 219 44 192 58 q 282 29 247 29 q 347 44 318 29 q 375 96 375 58 q 347 146 375 132 q 282 160 318 160 q 219 146 247 160 q 192 96 192 132 z "},"⁰":{"ha":581,"x_min":39,"x_max":542,"o":"m 542 996 q 476 782 542 857 q 290 707 411 707 q 103 782 168 707 q 39 996 39 857 q 105 1212 39 1136 q 290 1288 171 1288 q 476 1212 410 1288 q 542 996 542 1136 m 197 996 q 221 885 197 924 q 290 846 244 846 q 383 996 383 846 q 359 1109 383 1069 q 290 1149 335 1149 q 222 1109 246 1149 q 197 996 197 1069 z "},"⁴":{"ha":574,"x_min":17,"x_max":557,"o":"m 557 811 l 467 811 l 467 715 l 313 715 l 313 811 l 17 811 l 17 928 l 342 1279 l 467 1279 l 467 946 l 557 946 l 557 811 m 194 946 l 313 946 l 313 1072 l 194 946 z "},"⁵":{"ha":551,"x_min":31,"x_max":529,"o":"m 529 904 q 503 814 529 860 q 422 738 476 768 q 282 707 367 707 q 156 731 213 707 q 67 799 100 756 q 31 897 33 842 l 186 897 q 218 858 193 871 q 282 846 243 846 q 351 867 333 846 q 369 906 369 888 q 349 947 369 925 q 276 968 329 968 q 217 956 242 968 q 181 918 192 944 l 53 961 l 108 1279 l 492 1279 l 492 1140 l 219 1140 l 207 1082 q 253 1095 229 1090 q 303 1100 278 1100 q 432 1071 382 1100 q 506 997 482 1042 q 529 904 529 951 z "},"⁶":{"ha":567,"x_min":31,"x_max":536,"o":"m 536 910 q 501 805 536 850 q 408 735 465 760 q 282 710 350 710 q 151 736 208 710 q 63 806 94 763 q 31 899 31 850 q 51 998 31 957 q 113 1082 71 1039 l 301 1281 l 476 1281 l 300 1092 q 306 1092 303 1092 q 311 1092 308 1092 q 422 1072 371 1092 q 505 1011 474 1051 q 536 910 536 971 m 375 904 q 348 956 375 942 q 285 971 321 971 q 221 956 250 971 q 192 904 192 942 q 221 855 192 869 q 285 840 250 840 q 348 855 321 840 q 375 904 375 869 z "},"⁷":{"ha":476,"x_min":11,"x_max":465,"o":"m 465 1188 l 239 715 l 74 715 l 290 1140 l 11 1140 l 11 1279 l 465 1279 l 465 1188 z "},"⁸":{"ha":574,"x_min":36,"x_max":538,"o":"m 538 885 q 469 758 538 808 q 288 708 401 708 q 105 758 174 708 q 36 885 36 808 q 63 957 36 926 q 131 1008 89 988 q 76 1054 97 1028 q 56 1118 56 1081 q 119 1238 56 1189 q 288 1288 182 1288 q 455 1238 392 1288 q 518 1118 518 1189 q 497 1055 518 1082 q 444 1008 476 1028 q 511 957 485 988 q 538 885 538 926 m 215 1113 q 234 1079 215 1092 q 288 1067 253 1067 q 341 1079 322 1067 q 360 1113 360 1092 q 341 1151 360 1138 q 288 1165 322 1165 q 234 1151 253 1165 q 215 1113 215 1138 m 196 889 q 220 845 196 861 q 288 829 244 829 q 355 845 331 829 q 379 889 379 861 q 355 928 379 913 q 288 944 331 944 q 220 928 244 944 q 196 889 196 913 z "},"⁹":{"ha":567,"x_min":31,"x_max":536,"o":"m 31 1088 q 66 1193 31 1149 q 159 1263 101 1238 q 285 1288 217 1288 q 416 1261 360 1288 q 504 1192 472 1235 q 536 1099 536 1149 q 516 999 536 1039 q 454 915 496 960 l 265 717 l 90 717 l 267 906 q 261 906 264 906 q 256 906 258 906 q 144 926 196 906 q 62 986 93 946 q 31 1088 31 1026 m 192 1093 q 219 1041 192 1056 q 282 1026 247 1026 q 347 1041 318 1026 q 375 1093 375 1056 q 347 1143 375 1129 q 282 1157 318 1157 q 219 1143 247 1157 q 192 1093 192 1129 z "},"¹":{"ha":349,"x_min":18,"x_max":290,"o":"m 290 715 l 135 715 l 135 1144 l 18 1144 l 18 1279 l 290 1279 l 290 715 z "},"²":{"ha":535,"x_min":21,"x_max":504,"o":"m 504 854 l 504 715 l 40 715 l 42 803 l 229 961 q 306 1031 279 1003 q 332 1092 332 1060 q 312 1132 332 1115 q 253 1149 292 1149 q 192 1132 214 1149 q 171 1079 171 1115 l 21 1079 q 52 1188 21 1140 q 138 1261 83 1235 q 264 1288 193 1288 q 390 1261 339 1288 q 467 1195 440 1235 q 493 1114 493 1156 q 479 1045 493 1076 q 433 981 465 1014 q 346 901 400 947 l 289 854 l 504 854 z "},"³":{"ha":565,"x_min":36,"x_max":529,"o":"m 529 892 q 460 760 529 810 q 278 710 390 710 q 104 760 172 710 q 36 890 36 811 l 188 890 q 215 846 190 861 q 279 831 239 831 q 346 846 322 831 q 369 888 369 861 q 342 929 369 915 q 261 943 314 943 l 190 943 l 190 1065 l 251 1065 q 319 1078 296 1065 q 342 1115 342 1090 q 323 1153 342 1140 q 269 1167 304 1167 q 216 1151 235 1167 q 197 1107 197 1135 l 47 1107 q 78 1199 47 1158 q 160 1265 108 1240 q 276 1289 213 1289 q 442 1244 382 1289 q 501 1129 501 1199 q 481 1066 501 1094 q 419 1014 460 1038 q 501 965 472 996 q 529 892 529 935 z "},"⁄":{"ha":324,"x_min":-193,"x_max":531,"o":"m -6 0 l -193 0 l 343 939 l 531 939 l -6 0 z "},"½":{"ha":1207,"x_min":18,"x_max":1176,"o":"m 290 375 l 135 375 l 135 804 l 18 804 l 18 939 l 290 939 l 290 375 m 343 0 l 156 0 l 692 939 l 879 939 l 343 0 m 1176 139 l 1176 0 l 713 0 l 714 88 l 901 246 q 978 316 951 288 q 1004 376 1004 344 q 984 417 1004 400 q 925 433 964 433 q 865 417 886 433 q 843 364 843 400 l 693 364 q 724 472 693 425 q 810 546 756 519 q 936 572 865 572 q 1062 547 1011 572 q 1139 481 1113 521 q 1165 399 1165 440 q 1151 330 1165 361 q 1105 265 1138 299 q 1018 186 1072 232 l 961 139 l 1176 139 z "},"¼":{"ha":1142,"x_min":18,"x_max":1104,"o":"m 290 375 l 135 375 l 135 804 l 18 804 l 18 939 l 290 939 l 290 375 m 343 0 l 156 0 l 692 939 l 879 939 l 343 0 m 1104 96 l 1014 96 l 1014 0 l 860 0 l 860 96 l 564 96 l 564 213 l 889 564 l 1014 564 l 1014 231 l 1104 231 l 1104 96 m 742 231 l 860 231 l 860 357 l 742 231 z "},"¾":{"ha":1358,"x_min":36,"x_max":1321,"o":"m 529 551 q 460 419 529 469 q 278 369 390 369 q 104 420 172 369 q 36 550 36 471 l 188 550 q 215 506 190 521 q 279 490 239 490 q 346 506 322 490 q 369 547 369 521 q 342 589 369 575 q 261 603 314 603 l 190 603 l 190 725 l 251 725 q 319 738 296 725 q 342 775 342 750 q 323 813 342 800 q 269 826 304 826 q 216 810 235 826 q 197 767 197 794 l 47 767 q 78 859 47 818 q 160 924 108 900 q 276 949 213 949 q 442 903 382 949 q 501 789 501 858 q 481 726 501 754 q 419 674 460 697 q 501 625 472 656 q 529 551 529 594 m 560 0 l 372 0 l 908 939 l 1096 939 l 560 0 m 1321 96 l 1231 96 l 1231 0 l 1076 0 l 1076 96 l 781 96 l 781 213 l 1106 564 l 1231 564 l 1231 231 l 1321 231 l 1321 96 m 958 231 l 1076 231 l 1076 357 l 958 231 z "},"*":{"ha":694,"x_min":35,"x_max":660,"o":"m 347 576 l 232 422 l 92 524 l 210 668 l 35 726 l 85 885 l 265 818 l 256 997 l 439 997 l 429 818 l 610 885 l 660 726 l 485 668 l 603 524 l 463 422 l 347 576 z "},"\\":{"ha":717,"x_min":-65,"x_max":782,"o":"m 782 -268 l 546 -268 l -65 997 l 171 997 l 782 -268 z "},"·":{"ha":368,"x_min":33,"x_max":335,"o":"m 335 367 q 293 258 335 300 q 185 215 251 215 q 76 258 118 215 q 33 367 33 300 q 76 477 33 435 q 185 519 118 519 q 293 477 251 519 q 335 367 335 435 z "},"•":{"ha":694,"x_min":86,"x_max":608,"o":"m 608 365 q 574 232 608 290 q 481 140 540 174 q 346 106 422 106 q 213 140 271 106 q 120 232 154 174 q 86 365 86 290 q 120 503 86 443 q 213 597 154 563 q 346 631 271 631 q 481 597 422 631 q 574 503 540 563 q 608 365 608 443 z "},":":{"ha":368,"x_min":33,"x_max":335,"o":"m 335 144 q 293 35 335 78 q 185 -7 251 -7 q 76 35 118 -7 q 33 144 33 78 q 76 255 33 213 q 185 297 118 297 q 293 255 251 297 q 335 144 335 213 m 335 597 q 293 488 335 531 q 185 446 251 446 q 76 488 118 446 q 33 597 33 531 q 76 708 33 665 q 185 750 118 750 q 293 708 251 750 q 335 597 335 665 z "},",":{"ha":368,"x_min":-24,"x_max":335,"o":"m 335 89 q 285 -80 335 -10 q 155 -187 236 -150 q -24 -225 74 -225 l -24 -101 q 115 -68 61 -101 q 179 25 169 -35 q 164 23 169 24 q 151 22 158 22 q 63 61 99 22 q 26 154 26 100 q 68 257 26 218 q 171 296 110 296 q 290 245 246 296 q 335 89 335 194 z "},"…":{"ha":1257,"x_min":33,"x_max":1224,"o":"m 335 144 q 293 35 335 78 q 185 -7 251 -7 q 76 35 118 -7 q 33 144 33 78 q 76 255 33 213 q 185 297 118 297 q 293 255 251 297 q 335 144 335 213 m 779 144 q 738 35 779 78 q 629 -7 696 -7 q 520 35 563 -7 q 478 144 478 78 q 520 255 478 213 q 629 297 563 297 q 738 255 696 297 q 779 144 779 213 m 1224 144 q 1182 35 1224 78 q 1074 -7 1140 -7 q 965 35 1007 -7 q 922 144 922 78 q 965 255 922 213 q 1074 297 1007 297 q 1182 255 1140 297 q 1224 144 1224 213 z "},"!":{"ha":421,"x_min":56,"x_max":365,"o":"m 299 325 l 119 325 l 57 997 l 363 997 l 299 325 m 365 139 q 321 34 365 75 q 210 -7 276 -7 q 99 34 143 -7 q 56 139 56 75 q 99 244 56 203 q 210 286 142 286 q 322 244 279 286 q 365 139 365 203 z "},"¡":{"ha":421,"x_min":56,"x_max":365,"o":"m 365 604 q 322 499 365 540 q 210 458 279 458 q 99 499 142 458 q 56 604 56 540 q 99 709 56 668 q 210 750 143 750 q 321 709 276 750 q 365 604 365 668 m 364 -268 l 58 -268 l 121 418 l 300 418 l 364 -268 z "},"#":{"ha":917,"x_min":97,"x_max":819,"o":"m 333 0 l 153 0 l 194 233 l 97 233 l 97 411 l 226 411 l 249 538 l 153 538 l 153 718 l 281 718 l 319 939 l 500 939 l 461 718 l 546 718 l 585 939 l 764 939 l 725 718 l 819 718 l 819 538 l 693 538 l 671 411 l 764 411 l 764 233 l 639 233 l 597 0 l 418 0 l 460 233 l 375 233 l 333 0 m 429 538 l 407 411 l 492 411 l 514 538 l 429 538 z "},".":{"ha":368,"x_min":33,"x_max":335,"o":"m 335 144 q 293 35 335 78 q 185 -7 251 -7 q 76 35 118 -7 q 33 144 33 78 q 76 255 33 213 q 185 297 118 297 q 293 255 251 297 q 335 144 335 213 z "},"?":{"ha":771,"x_min":25,"x_max":746,"o":"m 522 139 q 478 34 522 75 q 365 -7 433 -7 q 252 34 297 -7 q 207 139 207 75 q 251 244 207 203 q 365 286 296 286 q 478 244 435 286 q 522 139 522 203 m 247 699 l 25 699 q 78 862 29 792 q 210 972 128 932 q 396 1011 293 1011 q 578 976 499 1011 q 701 880 657 942 q 746 736 746 818 q 713 631 746 682 q 621 532 681 579 l 513 447 q 467 402 482 422 q 451 364 453 382 q 457 325 450 346 l 306 325 q 272 403 282 367 q 273 476 261 440 q 325 544 285 511 l 426 629 q 467 671 453 651 q 481 718 481 690 q 451 778 481 757 q 369 800 422 800 q 286 772 318 800 q 247 699 254 744 z "},"¿":{"ha":771,"x_min":25,"x_max":746,"o":"m 249 604 q 293 709 249 668 q 406 750 338 750 q 519 709 474 750 q 564 604 564 668 q 519 499 564 540 q 406 457 475 457 q 293 499 338 457 q 249 604 249 540 m 524 31 l 746 31 q 692 -133 742 -62 q 561 -242 643 -203 q 375 -282 479 -282 q 193 -247 272 -282 q 69 -150 114 -212 q 25 -7 25 -87 q 60 97 25 47 q 150 197 94 146 l 258 296 q 301 341 286 321 q 319 379 315 361 q 314 418 322 397 l 465 418 q 499 342 490 378 q 497 271 508 306 q 446 199 485 236 l 344 100 q 303 54 317 74 q 290 11 290 35 q 320 -49 290 -28 q 401 -71 350 -71 q 486 -43 454 -71 q 524 31 518 -15 z "},"\"":{"ha":658,"x_min":71,"x_max":588,"o":"m 271 576 l 85 576 l 71 997 l 285 997 l 271 576 m 574 576 l 388 576 l 374 997 l 588 997 l 574 576 z "},"'":{"ha":356,"x_min":71,"x_max":285,"o":"m 271 576 l 85 576 l 71 997 l 285 997 l 271 576 z "},";":{"ha":368,"x_min":-24,"x_max":335,"o":"m 335 597 q 293 488 335 531 q 185 446 251 446 q 76 488 118 446 q 33 597 33 531 q 76 708 33 665 q 185 750 118 750 q 293 708 251 750 q 335 597 335 665 m 335 89 q 285 -80 335 -10 q 155 -187 236 -150 q -24 -225 74 -225 l -24 -101 q 115 -68 61 -101 q 179 25 169 -35 q 164 23 169 24 q 151 22 158 22 q 63 61 99 22 q 26 154 26 100 q 68 257 26 218 q 171 296 110 296 q 290 245 246 296 q 335 89 335 194 z "},"/":{"ha":717,"x_min":-65,"x_max":782,"o":"m 171 -268 l -65 -268 l 546 997 l 782 997 l 171 -268 z "},"_":{"ha":694,"x_min":0,"x_max":694,"o":"m 694 -268 l 0 -268 l 0 -61 l 694 -61 l 694 -268 z "},"{":{"ha":490,"x_min":8,"x_max":482,"o":"m 8 263 l 8 469 q 92 494 65 469 q 119 571 119 518 l 119 749 q 195 936 119 871 q 413 1001 271 1001 q 446 1001 428 1001 q 482 997 464 1000 l 482 790 q 461 794 471 793 q 442 794 451 794 q 387 777 406 794 q 368 726 368 760 l 368 539 q 231 368 368 393 q 334 310 300 353 q 368 193 368 267 l 368 4 q 388 -48 368 -31 q 443 -65 407 -65 q 462 -64 451 -65 q 482 -61 472 -62 l 482 -268 q 446 -271 464 -269 q 411 -272 428 -272 q 194 -207 269 -272 q 119 -19 119 -142 l 119 160 q 92 238 119 213 q 8 263 65 263 z "},"}":{"ha":490,"x_min":8,"x_max":482,"o":"m 482 467 l 482 260 q 398 235 425 260 q 371 158 371 211 l 371 -19 q 295 -207 371 -142 q 78 -272 219 -272 q 45 -271 63 -272 q 8 -268 28 -269 l 8 -61 q 29 -64 19 -62 q 49 -65 39 -65 q 103 -48 85 -65 q 122 3 122 -31 l 122 190 q 260 361 122 336 q 156 420 190 376 q 122 536 122 464 l 122 725 q 103 777 122 760 q 47 794 83 794 q 29 794 39 794 q 8 790 19 793 l 8 997 q 45 1001 28 1000 q 79 1001 63 1001 q 296 937 221 1001 q 371 749 371 872 l 371 569 q 398 492 371 517 q 482 467 425 467 z "},"[":{"ha":463,"x_min":72,"x_max":454,"o":"m 454 -268 l 72 -268 l 72 997 l 454 997 l 454 790 l 321 790 l 321 -61 l 454 -61 l 454 -268 z "},"]":{"ha":463,"x_min":8,"x_max":390,"o":"m 390 -268 l 8 -268 l 8 -61 l 142 -61 l 142 790 l 8 790 l 8 997 l 390 997 l 390 -268 z "},"(":{"ha":451,"x_min":49,"x_max":465,"o":"m 465 -268 l 225 -268 q 94 28 140 -137 q 49 365 49 193 q 94 702 49 538 q 225 997 140 867 l 465 997 q 338 702 381 867 q 296 365 296 538 q 338 28 296 193 q 465 -268 381 -137 z "},")":{"ha":451,"x_min":-14,"x_max":403,"o":"m 226 -268 l -14 -268 q 114 28 72 -137 q 156 365 156 193 q 114 702 156 538 q -14 997 72 867 l 226 997 q 358 702 313 867 q 403 365 403 538 q 358 28 403 193 q 226 -268 313 -137 z "},"—":{"ha":1042,"x_min":28,"x_max":1014,"o":"m 1014 276 l 28 276 l 28 485 l 1014 485 l 1014 276 z "},"–":{"ha":694,"x_min":28,"x_max":667,"o":"m 667 276 l 28 276 l 28 485 l 667 485 l 667 276 z "},"-":{"ha":500,"x_min":42,"x_max":458,"o":"m 458 274 l 42 274 l 42 488 l 458 488 l 458 274 z "},"­":{"ha":500,"x_min":42,"x_max":458,"o":"m 458 274 l 42 274 l 42 488 l 458 488 l 458 274 z "},"«":{"ha":872,"x_min":14,"x_max":858,"o":"m 483 86 l 219 86 l 14 371 l 219 656 l 483 656 l 292 371 l 483 86 m 858 86 l 594 86 l 389 371 l 594 656 l 858 656 l 667 371 l 858 86 z "},"»":{"ha":872,"x_min":14,"x_max":858,"o":"m 14 656 l 278 656 l 483 371 l 278 86 l 14 86 l 206 371 l 14 656 m 389 656 l 653 656 l 858 371 l 653 86 l 389 86 l 581 371 l 389 656 z "},"‹":{"ha":497,"x_min":14,"x_max":483,"o":"m 483 86 l 219 86 l 14 371 l 219 656 l 483 656 l 292 371 l 483 86 z "},"›":{"ha":497,"x_min":14,"x_max":483,"o":"m 14 656 l 278 656 l 483 371 l 278 86 l 14 86 l 206 371 l 14 656 z "},"„":{"ha":753,"x_min":25,"x_max":728,"o":"m 356 118 q 328 2 356 54 q 253 -85 300 -50 q 147 -134 207 -119 q 25 -137 88 -149 l 25 -22 q 138 -15 90 -33 q 201 54 185 4 q 186 51 194 53 q 171 50 178 50 q 84 85 119 50 q 49 168 49 119 q 88 260 49 225 q 194 296 128 296 q 310 250 265 296 q 356 118 356 204 m 728 118 q 700 2 728 54 q 626 -85 672 -50 q 519 -134 579 -119 q 397 -137 460 -149 l 397 -22 q 510 -15 463 -33 q 574 54 557 4 q 558 51 567 53 q 543 50 550 50 q 456 85 492 50 q 421 168 421 119 q 460 260 421 225 q 567 296 500 296 q 683 250 638 296 q 728 118 728 204 z "},"“":{"ha":753,"x_min":25,"x_max":728,"o":"m 25 744 q 53 860 25 808 q 127 947 81 913 q 233 997 174 982 q 356 1000 293 1011 l 356 885 q 243 877 290 896 q 179 808 196 858 q 196 812 188 811 q 211 813 204 813 q 298 778 264 813 q 332 694 332 743 q 292 603 332 639 q 186 567 253 567 q 70 613 115 567 q 25 744 25 660 m 397 744 q 425 860 397 808 q 499 947 453 913 q 606 997 546 982 q 728 1000 665 1011 l 728 885 q 615 877 663 896 q 551 808 568 858 q 568 812 560 811 q 583 813 576 813 q 670 778 636 813 q 704 694 704 743 q 665 603 704 639 q 558 567 625 567 q 442 613 488 567 q 397 744 397 660 z "},"”":{"ha":753,"x_min":25,"x_max":728,"o":"m 356 829 q 328 713 356 765 q 253 626 300 661 q 147 577 207 592 q 25 574 88 563 l 25 689 q 138 697 90 678 q 201 765 185 715 q 185 763 193 764 q 169 761 176 761 q 83 796 118 761 q 49 879 49 831 q 88 972 49 936 q 194 1007 128 1007 q 310 961 265 1007 q 356 829 356 915 m 728 829 q 700 713 728 765 q 626 626 672 661 q 519 577 579 592 q 397 574 460 563 l 397 689 q 510 697 463 678 q 574 765 557 715 q 557 763 565 764 q 542 761 549 761 q 456 796 490 761 q 421 879 421 831 q 460 972 421 936 q 567 1007 500 1007 q 683 961 638 1007 q 728 829 728 915 z "},"‘":{"ha":381,"x_min":25,"x_max":356,"o":"m 25 744 q 53 860 25 808 q 127 947 81 913 q 233 997 174 982 q 356 1000 293 1011 l 356 885 q 243 877 290 896 q 179 808 196 858 q 196 812 188 811 q 211 813 204 813 q 298 778 264 813 q 332 694 332 743 q 292 603 332 639 q 186 567 253 567 q 70 613 115 567 q 25 744 25 660 z "},"’":{"ha":381,"x_min":25,"x_max":356,"o":"m 356 829 q 328 713 356 765 q 253 626 300 661 q 147 577 207 592 q 25 574 88 563 l 25 689 q 138 697 90 678 q 201 765 185 715 q 185 763 193 764 q 169 761 176 761 q 83 796 118 761 q 49 879 49 831 q 88 972 49 936 q 194 1007 128 1007 q 310 961 265 1007 q 356 829 356 915 z "},"‚":{"ha":381,"x_min":25,"x_max":356,"o":"m 356 118 q 328 2 356 54 q 253 -85 300 -50 q 147 -134 207 -119 q 25 -137 88 -149 l 25 -22 q 138 -15 90 -33 q 201 54 185 4 q 186 51 194 53 q 171 50 178 50 q 84 85 119 50 q 49 168 49 119 q 88 260 49 225 q 194 296 128 296 q 310 250 265 296 q 356 118 356 204 z "},"¢":{"ha":844,"x_min":31,"x_max":814,"o":"m 492 -104 l 339 -104 l 339 -6 q 179 65 249 11 q 70 198 110 118 q 31 374 31 278 q 70 550 31 471 q 179 683 110 629 q 339 753 249 736 l 339 872 l 492 872 l 492 756 q 712 644 624 735 q 814 414 800 553 l 561 414 q 542 481 560 451 q 493 529 524 511 q 422 547 463 547 q 346 526 379 547 q 294 467 313 506 q 276 374 276 428 q 294 283 276 322 q 346 221 313 243 q 422 199 379 199 q 493 217 463 199 q 542 267 524 236 q 561 333 560 297 l 814 333 q 761 169 804 242 q 649 51 718 97 q 492 -8 579 6 l 492 -104 z "},"¤":{"ha":917,"x_min":69,"x_max":847,"o":"m 458 178 q 392 184 424 178 q 331 203 360 190 l 213 85 l 72 224 l 179 332 q 152 397 161 363 q 143 469 143 432 q 179 608 143 544 l 69 718 l 213 856 l 331 738 q 392 755 360 749 q 458 761 424 761 q 525 755 493 761 q 586 738 557 749 l 704 856 l 847 718 l 738 608 q 774 469 774 544 q 765 397 774 432 q 738 332 756 363 l 844 224 l 704 85 l 586 203 q 525 184 557 190 q 458 178 493 178 m 458 346 q 544 376 507 346 q 581 469 581 406 q 544 563 581 533 q 458 593 507 593 q 373 563 410 593 q 336 469 336 533 q 373 376 336 406 q 458 346 410 346 z "},"$":{"ha":856,"x_min":28,"x_max":818,"o":"m 494 -124 l 342 -124 l 342 -7 q 122 97 204 14 q 28 311 39 181 l 265 311 q 307 215 265 250 q 421 179 349 179 q 494 190 463 179 q 544 221 526 200 q 563 271 563 242 q 535 323 563 301 q 472 351 507 344 l 317 385 q 218 416 264 396 q 138 467 172 436 q 85 544 104 499 q 65 653 65 590 q 100 791 65 729 q 197 893 135 853 q 342 947 260 933 l 342 1065 l 494 1065 l 494 947 q 651 893 583 935 q 758 786 718 851 q 804 635 799 721 l 567 635 q 546 701 564 674 q 497 745 528 729 q 426 761 467 761 q 366 751 393 761 q 323 722 339 742 q 307 671 307 703 q 319 635 307 651 q 351 610 331 619 q 394 594 371 600 l 547 563 q 695 509 635 544 q 787 422 756 474 q 818 301 818 369 q 779 147 818 214 q 667 39 740 79 q 494 -11 594 -1 l 494 -124 z "},"€":{"ha":861,"x_min":36,"x_max":825,"o":"m 825 243 l 825 25 q 735 -4 783 6 q 624 -14 688 -14 q 347 69 464 -14 q 186 300 231 153 l 36 300 l 36 439 l 164 439 q 163 463 164 453 q 163 483 163 472 q 164 508 164 493 l 36 508 l 36 647 l 188 647 q 349 872 233 792 q 624 953 464 953 q 825 921 747 953 l 825 697 q 647 739 749 739 q 530 715 582 739 q 446 647 478 692 l 704 647 l 704 508 l 396 508 q 395 483 396 494 q 395 462 394 472 q 396 439 396 451 l 704 439 l 704 300 l 442 300 q 528 227 475 253 q 647 201 582 201 q 745 213 696 201 q 825 243 794 225 z "},"ƒ":{"ha":758,"x_min":28,"x_max":722,"o":"m 478 374 l 439 203 q 380 49 418 113 q 276 -49 342 -15 q 106 -82 210 -82 q 68 -81 88 -82 q 28 -78 49 -79 l 28 142 q 49 138 39 140 q 68 135 58 135 q 158 159 119 135 q 208 239 196 183 l 238 374 l 56 374 l 56 582 l 283 582 l 310 703 q 359 831 326 782 q 433 907 392 881 q 517 943 474 933 q 597 953 560 953 q 665 948 638 953 q 722 932 693 943 l 722 746 q 690 760 707 756 q 654 764 674 764 q 590 747 621 764 q 543 665 558 731 l 524 582 l 694 582 l 694 374 l 478 374 z "},"₺":{"ha":888,"x_min":36,"x_max":867,"o":"m 646 390 l 867 390 q 792 178 858 268 q 619 38 726 88 q 381 -12 513 -12 q 282 -8 326 -12 q 197 11 238 -3 l 197 342 l 36 303 l 36 453 l 197 492 l 197 561 l 36 522 l 36 672 l 197 711 l 197 939 l 438 939 l 438 768 l 724 838 l 724 688 l 438 618 l 438 549 l 724 618 l 724 468 l 438 399 l 438 192 q 542 220 497 196 q 613 288 586 244 q 646 390 640 331 z "},"₽":{"ha":917,"x_min":36,"x_max":881,"o":"m 853 165 l 457 165 l 457 0 l 217 0 l 217 165 l 36 165 l 36 318 l 217 318 l 217 388 l 36 388 l 36 540 l 217 540 l 217 939 l 546 939 q 725 909 650 939 q 840 819 800 879 q 881 671 881 760 q 837 519 881 582 q 713 422 793 456 q 518 388 632 388 l 457 388 l 457 318 l 853 318 l 853 165 m 517 769 l 457 769 l 457 540 l 524 540 q 624 572 594 540 q 653 656 653 604 q 622 740 653 711 q 517 769 592 769 z "},"₹":{"ha":889,"x_min":50,"x_max":853,"o":"m 853 551 l 710 551 q 643 422 694 475 q 519 340 592 368 l 751 0 l 488 0 l 292 314 l 50 314 l 50 481 l 307 481 q 404 499 367 481 q 460 551 442 518 l 50 551 l 50 704 l 458 704 q 403 754 440 736 q 307 772 365 772 l 50 772 l 50 939 l 853 939 l 853 786 l 642 786 q 676 747 661 768 q 699 704 690 726 l 853 704 l 853 551 z "},"£":{"ha":857,"x_min":25,"x_max":838,"o":"m 283 106 q 245 83 257 106 q 236 0 233 61 l 43 0 q 56 171 25 97 q 150 279 86 244 l 150 415 l 51 415 l 51 568 l 150 568 l 150 646 q 192 809 150 740 q 310 915 235 878 q 483 953 385 953 q 647 920 572 953 q 769 822 722 888 q 822 657 817 757 l 565 657 q 536 722 560 704 q 476 739 513 739 q 414 717 438 739 q 390 651 390 696 l 390 568 l 597 568 l 597 415 l 390 415 l 390 274 q 438 247 415 260 q 483 224 461 233 q 527 208 506 214 q 569 203 549 203 q 620 228 606 203 q 626 308 635 253 l 819 308 q 813 143 838 215 q 733 30 789 71 q 601 -11 678 -11 q 502 6 550 -11 q 413 47 454 24 q 340 88 372 71 q 283 106 307 106 z "},"¥":{"ha":875,"x_min":22,"x_max":853,"o":"m 825 165 l 557 165 l 557 0 l 317 0 l 317 165 l 50 165 l 50 318 l 317 318 l 317 353 l 299 388 l 50 388 l 50 540 l 222 540 l 22 938 l 282 938 l 446 586 l 613 938 l 853 938 l 651 540 l 825 540 l 825 388 l 575 388 l 557 353 l 557 318 l 825 318 l 825 165 z "},"∙":{"ha":917,"x_min":307,"x_max":610,"o":"m 610 472 q 567 363 610 406 q 458 321 525 321 q 349 363 392 321 q 307 472 307 406 q 349 583 307 540 q 458 625 392 625 q 567 583 525 625 q 610 472 610 540 z "},"∕":{"ha":917,"x_min":171,"x_max":746,"o":"m 393 0 l 171 0 l 524 939 l 746 939 l 393 0 z "},"+":{"ha":917,"x_min":111,"x_max":806,"o":"m 571 139 l 346 139 l 346 374 l 111 374 l 111 582 l 346 582 l 346 817 l 571 817 l 571 582 l 806 582 l 806 374 l 571 374 l 571 139 z "},"−":{"ha":917,"x_min":111,"x_max":806,"o":"m 806 374 l 111 374 l 111 582 l 806 582 l 806 374 z "},"×":{"ha":917,"x_min":113,"x_max":804,"o":"m 250 124 l 113 264 l 318 469 l 113 676 l 250 817 l 457 608 l 661 815 l 804 678 l 596 469 l 801 264 l 661 125 l 457 331 l 250 124 z "},"÷":{"ha":917,"x_min":111,"x_max":806,"o":"m 806 374 l 111 374 l 111 582 l 806 582 l 806 374 m 608 749 q 567 640 608 682 q 458 597 525 597 q 349 640 392 597 q 307 749 307 682 q 349 859 307 817 q 458 901 392 901 q 567 859 525 901 q 608 749 608 817 m 608 211 q 567 102 608 144 q 458 60 525 60 q 349 102 392 60 q 307 211 307 144 q 349 322 307 279 q 458 364 392 364 q 567 322 525 364 q 608 211 608 279 z "},"=":{"ha":917,"x_min":111,"x_max":806,"o":"m 806 546 l 111 546 l 111 754 l 806 754 l 806 546 m 806 201 l 111 201 l 111 410 l 806 410 l 806 201 z "},"≠":{"ha":917,"x_min":111,"x_max":806,"o":"m 246 201 l 111 201 l 111 410 l 325 410 l 376 546 l 111 546 l 111 754 l 454 754 l 524 939 l 746 939 l 676 754 l 806 754 l 806 546 l 599 546 l 547 410 l 806 410 l 806 201 l 468 201 l 393 0 l 171 0 l 246 201 z "},">":{"ha":917,"x_min":111,"x_max":806,"o":"m 806 375 l 111 103 l 111 310 l 567 469 l 111 629 l 111 836 l 806 564 l 806 375 z "},"<":{"ha":917,"x_min":111,"x_max":806,"o":"m 111 564 l 806 836 l 806 629 l 350 469 l 806 310 l 806 103 l 111 375 l 111 564 z "},"≥":{"ha":917,"x_min":111,"x_max":806,"o":"m 806 0 l 111 0 l 111 208 l 806 208 l 806 0 m 806 510 l 111 238 l 111 444 l 567 604 l 111 764 l 111 971 l 806 699 l 806 510 z "},"≤":{"ha":917,"x_min":111,"x_max":806,"o":"m 806 0 l 111 0 l 111 208 l 806 208 l 806 0 m 111 699 l 806 971 l 806 764 l 350 604 l 806 444 l 806 238 l 111 510 l 111 699 z "},"±":{"ha":917,"x_min":111,"x_max":806,"o":"m 571 274 l 346 274 l 346 508 l 111 508 l 111 717 l 346 717 l 346 951 l 571 951 l 571 717 l 806 717 l 806 508 l 571 508 l 571 274 m 806 0 l 111 0 l 111 208 l 806 208 l 806 0 z "},"≈":{"ha":917,"x_min":54,"x_max":865,"o":"m 626 490 q 528 506 575 490 q 442 540 482 521 q 369 575 401 560 q 314 590 338 590 q 274 568 286 590 q 264 485 261 546 l 71 485 q 78 650 54 578 q 159 763 103 722 q 292 804 215 804 q 388 789 342 804 q 475 754 435 774 q 549 719 515 735 q 604 704 582 704 q 645 726 633 704 q 654 810 657 749 l 847 810 q 840 644 865 717 q 760 531 815 572 q 626 490 704 490 m 626 146 q 528 161 575 146 q 442 196 482 176 q 369 231 401 215 q 314 246 338 246 q 274 224 286 246 q 264 140 261 201 l 71 140 q 78 306 54 233 q 159 419 103 378 q 292 460 215 460 q 388 444 342 460 q 475 410 435 429 q 549 375 515 390 q 604 360 582 360 q 645 382 633 360 q 654 465 657 404 l 847 465 q 840 300 865 372 q 760 187 815 228 q 626 146 704 146 z "},"~":{"ha":917,"x_min":54,"x_max":865,"o":"m 626 318 q 528 333 575 318 q 442 368 482 349 q 369 403 401 388 q 314 418 338 418 q 274 396 286 418 q 264 313 261 374 l 71 313 q 78 478 54 406 q 159 591 103 550 q 292 632 215 632 q 388 617 342 632 q 475 582 435 601 q 549 547 515 563 q 604 532 582 532 q 645 554 633 532 q 654 638 657 576 l 847 638 q 840 472 865 544 q 760 359 815 400 q 626 318 704 318 z "},"¬":{"ha":917,"x_min":111,"x_max":792,"o":"m 792 217 l 568 217 l 568 532 l 111 532 l 111 739 l 792 739 l 792 217 z "},"∞":{"ha":1529,"x_min":31,"x_max":1499,"o":"m 1499 374 q 1451 174 1499 261 q 1319 36 1404 86 q 1121 -14 1235 -14 q 974 13 1039 -14 q 857 83 908 39 q 764 178 806 126 q 672 83 724 126 q 556 13 621 39 q 407 -14 490 -14 q 210 36 294 -14 q 78 174 125 86 q 31 374 31 261 q 78 574 31 486 q 210 711 125 661 q 407 761 294 761 q 556 735 490 761 q 672 665 621 708 q 765 571 724 622 q 857 665 806 622 q 974 735 908 708 q 1121 761 1039 761 q 1319 711 1235 761 q 1451 574 1404 661 q 1499 374 1499 486 m 279 374 q 299 283 279 322 q 354 221 318 243 q 440 199 390 199 q 526 225 488 199 q 597 292 565 251 q 653 374 629 332 q 597 456 629 417 q 526 522 565 496 q 440 549 488 549 q 354 526 390 549 q 299 465 318 504 q 279 374 279 426 m 876 374 q 931 292 900 332 q 1003 225 963 251 q 1089 199 1043 199 q 1176 221 1140 199 q 1231 283 1211 243 q 1250 374 1250 322 q 1231 465 1250 426 q 1176 526 1211 504 q 1089 549 1140 549 q 1003 522 1043 549 q 931 456 963 496 q 876 374 900 417 z "},"∫":{"ha":694,"x_min":43,"x_max":651,"o":"m 465 742 l 465 21 q 423 -154 465 -87 q 310 -251 381 -221 q 154 -282 239 -282 q 99 -278 126 -282 q 43 -267 71 -274 l 43 -43 q 79 -57 58 -53 q 124 -61 100 -61 q 195 -39 165 -61 q 225 40 225 -17 l 225 749 q 265 901 225 843 q 372 985 306 958 q 513 1011 438 1011 q 579 1006 544 1011 q 651 985 614 1000 l 651 806 q 610 822 633 817 q 564 826 586 826 q 498 807 531 826 q 465 742 465 788 z "},"∆":{"ha":1026,"x_min":8,"x_max":1018,"o":"m 1018 0 l 8 0 l 379 997 l 650 997 l 1018 0 m 507 729 l 329 206 l 682 206 l 507 729 z "},"∏":{"ha":1075,"x_min":97,"x_max":978,"o":"m 344 -268 l 97 -268 l 97 997 l 978 997 l 978 -268 l 731 -268 l 731 783 l 344 783 l 344 -268 z "},"∑":{"ha":925,"x_min":53,"x_max":872,"o":"m 872 -268 l 53 -268 l 53 -71 l 431 372 l 65 796 l 65 997 l 872 997 l 872 783 l 371 783 l 722 371 l 354 -54 l 872 -54 l 872 -268 z "},"√":{"ha":1197,"x_min":111,"x_max":1196,"o":"m 1196 997 l 743 -268 l 472 -268 l 275 274 l 111 274 l 111 488 l 464 488 l 614 18 l 947 997 l 1196 997 z "},"∂":{"ha":857,"x_min":31,"x_max":826,"o":"m 31 361 q 78 539 31 460 q 211 665 126 618 q 406 711 296 711 q 415 711 411 711 q 425 711 419 711 l 207 997 l 476 997 l 693 711 q 771 595 742 649 q 813 487 800 542 q 826 361 826 432 q 798 224 826 290 q 717 103 769 157 q 591 17 664 49 q 429 -14 518 -14 q 221 37 311 -14 q 81 173 131 88 q 31 361 31 258 m 276 364 q 322 240 276 281 q 428 200 368 200 q 532 240 486 200 q 578 364 578 281 q 556 456 578 419 q 501 510 535 492 q 428 528 467 528 q 322 488 368 528 q 276 364 276 447 z "},"µ":{"ha":860,"x_min":78,"x_max":782,"o":"m 313 -268 l 78 -268 l 78 747 l 315 747 l 315 339 q 345 234 315 269 q 436 199 375 199 q 518 238 492 199 q 544 329 544 278 l 544 747 l 782 747 l 782 0 l 549 0 l 549 60 q 492 6 528 25 q 418 -14 457 -14 q 348 -3 381 -14 q 293 25 315 7 l 313 -268 z "},"%":{"ha":1575,"x_min":25,"x_max":1550,"o":"m 340 364 q 180 403 251 364 q 67 510 108 443 q 25 656 25 576 q 67 802 25 736 q 180 908 108 868 q 340 947 251 947 q 501 908 429 947 q 614 802 572 868 q 656 656 656 736 q 614 510 656 576 q 501 403 572 443 q 340 364 429 364 m 340 532 q 401 545 374 532 q 446 586 429 558 q 463 656 463 614 q 446 726 463 699 q 401 766 429 753 q 340 779 374 779 q 280 766 308 779 q 234 726 251 753 q 217 656 217 699 q 234 586 217 614 q 280 545 251 558 q 340 532 308 532 m 599 0 l 411 0 l 947 939 l 1135 939 l 599 0 m 1235 -12 q 1074 27 1146 -12 q 961 133 1003 67 q 919 279 919 200 q 961 426 919 360 q 1074 531 1003 492 q 1235 571 1146 571 q 1395 531 1324 571 q 1508 426 1467 492 q 1550 279 1550 360 q 1508 133 1550 200 q 1395 27 1467 67 q 1235 -12 1324 -12 m 1235 156 q 1296 169 1268 156 q 1340 210 1324 182 q 1357 279 1357 238 q 1340 349 1357 322 q 1296 390 1324 376 q 1235 403 1268 403 q 1174 390 1203 403 q 1128 349 1146 376 q 1111 279 1111 322 q 1128 210 1111 238 q 1174 169 1146 182 q 1235 156 1203 156 z "},"‰":{"ha":2239,"x_min":25,"x_max":2214,"o":"m 340 364 q 180 403 251 364 q 67 510 108 443 q 25 656 25 576 q 67 802 25 736 q 180 908 108 868 q 340 947 251 947 q 501 908 429 947 q 614 802 572 868 q 656 656 656 736 q 614 510 656 576 q 501 403 572 443 q 340 364 429 364 m 340 532 q 401 545 374 532 q 446 586 429 558 q 463 656 463 614 q 446 726 463 699 q 401 766 429 753 q 340 779 374 779 q 280 766 308 779 q 234 726 251 753 q 217 656 217 699 q 234 586 217 614 q 280 545 251 558 q 340 532 308 532 m 599 0 l 411 0 l 947 939 l 1135 939 l 599 0 m 1235 -12 q 1074 27 1146 -12 q 961 133 1003 67 q 919 279 919 200 q 961 426 919 360 q 1074 531 1003 492 q 1235 571 1146 571 q 1395 531 1324 571 q 1508 426 1467 492 q 1550 279 1550 360 q 1508 133 1550 200 q 1395 27 1467 67 q 1235 -12 1324 -12 m 1235 156 q 1296 169 1268 156 q 1340 210 1324 182 q 1357 279 1357 238 q 1340 349 1357 322 q 1296 390 1324 376 q 1235 403 1268 403 q 1174 390 1203 403 q 1128 349 1146 376 q 1111 279 1111 322 q 1128 210 1111 238 q 1174 169 1146 182 q 1235 156 1203 156 m 1899 -12 q 1738 27 1810 -12 q 1625 133 1667 67 q 1583 279 1583 200 q 1625 426 1583 360 q 1738 531 1667 492 q 1899 571 1810 571 q 2059 531 1988 571 q 2172 426 2131 492 q 2214 279 2214 360 q 2172 133 2214 200 q 2059 27 2131 67 q 1899 -12 1988 -12 m 1899 156 q 1960 169 1932 156 q 2004 210 1988 182 q 2021 279 2021 238 q 2004 349 2021 322 q 1960 390 1988 376 q 1899 403 1932 403 q 1838 390 1867 403 q 1792 349 1810 376 q 1775 279 1775 322 q 1792 210 1775 238 q 1838 169 1810 182 q 1899 156 1867 156 z "},"◊":{"ha":1028,"x_min":144,"x_max":883,"o":"m 650 -268 l 379 -268 l 144 365 l 379 997 l 650 997 l 883 365 l 650 -268 m 383 365 l 507 0 l 629 365 l 507 729 l 383 365 z "},"@":{"ha":1369,"x_min":39,"x_max":1331,"o":"m 1064 7 l 1064 -189 q 892 -257 986 -232 q 694 -282 799 -282 q 436 -234 556 -282 q 227 -101 317 -186 q 88 95 138 -17 q 39 335 39 207 q 90 576 39 464 q 231 772 140 688 q 444 905 322 857 q 708 953 565 953 q 956 911 842 953 q 1153 799 1069 869 q 1284 637 1238 728 q 1331 446 1331 546 q 1285 242 1331 329 q 1165 106 1240 154 q 994 57 1089 57 q 865 83 911 57 q 793 140 818 110 q 603 57 721 57 q 478 90 532 57 q 396 183 425 124 q 367 322 367 243 q 399 483 367 410 q 488 599 431 556 q 624 642 546 642 q 702 630 668 642 q 764 592 736 618 l 769 622 l 982 622 l 940 357 q 937 328 939 344 q 935 304 935 313 q 954 255 935 272 q 1006 238 974 238 q 1091 289 1064 238 q 1118 424 1118 340 q 1091 548 1118 486 q 1011 660 1064 610 q 883 742 958 711 q 708 772 807 772 q 524 738 608 772 q 378 644 440 704 q 283 506 317 585 q 250 335 250 426 q 283 165 250 244 q 375 26 315 86 q 516 -67 435 -33 q 694 -101 597 -101 q 910 -69 814 -101 q 1064 7 1006 -36 m 592 335 q 608 265 592 293 q 654 238 625 238 q 690 253 675 238 q 714 297 706 269 q 722 357 722 324 q 710 434 722 407 q 668 461 697 461 q 622 442 639 461 q 599 394 606 422 q 592 335 592 365 z "},"&":{"ha":1017,"x_min":49,"x_max":1028,"o":"m 636 504 l 854 504 q 838 393 854 453 q 796 276 822 333 q 735 175 769 219 q 579 35 663 83 q 400 -12 496 -12 q 214 26 293 -12 q 92 135 135 65 q 49 301 49 206 q 75 413 49 360 q 151 511 101 467 q 271 586 201 556 l 399 438 q 333 414 361 431 q 291 372 306 397 q 276 315 276 347 q 293 244 276 274 q 342 199 310 215 q 419 183 375 183 q 526 215 479 183 q 601 306 574 247 q 626 394 617 336 q 636 504 636 451 m 496 553 l 1028 0 l 733 0 l 256 488 q 207 551 226 518 q 177 619 188 583 q 167 690 167 654 q 207 826 167 767 q 319 919 247 885 q 481 953 390 953 q 638 919 571 953 q 741 826 704 886 q 778 685 778 767 l 556 685 q 544 728 553 711 q 519 753 535 744 q 481 763 503 763 q 445 753 461 763 q 421 728 429 744 q 413 689 413 711 q 422 649 413 669 q 449 606 431 629 q 496 553 467 583 z "},"¶":{"ha":1082,"x_min":36,"x_max":1054,"o":"m 611 -268 l 372 -268 l 372 254 q 190 308 265 265 q 76 422 115 350 q 36 594 36 494 q 86 783 36 706 q 228 900 136 860 q 449 940 321 940 l 1054 940 l 1054 726 l 963 726 l 963 -268 l 722 -268 l 722 726 l 611 726 l 611 -268 z "},"§":{"ha":819,"x_min":32,"x_max":788,"o":"m 32 315 q 74 428 32 382 q 192 506 115 475 q 113 583 140 538 q 86 694 86 629 q 127 831 86 774 q 239 918 168 888 q 399 949 310 949 q 573 913 499 949 q 691 813 647 876 q 742 667 735 750 l 507 667 q 472 743 501 715 q 399 771 442 771 q 336 751 360 771 q 313 701 313 731 q 338 651 313 671 q 406 621 363 632 l 549 582 q 730 494 672 549 q 788 356 788 440 q 752 231 788 285 q 643 139 717 178 q 725 68 700 111 q 750 -35 750 25 q 708 -164 750 -107 q 592 -253 665 -221 q 426 -286 519 -286 q 163 -206 263 -286 q 51 4 63 -126 l 286 4 q 323 -78 289 -47 q 411 -108 357 -108 q 467 -99 443 -108 q 503 -72 490 -90 q 517 -31 517 -54 q 492 16 517 -3 q 411 49 468 35 l 268 85 q 88 177 143 117 q 32 315 32 238 m 256 343 q 278 293 256 314 q 342 261 300 272 q 442 250 383 250 q 510 258 483 250 q 551 284 538 267 q 564 326 564 301 q 541 376 564 356 q 476 408 518 397 q 378 419 435 419 q 310 411 338 419 q 269 385 283 403 q 256 343 256 368 z "},"©":{"ha":1093,"x_min":54,"x_max":1039,"o":"m 546 -12 q 351 25 440 -12 q 194 128 261 63 q 91 282 128 194 q 54 469 54 369 q 91 658 54 569 q 194 812 128 746 q 351 915 261 878 q 546 953 440 953 q 742 915 651 953 q 899 812 832 878 q 1002 658 965 746 q 1039 469 1039 569 q 1002 282 1039 369 q 899 128 965 194 q 742 25 832 63 q 546 -12 651 -12 m 546 107 q 692 135 626 107 q 804 212 757 163 q 877 327 851 261 q 903 469 903 393 q 877 613 903 547 q 804 728 851 679 q 692 804 757 776 q 546 832 626 832 q 401 804 467 832 q 289 728 336 776 q 216 613 242 679 q 190 469 190 547 q 216 327 190 393 q 289 212 242 261 q 401 135 336 163 q 546 107 467 107 m 656 438 l 803 438 q 721 276 792 338 q 547 215 650 215 q 421 249 478 215 q 331 341 364 283 q 297 469 297 399 q 331 599 297 542 q 421 690 364 656 q 547 724 478 724 q 721 662 650 724 q 803 501 792 600 l 656 501 q 619 572 649 546 q 549 599 590 599 q 491 583 515 599 q 453 538 467 567 q 440 469 440 508 q 453 401 440 431 q 491 356 467 372 q 549 339 515 339 q 619 367 589 339 q 656 438 649 394 z "},"®":{"ha":1093,"x_min":54,"x_max":1039,"o":"m 546 -12 q 351 25 440 -12 q 194 128 261 63 q 91 282 128 194 q 54 469 54 369 q 91 658 54 569 q 194 812 128 746 q 351 915 261 878 q 546 953 440 953 q 742 915 651 953 q 899 812 832 878 q 1002 658 965 746 q 1039 469 1039 569 q 1002 282 1039 369 q 899 128 965 194 q 742 25 832 63 q 546 -12 651 -12 m 546 107 q 692 135 626 107 q 804 212 757 163 q 877 327 851 261 q 903 469 903 393 q 877 613 903 547 q 804 728 851 679 q 692 804 757 776 q 546 832 626 832 q 401 804 467 832 q 289 728 336 776 q 216 613 242 679 q 190 469 190 547 q 216 327 190 393 q 289 212 242 261 q 401 135 336 163 q 546 107 467 107 m 614 225 l 518 383 l 485 383 l 485 225 l 346 225 l 346 714 l 550 714 q 707 672 651 714 q 763 549 763 629 q 734 462 763 497 q 661 407 706 426 l 783 225 l 614 225 m 544 599 l 485 599 l 485 499 l 544 499 q 606 513 588 499 q 624 549 624 526 q 606 585 624 571 q 544 599 588 599 z "},"™":{"ha":1232,"x_min":21,"x_max":1135,"o":"m 319 508 l 167 508 l 167 857 l 21 857 l 21 997 l 465 997 l 465 857 l 319 857 l 319 508 m 754 508 l 649 831 l 649 508 l 504 508 l 504 997 l 733 997 l 825 697 l 918 997 l 1135 997 l 1135 508 l 990 508 l 990 826 l 886 508 l 754 508 z "},"°":{"ha":664,"x_min":22,"x_max":642,"o":"m 332 421 q 173 460 243 421 q 63 567 103 500 q 22 713 22 633 q 63 859 22 793 q 173 965 103 925 q 332 1004 243 1004 q 491 965 421 1004 q 601 859 561 925 q 642 713 642 793 q 601 567 642 633 q 491 460 561 500 q 332 421 421 421 m 332 589 q 390 603 364 589 q 433 646 417 618 q 449 713 449 674 q 433 780 449 753 q 390 822 417 807 q 332 836 364 836 q 274 822 301 836 q 231 780 247 807 q 214 713 214 753 q 231 646 214 674 q 274 603 247 618 q 332 589 301 589 z "},"|":{"ha":499,"x_min":129,"x_max":369,"o":"m 369 -268 l 129 -268 l 129 997 l 369 997 l 369 -268 z "},"¦":{"ha":494,"x_min":129,"x_max":365,"o":"m 129 997 l 365 997 l 365 444 l 129 444 l 129 997 m 129 285 l 365 285 l 365 -268 l 129 -268 l 129 285 z "},"†":{"ha":917,"x_min":111,"x_max":806,"o":"m 571 -268 l 346 -268 l 346 554 l 111 554 l 111 763 l 346 763 l 346 997 l 571 997 l 571 763 l 806 763 l 806 554 l 571 554 l 571 -268 z "},"‡":{"ha":917,"x_min":111,"x_max":806,"o":"m 571 -268 l 346 -268 l 346 -33 l 111 -33 l 111 175 l 346 175 l 346 554 l 111 554 l 111 763 l 346 763 l 346 997 l 571 997 l 571 763 l 806 763 l 806 554 l 571 554 l 571 175 l 806 175 l 806 -33 l 571 -33 l 571 -268 z "},"℮":{"ha":1157,"x_min":35,"x_max":1122,"o":"m 979 189 l 1038 189 q 847 36 961 86 q 594 -14 732 -14 q 369 26 472 -14 q 192 135 267 65 q 76 298 117 206 q 35 497 35 390 q 76 688 35 596 q 191 851 117 779 q 365 966 265 924 q 579 1008 464 1008 q 855 941 736 1008 q 1044 755 974 874 q 1122 482 1114 636 l 271 482 q 242 451 242 482 l 242 217 q 272 140 242 175 q 352 78 301 104 q 466 38 403 53 q 594 24 529 24 q 826 66 726 24 q 979 189 926 108 m 242 790 l 242 547 q 271 517 242 517 l 888 517 q 915 547 915 517 l 915 782 q 867 875 915 832 q 743 945 819 918 q 579 972 667 972 q 455 957 515 972 q 346 916 394 942 q 269 858 297 890 q 242 790 242 825 z "},"^":{"ha":918,"x_min":51,"x_max":867,"o":"m 624 381 l 460 706 l 294 381 l 51 381 l 343 939 l 576 939 l 867 381 l 624 381 z "},"̈":{"ha":694,"x_min":42,"x_max":653,"o":"m 653 915 q 614 822 653 858 q 517 786 575 786 q 417 822 456 786 q 378 915 378 858 q 417 1011 378 975 q 517 1047 456 1047 q 614 1011 575 1047 q 653 915 653 975 m 317 915 q 278 822 317 858 q 178 786 240 786 q 81 822 119 786 q 42 915 42 858 q 81 1011 42 975 q 178 1047 119 1047 q 278 1011 240 1047 q 317 915 317 975 z "},"̇":{"ha":694,"x_min":194,"x_max":500,"o":"m 500 921 q 458 824 500 863 q 347 786 415 786 q 237 824 279 786 q 194 921 194 863 q 237 1019 194 981 q 347 1057 279 1057 q 458 1019 415 1057 q 500 921 500 981 z "},"̀":{"ha":694,"x_min":140,"x_max":553,"o":"m 553 793 l 308 793 l 140 1018 l 415 1018 l 553 793 z "},"́":{"ha":694,"x_min":140,"x_max":553,"o":"m 385 793 l 140 793 l 279 1018 l 553 1018 l 385 793 z "},"̋":{"ha":694,"x_min":-8,"x_max":703,"o":"m 535 793 l 306 793 l 458 1018 l 703 1018 l 535 793 m 221 793 l -8 793 l 131 1018 l 374 1018 l 221 793 z "},"̂":{"ha":694,"x_min":1,"x_max":693,"o":"m 263 793 l 1 793 l 197 1018 l 499 1018 l 693 793 l 433 793 l 347 896 l 263 793 z "},"̌":{"ha":694,"x_min":1,"x_max":693,"o":"m 499 793 l 197 793 l 1 1018 l 263 1018 l 347 915 l 433 1018 l 693 1018 l 499 793 z "},"̆":{"ha":694,"x_min":86,"x_max":607,"o":"m 442 1018 l 607 1018 q 538 849 607 911 q 347 786 468 786 q 156 849 225 786 q 86 1018 86 911 l 253 1018 q 278 956 253 978 q 347 935 304 935 q 417 956 392 935 q 442 1018 442 978 z "},"̊":{"ha":694,"x_min":144,"x_max":549,"o":"m 346 786 q 240 811 286 786 q 169 878 194 836 q 144 968 144 919 q 169 1061 144 1019 q 240 1128 194 1103 q 346 1153 286 1153 q 451 1128 406 1153 q 523 1061 497 1103 q 549 968 549 1019 q 523 878 549 919 q 451 811 497 836 q 346 786 406 786 m 346 903 q 393 918 374 903 q 413 968 413 933 q 393 1021 413 1004 q 346 1038 374 1038 q 299 1021 321 1038 q 278 968 278 1004 q 299 918 278 933 q 346 903 321 903 z "},"̃":{"ha":694,"x_min":64,"x_max":631,"o":"m 219 789 l 76 789 q 81 910 64 858 q 136 992 97 963 q 231 1022 175 1022 q 297 1015 265 1022 q 356 996 329 1007 q 403 977 382 985 q 439 969 425 969 q 467 982 456 969 q 475 1033 478 994 l 618 1033 q 613 914 631 967 q 556 831 596 861 q 461 800 517 800 q 395 808 426 800 q 338 826 364 815 q 290 845 311 838 q 254 853 269 853 q 228 841 239 853 q 219 789 218 829 z "},"̄":{"ha":694,"x_min":106,"x_max":590,"o":"m 590 810 l 106 810 l 106 963 l 590 963 l 590 810 z "},"̒":{"ha":694,"x_min":215,"x_max":479,"o":"m 215 904 q 251 1005 215 963 q 348 1067 288 1047 q 479 1075 408 1086 l 479 992 q 390 990 428 1000 q 342 951 353 981 q 357 954 349 954 q 372 954 365 954 q 440 931 413 954 q 468 875 468 908 q 436 810 468 835 q 349 785 404 785 q 253 817 292 785 q 215 904 215 849 z "},"̦":{"ha":694,"x_min":215,"x_max":479,"o":"m 479 -157 q 442 -258 479 -215 q 346 -319 406 -300 q 215 -328 286 -339 l 215 -244 q 305 -243 268 -253 q 353 -204 342 -233 q 264 -191 301 -215 q 226 -128 226 -167 q 258 -62 226 -87 q 346 -37 290 -37 q 441 -69 403 -37 q 479 -157 479 -101 z "},"̧":{"ha":694,"x_min":161,"x_max":535,"o":"m 535 -153 q 484 -241 535 -207 q 351 -275 433 -275 q 219 -239 268 -275 q 161 -135 169 -203 l 304 -135 q 316 -160 307 -153 q 342 -168 325 -168 q 367 -160 357 -168 q 376 -137 376 -151 q 366 -111 376 -121 q 334 -99 356 -101 q 278 -100 313 -96 l 308 26 l 421 26 l 403 -42 q 499 -80 464 -50 q 535 -153 535 -110 z "},"̨":{"ha":694,"x_min":208,"x_max":486,"o":"m 486 -104 l 486 -258 q 388 -274 433 -274 q 261 -237 314 -274 q 208 -124 208 -200 q 261 3 208 -54 q 407 136 314 60 l 472 64 q 413 8 436 38 q 390 -53 390 -21 q 405 -97 390 -82 q 444 -112 419 -112 q 486 -104 464 -112 z "},"̵":{"ha":694,"x_min":76,"x_max":619,"o":"m 619 789 l 76 789 l 76 942 l 619 942 l 619 789 z "},"̷":{"ha":694,"x_min":114,"x_max":582,"o":"m 582 447 l 114 347 l 114 544 l 582 646 l 582 447 z "},"̸":{"ha":694,"x_min":-8,"x_max":703,"o":"m 168 0 l -8 0 l 526 747 l 703 747 l 168 0 z "},"ˉ":{"ha":694,"x_min":106,"x_max":590,"o":"m 590 789 l 106 789 l 106 942 l 590 942 l 590 789 z "},"´":{"ha":694,"x_min":140,"x_max":553,"o":"m 385 793 l 140 793 l 279 1018 l 553 1018 l 385 793 z "},"˘":{"ha":694,"x_min":86,"x_max":607,"o":"m 442 1018 l 607 1018 q 538 849 607 911 q 347 786 468 786 q 156 849 225 786 q 86 1018 86 911 l 253 1018 q 278 956 253 978 q 347 935 304 935 q 417 956 392 935 q 442 1018 442 978 z "},"ˇ":{"ha":694,"x_min":1,"x_max":693,"o":"m 499 793 l 197 793 l 1 1018 l 263 1018 l 347 915 l 433 1018 l 693 1018 l 499 793 z "},"¸":{"ha":694,"x_min":161,"x_max":535,"o":"m 535 -153 q 484 -241 535 -207 q 351 -275 433 -275 q 219 -239 268 -275 q 161 -135 169 -203 l 304 -135 q 316 -160 307 -153 q 342 -168 325 -168 q 367 -160 357 -168 q 376 -137 376 -151 q 366 -111 376 -121 q 334 -99 356 -101 q 278 -100 313 -96 l 308 26 l 421 26 l 403 -42 q 499 -80 464 -50 q 535 -153 535 -110 z "},"ˆ":{"ha":694,"x_min":1,"x_max":693,"o":"m 263 793 l 1 793 l 197 1018 l 499 1018 l 693 793 l 433 793 l 347 896 l 263 793 z "},"¨":{"ha":694,"x_min":42,"x_max":653,"o":"m 653 915 q 614 822 653 858 q 517 786 575 786 q 417 822 456 786 q 378 915 378 858 q 417 1011 378 975 q 517 1047 456 1047 q 614 1011 575 1047 q 653 915 653 975 m 317 915 q 278 822 317 858 q 178 786 240 786 q 81 822 119 786 q 42 915 42 858 q 81 1011 42 975 q 178 1047 119 1047 q 278 1011 240 1047 q 317 915 317 975 z "},"˙":{"ha":694,"x_min":194,"x_max":500,"o":"m 500 921 q 458 824 500 863 q 347 786 415 786 q 237 824 279 786 q 194 921 194 863 q 237 1019 194 981 q 347 1057 279 1057 q 458 1019 415 1057 q 500 921 500 981 z "},"`":{"ha":694,"x_min":140,"x_max":553,"o":"m 553 793 l 308 793 l 140 1018 l 415 1018 l 553 793 z "},"˝":{"ha":694,"x_min":-8,"x_max":703,"o":"m 535 793 l 306 793 l 458 1018 l 703 1018 l 535 793 m 221 793 l -8 793 l 131 1018 l 374 1018 l 221 793 z "},"¯":{"ha":694,"x_min":106,"x_max":590,"o":"m 590 810 l 106 810 l 106 963 l 590 963 l 590 810 z "},"˛":{"ha":694,"x_min":208,"x_max":486,"o":"m 486 -104 l 486 -258 q 388 -274 433 -274 q 261 -237 314 -274 q 208 -124 208 -200 q 261 3 208 -54 q 407 136 314 60 l 472 64 q 413 8 436 38 q 390 -53 390 -21 q 405 -97 390 -82 q 444 -112 419 -112 q 486 -104 464 -112 z "},"˚":{"ha":694,"x_min":144,"x_max":549,"o":"m 346 786 q 240 811 286 786 q 169 878 194 836 q 144 968 144 919 q 169 1061 144 1019 q 240 1128 194 1103 q 346 1153 286 1153 q 451 1128 406 1153 q 523 1061 497 1103 q 549 968 549 1019 q 523 878 549 919 q 451 811 497 836 q 346 786 406 786 m 346 903 q 393 918 374 903 q 413 968 413 933 q 393 1021 413 1004 q 346 1038 374 1038 q 299 1021 321 1038 q 278 968 278 1004 q 299 918 278 933 q 346 903 321 903 z "},"˜":{"ha":694,"x_min":64,"x_max":631,"o":"m 219 789 l 76 789 q 81 910 64 858 q 136 992 97 963 q 231 1022 175 1022 q 297 1015 265 1022 q 356 996 329 1007 q 403 977 382 985 q 439 969 425 969 q 467 982 456 969 q 475 1033 478 994 l 618 1033 q 613 914 631 967 q 556 831 596 861 q 461 800 517 800 q 395 808 426 800 q 338 826 364 815 q 290 845 311 838 q 254 853 269 853 q 228 841 239 853 q 219 789 218 829 z "},"\u0000":{"ha":0,"x_min":0,"x_max":0,"o":""},"\r":{"ha":389,"x_min":0,"x_max":0,"o":""},"":{"ha":2415,"x_min":83,"x_max":2193,"o":"m 83 0 l 83 972 l 383 972 l 383 0 l 83 0 m 446 689 l 446 972 l 746 972 l 746 689 l 446 689 m 807 0 l 807 972 l 1108 972 l 1108 0 l 807 0 m 1169 689 l 1169 972 l 1469 972 l 1469 689 l 1169 689 m 1531 0 l 1531 972 l 1832 972 l 1832 0 l 1531 0 m 1893 689 l 1893 972 l 2193 972 l 2193 689 l 1893 689 m 1893 343 l 1893 628 l 2193 628 l 2193 343 l 1893 343 z "},"Q":{"ha":1107,"x_min":39,"x_max":1068,"o":"m 553 -21 q 351 17 444 -21 q 188 126 258 56 q 78 291 118 196 q 39 500 39 386 q 78 708 39 614 q 188 872 118 803 q 351 980 258 942 q 553 1018 444 1018 q 755 980 661 1018 q 919 872 849 942 q 1028 708 989 803 q 1068 500 1068 614 q 1028 291 1068 386 q 919 126 989 196 q 755 17 849 56 q 553 -21 661 -21 m 553 214 q 657 236 611 214 q 734 298 703 258 q 781 390 765 338 q 797 500 797 442 q 781 610 797 558 q 734 700 765 661 q 657 761 703 739 q 553 783 611 783 q 449 761 494 783 q 372 700 403 739 q 324 610 340 661 q 308 500 308 558 q 324 390 308 442 q 372 298 340 338 q 449 236 403 258 q 553 214 494 214 m 768 190 l 1004 -253 l 742 -253 l 536 124 l 768 190 z "},"ı":{"ha":393,"x_min":78,"x_max":315,"o":"m 315 0 l 78 0 l 78 747 l 315 747 l 315 0 z "},"ȷ":{"ha":392,"x_min":-78,"x_max":314,"o":"m 314 747 l 314 38 q 277 -147 314 -76 q 177 -250 240 -218 q 33 -282 114 -282 q -22 -279 6 -282 q -78 -267 -50 -276 l -78 -43 q -42 -57 -62 -53 q 3 -61 -21 -61 q 56 -38 35 -61 q 76 44 76 -15 l 76 747 l 314 747 z "}}}
